<?xml version="1.0" encoding="UTF-8"?>
<svg id="Layer_1" xmlns="http://www.w3.org/2000/svg" viewBox="0 0 50.03 50.03">
  <defs>
    <style>
      .cls-1 {
        fill: #bc6cfa;
      }
    </style>
  </defs>
  <path class="cls-1" d="M49.6,41.76c.58.59.58,1.54,0,2.13l-5.7,5.7c-.59.58-1.54.58-2.13,0l-16.75-16.75-16.75,16.75c-.59.58-1.54.58-2.13,0L.43,43.89c-.58-.59-.58-1.54,0-2.13l16.75-16.75L.43,8.26c-.58-.59-.58-1.54,0-2.13L6.13.43c.59-.58,1.54-.58,2.13,0l16.75,16.75L41.76.43c.59-.58,1.54-.58,2.13,0l5.7,5.7c.58.59.58,1.54,0,2.13l-16.75,16.75,16.75,16.75Z"/>
</svg>