<?xml version="1.0" encoding="UTF-8"?>
<svg id="Layer_2" data-name="Layer 2" xmlns="http://www.w3.org/2000/svg" viewBox="0 0 230 231.48">
  <defs>
    <style>
      .cls-1 {
        fill: #10172e;
      }

      .cls-1, .cls-2 {
        opacity: .56;
      }

      .cls-3 {
        fill: #fff;
      }

      .cls-4 {
        fill: none;
      }

      .cls-5 {
        fill: #86c040;
      }

      .cls-6 {
        fill: #9ecb3b;
      }

      .cls-7 {
        fill: #2080aa;
      }

      .cls-8 {
        fill: #1d4380;
      }

      .cls-9 {
        fill: #0a5ea1;
      }
    </style>
  </defs>
  <g>
    <g>
      <rect class="cls-4" x=".8" y=".96" width="225.41" height="225.41"/>
      <g>
        <circle class="cls-7" cx="113.5" cy="113.67" r="112.7" transform="translate(-17.36 206.82) rotate(-80.49)"/>
        <path class="cls-5" d="M98.15,8.36l-32.89,9.87-6.58,11.51-8.22,9.04v13.16s27.13,3.29,27.96,0c.82-3.29,19.73-4.93,19.73-4.93l-7.4,15.62,7.4,3.29h-37l-6.58,4.11-4.11,8.22s6.58,18.91,5.76,22.2c-.82,3.29-6.58,7.4.82,8.22,7.4.82,17.27,4.99,17.27,4.99l23.84-9.93,18.91,34.53-3.56,16.44s-7.95,11.51-8.78,14.8c-.82,3.29,1.64,12.33,1.64,12.33h21.38l26.31-40.29-4.93-22.2,4.93-13.98s19.73-4.11,23.84-5.76c4.11-1.64,6.58,0,10.69,0s9.87-.82,12.33-4.52c2.47-3.7,13.98-14.39,13.98-14.39l-5.39-22.19-24.91-27.15-23.14-14.8-38.64-9.87-24.67,1.64Z"/>
        <path class="cls-5" d="M15.92,76.61v19.73l15.62,17.33-3.29,24.61-4.52,15.62s9.46,10.69,11.92,12.33c2.47,1.64,14.8,21.38,14.8,21.38l45.22,27.96s-31.24-6.58-33.71-7.4c-2.47-.82-34.81-22.08-34.81-22.08l-20.06-35.27L.8,117.72l6.24-41.11,11.36-12.33-2.47,12.33Z"/>
        <path class="cls-5" d="M214.9,129.23h-21.38s-2.47,15.62-3.29,18.91c-.82,3.29-5.76,23.02-5.76,23.02l8.22,10.69,17.27-26.31,4.93-26.31Z"/>
        <path class="cls-9" d="M50.46,26.25c-1.64,1.23-25.69,37.21-26.93,38.03s-3.7,21.17,0,22.41c3.7,1.23,12.49,12.95,12.49,12.95,0,0,7.86,16.36,7.86,14.04s-.62-22.17-.62-22.17c0,0-1.85-14.68-2.47-17.15-.62-2.47,3.08-10.48,3.08-13.57s6.58-34.53,6.58-34.53Z"/>
        <path class="cls-9" d="M43.88,129.23c-1.23,3.7-11.41,21.58-7.86,21.58s19.58,17.88,19.58,17.88c0,0,4.93,11.51,6.78,13.16,1.85,1.64,40.08,30.63,41.93,30.63s44.4-4.93,46.25-6.17c1.85-1.23,32.68-11.72,33.92-14.8,1.23-3.08-7.4-16.03-7.4-16.03l-13.57,6.37-45.63,11.51-22.2-4.93v-24.05l11.1-24.46-15.42-26.25-47.48,15.56Z"/>
        <path class="cls-9" d="M154.26,166.85h17.27l5.55-23.43,12.95-20.35,17.88-6.17,6.99-16.03h-15.21s-4.11,8.02-6.58,6.78c-2.47-1.23-19.12-2.47-21.58-1.85-2.47.62-13.57,8.1-13.57,8.1l6.78,26.02-10.48,26.93Z"/>
        <path class="cls-8" d="M83.76,133.85l-16.03,6.06h-12.74l11.92,26.93s3.7,10.07,5.76,10.48c2.06.41,12.33,8.22,13.16,9.46s4.52,7.81,5.76,8.22c1.23.41-4.93-24.26-4.93-24.26l-3.7-13.57s1.64-4.11,4.11-7.4c2.47-3.29,8.63-9.87,8.63-9.87l-11.92-6.06Z"/>
        <path class="cls-8" d="M180.37,111.14l-8.22,2.75-3.7,9.17s.41,9.25,0,10.79c-.41,1.54.82,16.34,0,14.7-.82-1.64,5.26-13.57,5.92-16.44.66-2.88,3.13-9.46,6-11.51s6.17-6.93,6.17-6.93l-6.17-2.53Z"/>
        <path class="cls-8" d="M29.49,79.49l-2.06-9.41,4.93-7.85,6.17-7.4s3.7-8.63,2.88-6.58-2.88,21.83-2.88,21.83l-2.52,7.77,2.11,8.22-8.63-6.58Z"/>
        <path class="cls-6" d="M121.99,10.01l-41.11,16.24-16.44,8.43,10.89,3.29,23.64-6.58s10.42-1.64,10.97.82c.54,2.47,3.57,15.72,3.57,15.72,0,0-5.49,10.59-7.13,16.35-1.64,5.76,9.6,10.69,3.57,14.8-6.03,4.11,12.06,17.27,12.06,17.27,0,0,18.09-12.33,22.2-10.28s17.92,2.88,24.17,0c6.25-2.88,9.09-15.99,9.09-15.99l-4.48-22.15s-20.56-16.95-28.78-21.68l-8.22-4.73-13.98-11.51Z"/>
        <path class="cls-6" d="M10.17,100.86c0,2.88,11.41,18.5,11.41,18.5v9.87l-5.7,19.45v6.86s-8.65-25.52-8.99-27.34.82-10.48.82-10.48l2.47-16.86Z"/>
        <path class="cls-6" d="M120.94,116.48l3.93,11.72v16.65l-3.93,15.62-11.01,12.33,1.78,3.7s2.06,4.11,3.7,0c1.64-4.11,9.46-9.66,9.46-9.66l7.81-3.77s6.58-12.21,7.81-14.39c1.23-2.18,4.52-7.94,4.52-8.76s3.29-2.26,1.64-6.06c-1.64-3.8-6.17-16.14-6.99-17.37-.82-1.23-1.64-4.52-.82-6.99.82-2.47-1.64-8.63-1.64-8.63,0,0-16.03,11.51-18.09,10.28-2.06-1.23,1.83,5.34,1.83,5.34Z"/>
        <path class="cls-6" d="M92.39,74.55h-20.56s-5.34.41-7.4,1.64c-2.06,1.23-1.23,5.76,0,9.87,1.23,4.11,2.47,12.74,2.47,12.74l1.23,7.81,12.33-16.03,9.46.91s10.69-2.55,11.1-5.43c.41-2.88-8.63-11.51-8.63-11.51Z"/>
        <path class="cls-8" d="M65.26,18.23l-.82,11.1-9.46,8.94-2.16,5.86v5.55s11.2-1.54,11.61,0c.41,1.54,10.89,1.54,10.89,1.54,0,0,10.79-4.93,12.02-5.55,1.23-.62,8.94,2.98,10.79,1.34,1.85-1.64-1.07,7.05-2.47,7.61-1.4.55-3.65,5.3-3.65,5.3l9,5.8-39.89.21s27.75-3.29,27.44-4.21c-.31-.92,4.93-10.17,4.93-10.17l-5.72-3.15-10.87,7.77h-24.11l-4.58-8.23,2.22-11.81,8.53-7.71,6.27-10.17Z"/>
        <path class="cls-8" d="M74.3,113.67l23.84-9.93,18.91,34.53-3.56,16.44-8.91,17.41,3.73,9.72h19.42l-5.55,3.49h-10.17l-9.25-2.16-.31-10.17,1.85-16.03s6.93-8.63,5.62-11.1c-1.31-2.47-4.7-13.87-4.7-13.87l-9.56-20.86h-4.01l-17.37,2.53Z"/>
      </g>
      <g class="cls-2">
        <path class="cls-1" d="M176.27,23.65c12.45,17.81,19.79,39.44,19.79,62.77,0,60.55-49.26,109.81-109.81,109.81-23.33,0-44.97-7.34-62.77-19.79,19.87,28.41,52.8,47.03,90.02,47.03,60.55,0,109.81-49.26,109.81-109.81,0-37.22-18.63-70.15-47.03-90.02Z"/>
      </g>
    </g>
    <g>
      <rect class="cls-4" x=".8" y=".96" width="225.41" height="225.41"/>
      <g>
        <circle class="cls-7" cx="113.5" cy="113.67" r="112.7" transform="translate(-17.36 206.82) rotate(-80.49)"/>
        <path class="cls-5" d="M98.15,8.36l-32.89,9.87-6.58,11.51-8.22,9.04v13.16s27.13,3.29,27.96,0c.82-3.29,19.73-4.93,19.73-4.93l-7.4,15.62,7.4,3.29h-37l-6.58,4.11-4.11,8.22s6.58,18.91,5.76,22.2c-.82,3.29-6.58,7.4.82,8.22,7.4.82,17.27,4.99,17.27,4.99l23.84-9.93,18.91,34.53-3.56,16.44s-7.95,11.51-8.78,14.8c-.82,3.29,1.64,12.33,1.64,12.33h21.38l26.31-40.29-4.93-22.2,4.93-13.98s19.73-4.11,23.84-5.76c4.11-1.64,6.58,0,10.69,0s9.87-.82,12.33-4.52c2.47-3.7,13.98-14.39,13.98-14.39l-5.39-22.19-24.91-27.15-23.14-14.8-38.64-9.87-24.67,1.64Z"/>
        <path class="cls-5" d="M15.92,76.61v19.73l15.62,17.33-3.29,24.61-4.52,15.62s9.46,10.69,11.92,12.33c2.47,1.64,14.8,21.38,14.8,21.38l45.22,27.96s-31.24-6.58-33.71-7.4c-2.47-.82-34.81-22.08-34.81-22.08l-20.06-35.27L.8,117.72l6.24-41.11,11.36-12.33-2.47,12.33Z"/>
        <path class="cls-5" d="M214.9,129.23h-21.38s-2.47,15.62-3.29,18.91c-.82,3.29-5.76,23.02-5.76,23.02l8.22,10.69,17.27-26.31,4.93-26.31Z"/>
        <path class="cls-9" d="M50.46,26.25c-1.64,1.23-25.69,37.21-26.93,38.03s-3.7,21.17,0,22.41c3.7,1.23,12.49,12.95,12.49,12.95,0,0,7.86,16.36,7.86,14.04s-.62-22.17-.62-22.17c0,0-1.85-14.68-2.47-17.15-.62-2.47,3.08-10.48,3.08-13.57s6.58-34.53,6.58-34.53Z"/>
        <path class="cls-9" d="M43.88,129.23c-1.23,3.7-11.41,21.58-7.86,21.58s19.58,17.88,19.58,17.88c0,0,4.93,11.51,6.78,13.16,1.85,1.64,40.08,30.63,41.93,30.63s44.4-4.93,46.25-6.17c1.85-1.23,32.68-11.72,33.92-14.8,1.23-3.08-7.4-16.03-7.4-16.03l-13.57,6.37-45.63,11.51-22.2-4.93v-24.05l11.1-24.46-15.42-26.25-47.48,15.56Z"/>
        <path class="cls-9" d="M154.26,166.85h17.27l5.55-23.43,12.95-20.35,17.88-6.17,6.99-16.03h-15.21s-4.11,8.02-6.58,6.78c-2.47-1.23-19.12-2.47-21.58-1.85-2.47.62-13.57,8.1-13.57,8.1l6.78,26.02-10.48,26.93Z"/>
        <path class="cls-8" d="M83.76,133.85l-16.03,6.06h-12.74l11.92,26.93s3.7,10.07,5.76,10.48c2.06.41,12.33,8.22,13.16,9.46s4.52,7.81,5.76,8.22c1.23.41-4.93-24.26-4.93-24.26l-3.7-13.57s1.64-4.11,4.11-7.4c2.47-3.29,8.63-9.87,8.63-9.87l-11.92-6.06Z"/>
        <path class="cls-8" d="M180.37,111.14l-8.22,2.75-3.7,9.17s.41,9.25,0,10.79c-.41,1.54.82,16.34,0,14.7-.82-1.64,5.26-13.57,5.92-16.44.66-2.88,3.13-9.46,6-11.51s6.17-6.93,6.17-6.93l-6.17-2.53Z"/>
        <path class="cls-8" d="M29.49,79.49l-2.06-9.41,4.93-7.85,6.17-7.4s3.7-8.63,2.88-6.58-2.88,21.83-2.88,21.83l-2.52,7.77,2.11,8.22-8.63-6.58Z"/>
        <path class="cls-6" d="M121.99,10.01l-41.11,16.24-16.44,8.43,10.89,3.29,23.64-6.58s10.42-1.64,10.97.82c.54,2.47,3.57,15.72,3.57,15.72,0,0-5.49,10.59-7.13,16.35-1.64,5.76,9.6,10.69,3.57,14.8-6.03,4.11,12.06,17.27,12.06,17.27,0,0,18.09-12.33,22.2-10.28s17.92,2.88,24.17,0c6.25-2.88,9.09-15.99,9.09-15.99l-4.48-22.15s-20.56-16.95-28.78-21.68l-8.22-4.73-13.98-11.51Z"/>
        <path class="cls-6" d="M10.17,100.86c0,2.88,11.41,18.5,11.41,18.5v9.87l-5.7,19.45v6.86s-8.65-25.52-8.99-27.34.82-10.48.82-10.48l2.47-16.86Z"/>
        <path class="cls-6" d="M120.94,116.48l3.93,11.72v16.65l-3.93,15.62-11.01,12.33,1.78,3.7s2.06,4.11,3.7,0c1.64-4.11,9.46-9.66,9.46-9.66l7.81-3.77s6.58-12.21,7.81-14.39c1.23-2.18,4.52-7.94,4.52-8.76s3.29-2.26,1.64-6.06c-1.64-3.8-6.17-16.14-6.99-17.37-.82-1.23-1.64-4.52-.82-6.99.82-2.47-1.64-8.63-1.64-8.63,0,0-16.03,11.51-18.09,10.28-2.06-1.23,1.83,5.34,1.83,5.34Z"/>
        <path class="cls-6" d="M92.39,74.55h-20.56s-5.34.41-7.4,1.64c-2.06,1.23-1.23,5.76,0,9.87,1.23,4.11,2.47,12.74,2.47,12.74l1.23,7.81,12.33-16.03,9.46.91s10.69-2.55,11.1-5.43c.41-2.88-8.63-11.51-8.63-11.51Z"/>
        <path class="cls-8" d="M65.26,18.23l-.82,11.1-9.46,8.94-2.16,5.86v5.55s11.2-1.54,11.61,0c.41,1.54,10.89,1.54,10.89,1.54,0,0,10.79-4.93,12.02-5.55,1.23-.62,8.94,2.98,10.79,1.34,1.85-1.64-1.07,7.05-2.47,7.61-1.4.55-3.65,5.3-3.65,5.3l9,5.8-39.89.21s27.75-3.29,27.44-4.21c-.31-.92,4.93-10.17,4.93-10.17l-5.72-3.15-10.87,7.77h-24.11l-4.58-8.23,2.22-11.81,8.53-7.71,6.27-10.17Z"/>
        <path class="cls-8" d="M74.3,113.67l23.84-9.93,18.91,34.53-3.56,16.44-8.91,17.41,3.73,9.72h19.42l-5.55,3.49h-10.17l-9.25-2.16-.31-10.17,1.85-16.03s6.93-8.63,5.62-11.1c-1.31-2.47-4.7-13.87-4.7-13.87l-9.56-20.86h-4.01l-17.37,2.53Z"/>
      </g>
      <g class="cls-2">
        <path class="cls-1" d="M176.27,23.65c12.45,17.81,19.79,39.44,19.79,62.77,0,60.55-49.26,109.81-109.81,109.81-23.33,0-44.97-7.34-62.77-19.79,19.87,28.41,52.8,47.03,90.02,47.03,60.55,0,109.81-49.26,109.81-109.81,0-37.22-18.63-70.15-47.03-90.02Z"/>
      </g>
    </g>
    <g>
      <rect class="cls-4" x=".8" y=".96" width="225.41" height="225.41"/>
      <g>
        <circle class="cls-7" cx="113.5" cy="113.67" r="112.7" transform="translate(-17.36 206.82) rotate(-80.49)"/>
        <path class="cls-5" d="M98.15,8.36l-32.89,9.87-6.58,11.51-8.22,9.04v13.16s27.13,3.29,27.96,0c.82-3.29,19.73-4.93,19.73-4.93l-7.4,15.62,7.4,3.29h-37l-6.58,4.11-4.11,8.22s6.58,18.91,5.76,22.2c-.82,3.29-6.58,7.4.82,8.22,7.4.82,17.27,4.99,17.27,4.99l23.84-9.93,18.91,34.53-3.56,16.44s-7.95,11.51-8.78,14.8c-.82,3.29,1.64,12.33,1.64,12.33h21.38l26.31-40.29-4.93-22.2,4.93-13.98s19.73-4.11,23.84-5.76c4.11-1.64,6.58,0,10.69,0s9.87-.82,12.33-4.52c2.47-3.7,13.98-14.39,13.98-14.39l-5.39-22.19-24.91-27.15-23.14-14.8-38.64-9.87-24.67,1.64Z"/>
        <path class="cls-5" d="M15.92,76.61v19.73l15.62,17.33-3.29,24.61-4.52,15.62s9.46,10.69,11.92,12.33c2.47,1.64,14.8,21.38,14.8,21.38l45.22,27.96s-31.24-6.58-33.71-7.4c-2.47-.82-34.81-22.08-34.81-22.08l-20.06-35.27L.8,117.72l6.24-41.11,11.36-12.33-2.47,12.33Z"/>
        <path class="cls-5" d="M214.9,129.23h-21.38s-2.47,15.62-3.29,18.91c-.82,3.29-5.76,23.02-5.76,23.02l8.22,10.69,17.27-26.31,4.93-26.31Z"/>
        <path class="cls-9" d="M50.46,26.25c-1.64,1.23-25.69,37.21-26.93,38.03s-3.7,21.17,0,22.41c3.7,1.23,12.49,12.95,12.49,12.95,0,0,7.86,16.36,7.86,14.04s-.62-22.17-.62-22.17c0,0-1.85-14.68-2.47-17.15-.62-2.47,3.08-10.48,3.08-13.57s6.58-34.53,6.58-34.53Z"/>
        <path class="cls-9" d="M43.88,129.23c-1.23,3.7-11.41,21.58-7.86,21.58s19.58,17.88,19.58,17.88c0,0,4.93,11.51,6.78,13.16,1.85,1.64,40.08,30.63,41.93,30.63s44.4-4.93,46.25-6.17c1.85-1.23,32.68-11.72,33.92-14.8,1.23-3.08-7.4-16.03-7.4-16.03l-13.57,6.37-45.63,11.51-22.2-4.93v-24.05l11.1-24.46-15.42-26.25-47.48,15.56Z"/>
        <path class="cls-9" d="M154.26,166.85h17.27l5.55-23.43,12.95-20.35,17.88-6.17,6.99-16.03h-15.21s-4.11,8.02-6.58,6.78c-2.47-1.23-19.12-2.47-21.58-1.85-2.47.62-13.57,8.1-13.57,8.1l6.78,26.02-10.48,26.93Z"/>
        <path class="cls-8" d="M83.76,133.85l-16.03,6.06h-12.74l11.92,26.93s3.7,10.07,5.76,10.48c2.06.41,12.33,8.22,13.16,9.46s4.52,7.81,5.76,8.22c1.23.41-4.93-24.26-4.93-24.26l-3.7-13.57s1.64-4.11,4.11-7.4c2.47-3.29,8.63-9.87,8.63-9.87l-11.92-6.06Z"/>
        <path class="cls-8" d="M180.37,111.14l-8.22,2.75-3.7,9.17s.41,9.25,0,10.79c-.41,1.54.82,16.34,0,14.7-.82-1.64,5.26-13.57,5.92-16.44.66-2.88,3.13-9.46,6-11.51s6.17-6.93,6.17-6.93l-6.17-2.53Z"/>
        <path class="cls-8" d="M29.49,79.49l-2.06-9.41,4.93-7.85,6.17-7.4s3.7-8.63,2.88-6.58-2.88,21.83-2.88,21.83l-2.52,7.77,2.11,8.22-8.63-6.58Z"/>
        <path class="cls-6" d="M121.99,10.01l-41.11,16.24-16.44,8.43,10.89,3.29,23.64-6.58s10.42-1.64,10.97.82c.54,2.47,3.57,15.72,3.57,15.72,0,0-5.49,10.59-7.13,16.35-1.64,5.76,9.6,10.69,3.57,14.8-6.03,4.11,12.06,17.27,12.06,17.27,0,0,18.09-12.33,22.2-10.28s17.92,2.88,24.17,0c6.25-2.88,9.09-15.99,9.09-15.99l-4.48-22.15s-20.56-16.95-28.78-21.68l-8.22-4.73-13.98-11.51Z"/>
        <path class="cls-6" d="M10.17,100.86c0,2.88,11.41,18.5,11.41,18.5v9.87l-5.7,19.45v6.86s-8.65-25.52-8.99-27.34.82-10.48.82-10.48l2.47-16.86Z"/>
        <path class="cls-6" d="M120.94,116.48l3.93,11.72v16.65l-3.93,15.62-11.01,12.33,1.78,3.7s2.06,4.11,3.7,0c1.64-4.11,9.46-9.66,9.46-9.66l7.81-3.77s6.58-12.21,7.81-14.39c1.23-2.18,4.52-7.94,4.52-8.76s3.29-2.26,1.64-6.06c-1.64-3.8-6.17-16.14-6.99-17.37-.82-1.23-1.64-4.52-.82-6.99.82-2.47-1.64-8.63-1.64-8.63,0,0-16.03,11.51-18.09,10.28-2.06-1.23,1.83,5.34,1.83,5.34Z"/>
        <path class="cls-6" d="M92.39,74.55h-20.56s-5.34.41-7.4,1.64c-2.06,1.23-1.23,5.76,0,9.87,1.23,4.11,2.47,12.74,2.47,12.74l1.23,7.81,12.33-16.03,9.46.91s10.69-2.55,11.1-5.43c.41-2.88-8.63-11.51-8.63-11.51Z"/>
        <path class="cls-8" d="M65.26,18.23l-.82,11.1-9.46,8.94-2.16,5.86v5.55s11.2-1.54,11.61,0c.41,1.54,10.89,1.54,10.89,1.54,0,0,10.79-4.93,12.02-5.55,1.23-.62,8.94,2.98,10.79,1.34,1.85-1.64-1.07,7.05-2.47,7.61-1.4.55-3.65,5.3-3.65,5.3l9,5.8-39.89.21s27.75-3.29,27.44-4.21c-.31-.92,4.93-10.17,4.93-10.17l-5.72-3.15-10.87,7.77h-24.11l-4.58-8.23,2.22-11.81,8.53-7.71,6.27-10.17Z"/>
        <path class="cls-8" d="M74.3,113.67l23.84-9.93,18.91,34.53-3.56,16.44-8.91,17.41,3.73,9.72h19.42l-5.55,3.49h-10.17l-9.25-2.16-.31-10.17,1.85-16.03s6.93-8.63,5.62-11.1c-1.31-2.47-4.7-13.87-4.7-13.87l-9.56-20.86h-4.01l-17.37,2.53Z"/>
      </g>
      <g class="cls-2">
        <path class="cls-1" d="M176.27,23.65c12.45,17.81,19.79,39.44,19.79,62.77,0,60.55-49.26,109.81-109.81,109.81-23.33,0-44.97-7.34-62.77-19.79,19.87,28.41,52.8,47.03,90.02,47.03,60.55,0,109.81-49.26,109.81-109.81,0-37.22-18.63-70.15-47.03-90.02Z"/>
      </g>
    </g>
    <g>
      <rect class="cls-4" x=".8" y=".96" width="225.41" height="225.41"/>
      <g>
        <circle class="cls-7" cx="113.5" cy="113.67" r="112.7" transform="translate(-17.36 206.82) rotate(-80.49)"/>
        <path class="cls-5" d="M98.15,8.36l-32.89,9.87-6.58,11.51-8.22,9.04v13.16s27.13,3.29,27.96,0c.82-3.29,19.73-4.93,19.73-4.93l-7.4,15.62,7.4,3.29h-37l-6.58,4.11-4.11,8.22s6.58,18.91,5.76,22.2c-.82,3.29-6.58,7.4.82,8.22,7.4.82,17.27,4.99,17.27,4.99l23.84-9.93,18.91,34.53-3.56,16.44s-7.95,11.51-8.78,14.8c-.82,3.29,1.64,12.33,1.64,12.33h21.38l26.31-40.29-4.93-22.2,4.93-13.98s19.73-4.11,23.84-5.76c4.11-1.64,6.58,0,10.69,0s9.87-.82,12.33-4.52c2.47-3.7,13.98-14.39,13.98-14.39l-5.39-22.19-24.91-27.15-23.14-14.8-38.64-9.87-24.67,1.64Z"/>
        <path class="cls-5" d="M15.92,76.61v19.73l15.62,17.33-3.29,24.61-4.52,15.62s9.46,10.69,11.92,12.33c2.47,1.64,14.8,21.38,14.8,21.38l45.22,27.96s-31.24-6.58-33.71-7.4c-2.47-.82-34.81-22.08-34.81-22.08l-20.06-35.27L.8,117.72l6.24-41.11,11.36-12.33-2.47,12.33Z"/>
        <path class="cls-5" d="M214.9,129.23h-21.38s-2.47,15.62-3.29,18.91c-.82,3.29-5.76,23.02-5.76,23.02l8.22,10.69,17.27-26.31,4.93-26.31Z"/>
        <path class="cls-9" d="M50.46,26.25c-1.64,1.23-25.69,37.21-26.93,38.03s-3.7,21.17,0,22.41c3.7,1.23,12.49,12.95,12.49,12.95,0,0,7.86,16.36,7.86,14.04s-.62-22.17-.62-22.17c0,0-1.85-14.68-2.47-17.15-.62-2.47,3.08-10.48,3.08-13.57s6.58-34.53,6.58-34.53Z"/>
        <path class="cls-9" d="M43.88,129.23c-1.23,3.7-11.41,21.58-7.86,21.58s19.58,17.88,19.58,17.88c0,0,4.93,11.51,6.78,13.16,1.85,1.64,40.08,30.63,41.93,30.63s44.4-4.93,46.25-6.17c1.85-1.23,32.68-11.72,33.92-14.8,1.23-3.08-7.4-16.03-7.4-16.03l-13.57,6.37-45.63,11.51-22.2-4.93v-24.05l11.1-24.46-15.42-26.25-47.48,15.56Z"/>
        <path class="cls-9" d="M154.26,166.85h17.27l5.55-23.43,12.95-20.35,17.88-6.17,6.99-16.03h-15.21s-4.11,8.02-6.58,6.78c-2.47-1.23-19.12-2.47-21.58-1.85-2.47.62-13.57,8.1-13.57,8.1l6.78,26.02-10.48,26.93Z"/>
        <path class="cls-8" d="M83.76,133.85l-16.03,6.06h-12.74l11.92,26.93s3.7,10.07,5.76,10.48c2.06.41,12.33,8.22,13.16,9.46s4.52,7.81,5.76,8.22c1.23.41-4.93-24.26-4.93-24.26l-3.7-13.57s1.64-4.11,4.11-7.4c2.47-3.29,8.63-9.87,8.63-9.87l-11.92-6.06Z"/>
        <path class="cls-8" d="M180.37,111.14l-8.22,2.75-3.7,9.17s.41,9.25,0,10.79c-.41,1.54.82,16.34,0,14.7-.82-1.64,5.26-13.57,5.92-16.44.66-2.88,3.13-9.46,6-11.51s6.17-6.93,6.17-6.93l-6.17-2.53Z"/>
        <path class="cls-8" d="M29.49,79.49l-2.06-9.41,4.93-7.85,6.17-7.4s3.7-8.63,2.88-6.58-2.88,21.83-2.88,21.83l-2.52,7.77,2.11,8.22-8.63-6.58Z"/>
        <path class="cls-6" d="M121.99,10.01l-41.11,16.24-16.44,8.43,10.89,3.29,23.64-6.58s10.42-1.64,10.97.82c.54,2.47,3.57,15.72,3.57,15.72,0,0-5.49,10.59-7.13,16.35-1.64,5.76,9.6,10.69,3.57,14.8-6.03,4.11,12.06,17.27,12.06,17.27,0,0,18.09-12.33,22.2-10.28s17.92,2.88,24.17,0c6.25-2.88,9.09-15.99,9.09-15.99l-4.48-22.15s-20.56-16.95-28.78-21.68l-8.22-4.73-13.98-11.51Z"/>
        <path class="cls-6" d="M10.17,100.86c0,2.88,11.41,18.5,11.41,18.5v9.87l-5.7,19.45v6.86s-8.65-25.52-8.99-27.34.82-10.48.82-10.48l2.47-16.86Z"/>
        <path class="cls-6" d="M120.94,116.48l3.93,11.72v16.65l-3.93,15.62-11.01,12.33,1.78,3.7s2.06,4.11,3.7,0c1.64-4.11,9.46-9.66,9.46-9.66l7.81-3.77s6.58-12.21,7.81-14.39c1.23-2.18,4.52-7.94,4.52-8.76s3.29-2.26,1.64-6.06c-1.64-3.8-6.17-16.14-6.99-17.37-.82-1.23-1.64-4.52-.82-6.99.82-2.47-1.64-8.63-1.64-8.63,0,0-16.03,11.51-18.09,10.28-2.06-1.23,1.83,5.34,1.83,5.34Z"/>
        <path class="cls-6" d="M92.39,74.55h-20.56s-5.34.41-7.4,1.64c-2.06,1.23-1.23,5.76,0,9.87,1.23,4.11,2.47,12.74,2.47,12.74l1.23,7.81,12.33-16.03,9.46.91s10.69-2.55,11.1-5.43c.41-2.88-8.63-11.51-8.63-11.51Z"/>
        <path class="cls-8" d="M65.26,18.23l-.82,11.1-9.46,8.94-2.16,5.86v5.55s11.2-1.54,11.61,0c.41,1.54,10.89,1.54,10.89,1.54,0,0,10.79-4.93,12.02-5.55,1.23-.62,8.94,2.98,10.79,1.34,1.85-1.64-1.07,7.05-2.47,7.61-1.4.55-3.65,5.3-3.65,5.3l9,5.8-39.89.21s27.75-3.29,27.44-4.21c-.31-.92,4.93-10.17,4.93-10.17l-5.72-3.15-10.87,7.77h-24.11l-4.58-8.23,2.22-11.81,8.53-7.71,6.27-10.17Z"/>
        <path class="cls-8" d="M74.3,113.67l23.84-9.93,18.91,34.53-3.56,16.44-8.91,17.41,3.73,9.72h19.42l-5.55,3.49h-10.17l-9.25-2.16-.31-10.17,1.85-16.03s6.93-8.63,5.62-11.1c-1.31-2.47-4.7-13.87-4.7-13.87l-9.56-20.86h-4.01l-17.37,2.53Z"/>
      </g>
      <g class="cls-2">
        <path class="cls-1" d="M176.27,23.65c12.45,17.81,19.79,39.44,19.79,62.77,0,60.55-49.26,109.81-109.81,109.81-23.33,0-44.97-7.34-62.77-19.79,19.87,28.41,52.8,47.03,90.02,47.03,60.55,0,109.81-49.26,109.81-109.81,0-37.22-18.63-70.15-47.03-90.02Z"/>
      </g>
    </g>
    <path d="M109.77.99c91.42-4.54,151.18,96.36,103.32,174.79-43.15,70.71-145.99,73.7-192.79,5.19C-30.7,106.33,20.04,5.44,109.77.99ZM106.8,8.03C32.41,12.64-14.01,92.51,16.46,160.37c34.12,75.98,139.17,85.96,187,17.64C256.12,102.8,197.91,2.38,106.8,8.03Z"/>
  </g>
  <g>
    <path d="M142.27,102.67c9.79-.95,15.32,9.81,13.98,18.36-.36,2.32-3.44,3.01-4.53,1.4-1.13-1.68-.77-7.87-2.43-10.69-2.66-4.51-9.24-4.6-11.79.09-1.87,3.45-1.05,6.63-1.49,10.04-.42,3.32-5.22,3.59-5.88-1.31-1.02-7.68,3.81-17.08,12.14-17.89Z"/>
    <path d="M77.71,98.8c19.06-1.5,21.09,26.83,4.14,29.18-21.68,3.01-23.38-27.67-4.14-29.18Z"/>
  </g>
  <path d="M151.66,156.88c-2.76-10.22-17.92-4.02-24.98-3.08-6.56.87-12.75.86-19.31,0-5.39-.71-12.97-3.44-18.08-2.74-9.73,1.34-8.1,11.08-3.69,17.18,11.1,15.3,35.68,18.56,51.67,9.47,6.26-3.55,16.57-12.78,14.39-20.83ZM148.49,160.03c-.57,6.64-10.8,14.12-16.53,16.51-14.41,5.99-37.03,2.08-45.08-12.44-2.06-3.73-2.8-9.06,2.73-9.86,4.1-.59,10.37,1.65,14.64,2.36,9.38,1.55,17.81,1.32,27.15-.31,5.15-.9,17.93-5.87,17.09,3.74Z"/>
  <path class="cls-3" d="M148.49,160.03c-.57,6.64-10.8,14.12-16.53,16.51-14.41,5.99-37.03,2.08-45.08-12.44-2.06-3.73-2.8-9.06,2.73-9.86,4.1-.59,10.37,1.65,14.64,2.36,9.38,1.55,17.81,1.32,27.15-.31,5.15-.9,17.93-5.87,17.09,3.74Z"/>
</svg>