<?xml version="1.0" encoding="UTF-8"?>
<svg id="Layer_2" data-name="Layer 2" xmlns="http://www.w3.org/2000/svg" xmlns:xlink="http://www.w3.org/1999/xlink" viewBox="0 0 230 229.63">
  <defs>
    <style>
      .cls-1 {
        fill: #c06828;
      }

      .cls-2 {
        clip-path: url(#clippath-4);
      }

      .cls-3 {
        fill: #ccb178;
      }

      .cls-4 {
        fill: #e47f38;
      }

      .cls-5 {
        fill: #10172e;
        opacity: .56;
      }

      .cls-6 {
        fill: #fff;
      }

      .cls-7 {
        opacity: .4;
      }

      .cls-8 {
        fill: none;
      }

      .cls-9 {
        clip-path: url(#clippath-1);
      }

      .cls-10 {
        clip-path: url(#clippath-3);
      }

      .cls-11 {
        fill: #eed8a4;
      }

      .cls-12 {
        clip-path: url(#clippath-2);
      }

      .cls-13 {
        fill: #b98e65;
      }

      .cls-14 {
        clip-path: url(#clippath);
      }
    </style>
    <clipPath id="clippath">
      <path class="cls-8" d="M109.41,6.92c81.85-4.3,138.75,81.29,102.77,155.35-35.38,72.83-136.29,82.02-184.3,16.67C-23.08,109.57,23.97,11.41,109.41,6.92ZM151.24,105.77c-7.76.76-12.26,9.51-11.3,16.65.61,4.56,5.07,4.32,5.47,1.22.41-3.17-.36-6.13,1.39-9.35,2.37-4.36,8.5-4.28,10.97-.08,1.55,2.63,1.22,8.39,2.27,9.95,1.01,1.5,3.88.86,4.22-1.3,1.25-7.96-3.9-17.98-13.02-17.09ZM79.05,106.87c-13.1,1.03-11.95,21.92,2.82,19.87,11.54-1.6,10.16-20.89-2.82-19.87ZM122.07,159.72v-.53c5.76-6.18.25-15.55-8.04-12.12-1.89.78-4.12,2.89-1.7,4.45,1.51.44,1.89-.72,2.96-.97,3.64-.86,6.23.93,4.26,4.62-1.04,1.94-4.17,2.23-3.79,4.72.4,2.62,5.52,3.23,6.23,6.39.94,4.19-.72,6.44-5.04,5.41-1.78-.42-6.18-3.83-7.29-1.6-1.45,2.91,2.82,5.26,5,6.11,11.56,4.5,16.76-10.98,7.4-16.48Z"/>
    </clipPath>
    <clipPath id="clippath-1">
      <path class="cls-8" d="M116.52,225.49c-60.6,0-109.9-49.3-109.9-109.9S55.93,5.7,116.52,5.7s109.9,49.3,109.9,109.9-49.3,109.9-109.9,109.9Z"/>
    </clipPath>
    <clipPath id="clippath-2">
      <path class="cls-8" d="M116.52,225.49c-60.6,0-109.9-49.3-109.9-109.9S55.93,5.7,116.52,5.7s109.9,49.3,109.9,109.9-49.3,109.9-109.9,109.9Z"/>
    </clipPath>
    <clipPath id="clippath-3">
      <path class="cls-8" d="M116.52,225.49c-60.6,0-109.9-49.3-109.9-109.9S55.93,5.7,116.52,5.7s109.9,49.3,109.9,109.9-49.3,109.9-109.9,109.9Z"/>
    </clipPath>
    <clipPath id="clippath-4">
      <path class="cls-8" d="M116.52,225.49c-60.6,0-109.9-49.3-109.9-109.9S55.93,5.7,116.52,5.7s109.9,49.3,109.9,109.9-49.3,109.9-109.9,109.9Z"/>
    </clipPath>
  </defs>
  <g id="jupiter">
    <g>
      <path class="cls-6" d="M106.62.23C30.05,4.81-19.74,84.54,7.56,156.09c31.74,83.19,143.65,99.84,198.14,29.12C266.56,106.23,205.51-5.69,106.62.23Z"/>
      <path d="M106.62.23c98.9-5.92,159.94,106,99.08,184.98-54.49,70.72-166.41,54.07-198.14-29.12C-19.74,84.54,30.05,4.81,106.62.23ZM109.21,6.89C23.77,11.38-23.27,109.55,27.68,178.91c48.01,65.35,148.91,56.16,184.3-16.67C247.96,88.18,191.06,2.59,109.21,6.89Z"/>
      <g class="cls-14">
        <g>
          <rect class="cls-8" x="-34.15" y="4.07" width="285.66" height="223.05"/>
          <g>
            <circle class="cls-3" cx="116.52" cy="115.6" r="111.52" transform="translate(-47.61 116.25) rotate(-45)"/>
            <g class="cls-9">
              <g>
                <path class="cls-11" d="M46.23,19.52s73.39,6.53,138.63,0l9.48,7.46s-70.45,19.13-163.18,8.4l15.06-15.86Z"/>
                <path class="cls-11" d="M194.34,199.14s-91.16,2.8-143.67,10.26l12.34,9.8s88.08,1.4,102.82,3.73c2.15-1.4,25.47-15.86,28.51-23.79Z"/>
                <path class="cls-13" d="M24.83,41.92s89.66,14.93,179.39-7.46l2.67,4.2s-102.43,24.21-185.21,8.14l3.14-4.88Z"/>
                <path class="cls-13" d="M211.03,199.92s-89.66-14.93-179.39,7.47l-2.67-4.2s102.43-24.21,185.21-8.14l-3.14,4.87Z"/>
                <path class="cls-13" d="M207.54,43.37s-133,22.11-187.52,8.92l-2.26,2.21s71.49,12.13,193.67-8.4l-3.89-2.74Z"/>
                <path class="cls-11" d="M13.03,58.07s125.56,14.99,203.94-7.35l7.93,17.32S120.21,113.04,5.21,83.65c0,0,3.09-18.11,7.83-25.58Z"/>
                <path class="cls-13" d="M4.34,62.02s85.37,33.96,220.68-7.63l5.16,22.38S98.58,117.08-1.26,86.28c-.5-3.66-.81-10.05,1.87-17.12,1.09-2.89,2.45-5.27,3.73-7.14Z"/>
                <path class="cls-13" d="M228.41,199.68s-85.37-33.96-220.68,7.63l-5.16-22.38s131.59-40.3,231.43-9.51c.5,3.66.81,10.05-1.87,17.12-1.09,2.89-2.45,5.27-3.73,7.14Z"/>
                <path class="cls-11" d="M251.52,123.75c-37.73,12.97-84.48,25.79-138.91,33.81-53,7.82-100.29,9.18-139.42,7.85-2.29-15.28-5.05-59.81-7.34-75.09,42.23-2.16,65.58,15.45,138.15,15.58,51.81.1,98.29-17.36,140.64-28,2.29,15.28,4.57,30.56,6.86,45.84Z"/>
              </g>
            </g>
            <g>
              <path class="cls-11" d="M142.99,158.49c-3.47,5.52-4.08,13.19-.17,18.4,3.01,4.01,8.04,5.94,12.94,6.99,3.45.73,7.03,1.13,10.5.52,2.46-.43,4.81-1.35,7.14-2.26,3.24-1.27,6.48-2.54,9.71-3.81,3.2-1.25,6.49-2.56,8.99-4.92,5.3-5.01,5.57-13.91,1.82-20.16-1.34-2.24-3.13-4.22-5.25-5.74-4.12-2.96-9.33-4.09-14.4-4.13-11.07-.09-25.2,5.41-31.29,15.11Z"/>
              <path class="cls-11" d="M162.68,185.97c-2.68,0-5.59-.47-8.98-1.45-6.5-1.87-10.88-4.67-13.39-8.55-3.62-5.6-2.98-13.83,1.55-20.02h0c7.46-10.2,22.93-14.64,34.33-13.73,6.11.48,11.33,2.39,15.11,5.53,2.13,1.78,3.94,4.06,5.24,6.61,3.86,7.6,2.32,16.98-3.58,21.81-2.93,2.4-6.67,3.57-9.97,4.6l-10.37,3.24c-2.48.78-5.05,1.58-7.74,1.85-.72.07-1.45.11-2.2.11ZM143.17,156.91c-4.14,5.66-4.75,13.13-1.5,18.18,2.28,3.53,6.36,6.11,12.47,7.87,4.13,1.19,7.49,1.6,10.56,1.29,2.52-.26,5.01-1.04,7.42-1.79l10.37-3.24c3.16-.99,6.74-2.1,9.42-4.31,5.23-4.29,6.62-12.99,3.16-19.81-1.19-2.35-2.86-4.46-4.83-6.09-3.51-2.92-8.42-4.71-14.19-5.16-10.69-.83-25.85,3.46-32.89,13.07h0Z"/>
              <path class="cls-11" d="M162.47,187.95c-1.49,0-3.09-.09-4.8-.27-7.32-.78-12.54-2.94-15.95-6.62-4.92-5.3-5.79-14.23-2.11-21.71h0c6.07-12.34,21.8-20.01,34.2-21.2,6.63-.64,12.59.42,17.22,3.07,2.62,1.5,4.99,3.6,6.85,6.09,5.56,7.4,5.68,17.72.29,24-2.69,3.12-6.47,5.08-9.81,6.81l-10.52,5.44c-2.52,1.3-5.13,2.65-7.94,3.45-2.24.63-4.67.95-7.43.95ZM177.49,139.59c-1.15,0-2.33.06-3.53.17-11.66,1.12-27.15,8.62-32.9,20.3h0c-3.39,6.89-2.63,15.06,1.84,19.89,3.13,3.38,8.01,5.37,14.93,6.11,4.68.5,8.36.3,11.61-.62,2.66-.75,5.19-2.06,7.64-3.33l10.52-5.44c3.21-1.66,6.85-3.54,9.33-6.42,4.83-5.62,4.67-15.26-.36-21.96-1.73-2.31-3.93-4.26-6.36-5.65-3.51-2.01-7.86-3.04-12.73-3.04Z"/>
              <path class="cls-1" d="M165.44,148.19c5.41-1.96,11.37-2.99,16.94-1.54,5.57,1.45,10.63,5.78,11.71,11.44,1.1,5.75-2.09,11.69-6.72,15.28-4.62,3.59-10.45,5.23-16.2,6.34-9.36,1.81-25.39,1.41-26.8-11.36-1.13-10.23,13.29-17.35,21.07-20.17Z"/>
              <path class="cls-4" d="M164.59,176.61c-.48,0-.96-.02-1.45-.05-4.11-.3-8.05-2.38-10.28-5.43-1.81-2.46-2.39-5.35-1.69-8.34,1.02-4.34,6.16-6.42,10.29-8.09,1.02-.41,1.98-.8,2.8-1.19,4.82-2.3,9.24-4.19,14-4.05h0c3.98.12,8.82,2.14,10.68,6.41,1.93,4.44-.06,9.44-2.89,12.44-3.2,3.39-7.78,5.19-11.4,6.37-2.97.97-6.44,1.94-10.07,1.94ZM177.76,150.43c-4.41,0-8.54,1.8-13.08,3.96-.84.4-1.82.8-2.86,1.22-3.92,1.59-8.8,3.56-9.7,7.41-.64,2.7-.11,5.31,1.52,7.54,2.07,2.82,5.73,4.75,9.56,5.03,3.98.29,7.86-.76,11.14-1.84,3.73-1.22,7.96-2.91,11-6.11,2.61-2.76,4.46-7.35,2.7-11.37-1.69-3.87-6.15-5.71-9.82-5.82-.16,0-.31,0-.47,0Z"/>
              <path class="cls-4" d="M167.58,172.05c-3.08,0-6.33-.81-9.36-2.36-3.01-1.54-4.79-3.54-5.15-5.78-.31-1.91.46-4.07,2.06-5.79,1.42-1.53,3.29-2.58,4.93-3.5.8-.45,1.64-.98,2.5-1.53,2.71-1.72,5.78-3.68,8.82-3.79,3.91-.13,7.31,1.62,9.11,4.71,2,3.43,1.81,8.14-.49,11.7-2.11,3.28-5.88,5.59-10.09,6.19-.76.11-1.55.16-2.34.16ZM171.82,150.26c-.13,0-.26,0-.4,0-2.78.1-5.73,1.98-8.33,3.64-.88.56-1.73,1.1-2.54,1.56h0c-1.58.89-3.38,1.9-4.7,3.32-1.4,1.5-2.08,3.36-1.81,4.97.4,2.43,2.74,4.1,4.63,5.07,3.63,1.86,7.57,2.6,11.11,2.1,3.93-.56,7.45-2.71,9.41-5.75,2.1-3.26,2.29-7.56.47-10.68-1.56-2.67-4.47-4.23-7.84-4.23Z"/>
              <path class="cls-4" d="M161.46,177.96c-1.17,0-2.36-.16-3.51-.56-2.46-.87-4.65-2.79-6.69-5.88-1.62-2.44-2.42-4.53-2.54-6.55-.23-3.99,2.84-6.46,5.55-8.63.31-.25.62-.49.91-.74,3.5-2.88,7.65-4.92,12-5.9h0c5.05-1.13,9.78-.61,13.33,1.46,4.26,2.49,6.64,7.56,5.52,11.8-.97,3.7-4.18,6.28-6.5,7.9-3.64,2.53-7.62,4.52-11.82,5.92-1.69.56-3.93,1.19-6.25,1.19ZM167.4,150.65c-4.21.94-8.22,2.91-11.59,5.7-.3.25-.61.5-.92.75-2.65,2.13-5.38,4.32-5.18,7.82.11,1.85.86,3.78,2.38,6.07,1.92,2.9,3.95,4.7,6.2,5.5,3.15,1.11,6.72.17,9.13-.63,4.12-1.37,8.01-3.32,11.57-5.8,2.2-1.53,5.22-3.96,6.11-7.34,1.01-3.83-1.17-8.43-5.07-10.71-3.33-1.95-7.81-2.42-12.62-1.35h0Z"/>
              <path class="cls-4" d="M165.39,169.48c-.58,0-1.16-.02-1.74-.07-2.31-.17-3.81-.92-4.47-2.22h0c-1.99-3.92,2.97-9.86,6.19-11.95,3.6-2.33,9.02-3.76,13.02-1.69,1.88.97,3.93,2.97,4.06,5.65.17,3.89-3.71,6.42-5.38,7.33-3.54,1.92-7.63,2.94-11.67,2.94ZM160.04,166.76c.5.97,1.73,1.54,3.67,1.68,4.43.33,8.99-.66,12.87-2.76,1.51-.82,5.02-3.09,4.87-6.43-.08-1.86-1.47-3.76-3.53-4.82-3.65-1.89-8.68-.54-12.04,1.64-2.99,1.94-7.49,7.47-5.85,10.69h0Z"/>
              <path class="cls-4" d="M163.2,172.65c-.5,0-1-.03-1.5-.09h0c-2.45-.32-4.41-1.41-5.66-3.16-1.27-1.78-1.7-4.13-1.19-6.62,1.18-5.8,3.84-8.44,9.01-11.86,3.92-2.59,8.41-3.55,12.32-2.63,3.28.77,5.97,2.83,7.77,5.96,1.34,2.32,1.7,4.8.99,6.79-.75,2.11-2.6,3.59-4.3,4.76-3.38,2.31-7.05,4.17-10.9,5.53-1.83.64-4.13,1.33-6.54,1.33ZM173.17,148.92c-2.91,0-5.99.97-8.77,2.81-4.94,3.27-7.49,5.78-8.6,11.24-.45,2.22-.09,4.3,1.03,5.86,1.09,1.52,2.82,2.48,4.99,2.76h0c2.73.36,5.49-.45,7.59-1.19,3.78-1.33,7.37-3.15,10.68-5.41,1.58-1.08,3.27-2.43,3.93-4.28.61-1.73.28-3.91-.91-5.98-1.67-2.89-4.14-4.79-7.15-5.5-.9-.21-1.84-.32-2.79-.32Z"/>
              <path class="cls-4" d="M169.44,167.38c-1.28,0-2.48-.4-3.35-1.16-1.23-1.07-1.67-2.69-1.25-4.56.59-2.6,3.65-4.72,9.1-6.3h0c1.23-.35,3.02-.72,4.43.2,1.28.84,1.87,2.61,1.43,4.31-.32,1.26-1.14,2.46-2.5,3.7-1.62,1.47-3.56,2.65-5.61,3.41-.75.28-1.52.41-2.26.41ZM174.22,156.29c-6.33,1.84-8.08,4.05-8.42,5.58-.34,1.5,0,2.78.94,3.61,1.11.97,2.93,1.2,4.63.57,1.94-.72,3.77-1.83,5.29-3.22,1.21-1.1,1.93-2.15,2.21-3.22.28-1.1.02-2.57-1.02-3.25-.81-.53-1.97-.55-3.62-.07h0Z"/>
              <path class="cls-4" d="M170.73,164.6c-.74,0-1.48-.2-1.96-.66-.32-.3-.79-.98-.4-2.14.63-1.86,3.96-2.65,5.19-2.79h0c.98-.12,2.26.13,2.6,1.18.24.75-.12,1.58-1.02,2.35-.89.75-1.89,1.35-2.97,1.79-.42.17-.93.27-1.44.27ZM173.67,159.98c-1.59.19-4,1.03-4.38,2.13-.25.74.04,1.02.14,1.11.46.43,1.56.52,2.37.2.98-.4,1.89-.94,2.71-1.63.27-.23.88-.81.72-1.3-.15-.46-.91-.58-1.56-.51h0Z"/>
            </g>
            <path class="cls-13" d="M175.36,128.13c-3.71,1.89-6.92,4.59-9.35,8.99-.39.7-.75,1.51-.51,2.28.39,1.24,2.07,1.5,3.33,1.17,1.58-.41,2.96-1.36,4.32-2.28,1.36-.92,2.77-1.83,4.37-2.16,2.07-.43,3.01.57,4.7,1.34,2.33,1.06,5.06,1.62,7.5,2.41,4.39,1.41,8.86,2.84,13.47,2.96,6.48.18,16.04-3,19.85-8.7.64-.95.8-2.32.06-3.19-.6-.71-1.65-.92-2.57-.76-.92.16-1.76.62-2.59,1.05-5.11,2.63-10.73,4.26-16.45,4.79-2.37.22-4.86.22-6.98-.86-1.98-1.01-3.62-3.31-3.04-5.59.46-1.82,3.43-3.79,1.71-5.85-1.12-1.33-2.38-.47-3.79-.1-5.06,1.31-9.87,2.39-14.04,4.51Z"/>
            <path class="cls-13" d="M136.31,159.62c4.72-3.86,6.38-11.17,12.03-13.46,1.82-.74,4.32-1.34,4.44-3.3.08-1.34-1.26-2.45-2.6-2.54-1.34-.09-2.62.57-3.72,1.34-5.05,3.52-8.6,9.86-14.7,10.7-1.86.26-3.74-.06-5.61-.29-1.86-.23-3.8-.36-5.58.24-1.78.6-3.37,2.11-3.54,3.98-.21,2.33,1.54,3.01,3.28,3.57,1.64.53,3.3,1.34,5.01,1.83,3.71,1.06,7.97.39,10.99-2.07Z"/>
            <path class="cls-13" d="M110.21,159.46c-2.47,1.73-5.61,2.11-8.62,2.27-3.01.16-6.1.14-8.91,1.23-1.48.57-2.83,1.43-4.29,2.04-1.46.61-3.12.96-4.62.47-1.5-.5-2.72-2.07-2.4-3.62.4-1.9,2.65-2.7,4.57-2.96,3.16-.43,6.37-.3,9.54-.64,3.17-.33,6.42-1.19,8.82-3.28,1.25-1.08,2.24-2.48,3.67-3.3,6.13-3.55,6.2,5.02,2.24,7.79Z"/>
            <path class="cls-13" d="M77.71,160.09c.57.16,1.11.58,1.23,1.16.18.82-.48,1.57-1.13,2.12-2.63,2.22-18.52,8.41-14.56-.1.97-2.09,2.63-2.52,4.78-2.73,2.75-.27,7.07-1.18,9.67-.44Z"/>
            <path class="cls-13" d="M73.65,31.91c0,1.51-2.26,2.74-5.04,2.74s-5.04-1.22-5.04-2.74,2.26-2.74,5.04-2.74,5.04,1.22,5.04,2.74Z"/>
            <path class="cls-13" d="M81.32,26.81c0,.65-.52,1.17-1.17,1.17s-1.17-.52-1.17-1.17.52-1.17,1.17-1.17,1.17.52,1.17,1.17Z"/>
            <path class="cls-13" d="M112.92,68.28c0,1.16-1.65,2.09-3.7,2.09s-3.7-.94-3.7-2.09,1.65-2.09,3.7-2.09,3.7.94,3.7,2.09Z"/>
            <path class="cls-13" d="M130.96,13.89c0,1.51-2.63,2.74-5.87,2.74s-5.87-1.22-5.87-2.74,2.63-2.74,5.87-2.74,5.87,1.22,5.87,2.74Z"/>
            <path class="cls-13" d="M200.07,101.44c0,1.33-2.54,2.41-5.66,2.41s-5.66-1.08-5.66-2.41,2.54-2.41,5.66-2.41,5.66,1.08,5.66,2.41Z"/>
            <ellipse class="cls-13" cx="35.93" cy="116.56" rx="8.63" ry="4.02"/>
            <path class="cls-11" d="M145.76,194.78c0,2.04-3.03,3.7-6.76,3.7s-6.76-1.66-6.76-3.7,3.03-3.7,6.76-3.7,6.76,1.66,6.76,3.7Z"/>
            <path class="cls-11" d="M162.53,197.81c0,1.45-2.18,2.62-4.87,2.62s-4.87-1.17-4.87-2.62,2.18-2.62,4.87-2.62,4.87,1.17,4.87,2.62Z"/>
            <ellipse class="cls-11" cx="156.67" cy="92.07" rx="8.76" ry="3.42"/>
            <ellipse class="cls-11" cx="103.44" cy="14.53" rx="3.7" ry="2.09"/>
            <path class="cls-11" d="M172.22,38.61c0,1.3-3.48,2.35-7.78,2.35s-7.78-1.05-7.78-2.35,3.48-2.35,7.78-2.35,7.78,1.05,7.78,2.35Z"/>
            <path class="cls-11" d="M63.43,97.5c4.02,1.19,7.59,4.43,11.77,4.03,3.14-.3,5.65-2.6,8.15-4.52,2.5-1.92,5.72-3.63,8.68-2.56,1.61.58,2.93,1.94,4.62,2.19,3.33.49,5.68-4.11,4.04-7.05-1.63-2.94-5.59-3.87-8.87-3.09-3.27.78-6.05,2.85-8.83,4.75-2.77,1.9-5.81,3.72-9.17,3.85-6.6.26-12.41-6.02-18.93-4.93-2.72.45-5.19,2.6-7.97,2.69-2.86.1-5.12-1.85-7.6-3.3-1.3-.76-3.23-1.41-4.09-.16-.76,1.11.21,2.58,1.21,3.48,3.96,3.57,8.35,4.76,13.54,4.84,4.29.06,9.25-1.45,13.43-.21Z"/>
            <path class="cls-11" d="M98.29,100.24c2.28.03,4.54-1.16,5.81-3.05,1.77-2.63,1.55-6.15,2.98-8.98,1.52-3.01,4.98-4.92,8.33-4.6,1.52.14,3.04.75,4.03,1.9.99,1.16,1.31,2.93.55,4.25-1.05,1.8-3.68,2.29-4.52,4.19-.58,1.31-.11,2.86-.46,4.25-.61,2.4-3.32,3.5-5.69,4.22-2.75.83-5.55,1.63-8.42,1.79-2.87.16-5.86-.35-8.25-1.95-.93-.63-1.81-1.51-1.95-2.62-.54-4.34,5.78.6,7.59.62Z"/>
            <path class="cls-11" d="M129.91,94.36c.8.56,1.28,1.56,2.17,1.95,1.83.8,3.8-1.45,5.76-1.05,1.32.27,2.15,1.8,1.89,3.13s-1.39,2.37-2.66,2.81c-1.28.44-2.68.37-4,.11-1.82-.35-3.85-1-5.41,0-1.27.82-1.89,2.57-3.34,2.97-5.13,1.42-.22-14,5.61-9.92Z"/>
            <path class="cls-11" d="M180.02,84.63c2.21-3.48,5.14-6.51,8.55-8.83.99-.67,2.4-1.26,3.28-.46.98.89.29,2.53-.61,3.5-2.1,2.27-5.18,3.81-6.31,6.69-.62,1.57-.57,3.38-1.38,4.86-1.23,2.24-9.4,5.33-10.96,2.1-.62-1.29,6.3-6.09,7.43-7.87Z"/>
          </g>
          <g class="cls-7">
            <path class="cls-5" d="M183.16,28.29c14.16,18.5,22.59,41.6,22.59,66.64,0,60.6-49.3,109.9-109.9,109.9-25.04,0-48.14-8.44-66.64-22.59,20.1,26.27,51.75,43.26,87.31,43.26,60.6,0,109.9-49.3,109.9-109.9,0-35.56-16.99-67.21-43.26-87.31Z"/>
          </g>
        </g>
        <g>
          <rect class="cls-8" x="-34.15" y="4.07" width="285.66" height="223.05"/>
          <g>
            <circle class="cls-3" cx="116.52" cy="115.6" r="111.52" transform="translate(-47.61 116.25) rotate(-45)"/>
            <g class="cls-12">
              <g>
                <path class="cls-11" d="M46.23,19.52s73.39,6.53,138.63,0l9.48,7.46s-70.45,19.13-163.18,8.4l15.06-15.86Z"/>
                <path class="cls-11" d="M194.34,199.14s-91.16,2.8-143.67,10.26l12.34,9.8s88.08,1.4,102.82,3.73c2.15-1.4,25.47-15.86,28.51-23.79Z"/>
                <path class="cls-13" d="M24.83,41.92s89.66,14.93,179.39-7.46l2.67,4.2s-102.43,24.21-185.21,8.14l3.14-4.88Z"/>
                <path class="cls-13" d="M211.03,199.92s-89.66-14.93-179.39,7.47l-2.67-4.2s102.43-24.21,185.21-8.14l-3.14,4.87Z"/>
                <path class="cls-13" d="M207.54,43.37s-133,22.11-187.52,8.92l-2.26,2.21s71.49,12.13,193.67-8.4l-3.89-2.74Z"/>
                <path class="cls-11" d="M13.03,58.07s125.56,14.99,203.94-7.35l7.93,17.32S120.21,113.04,5.21,83.65c0,0,3.09-18.11,7.83-25.58Z"/>
                <path class="cls-13" d="M4.34,62.02s85.37,33.96,220.68-7.63l5.16,22.38S98.58,117.08-1.26,86.28c-.5-3.66-.81-10.05,1.87-17.12,1.09-2.89,2.45-5.27,3.73-7.14Z"/>
                <path class="cls-13" d="M228.41,199.68s-85.37-33.96-220.68,7.63l-5.16-22.38s131.59-40.3,231.43-9.51c.5,3.66.81,10.05-1.87,17.12-1.09,2.89-2.45,5.27-3.73,7.14Z"/>
                <path class="cls-11" d="M251.52,123.75c-37.73,12.97-84.48,25.79-138.91,33.81-53,7.82-100.29,9.18-139.42,7.85-2.29-15.28-5.05-59.81-7.34-75.09,42.23-2.16,65.58,15.45,138.15,15.58,51.81.1,98.29-17.36,140.64-28,2.29,15.28,4.57,30.56,6.86,45.84Z"/>
              </g>
            </g>
            <g>
              <path class="cls-11" d="M142.99,158.49c-3.47,5.52-4.08,13.19-.17,18.4,3.01,4.01,8.04,5.94,12.94,6.99,3.45.73,7.03,1.13,10.5.52,2.46-.43,4.81-1.35,7.14-2.26,3.24-1.27,6.48-2.54,9.71-3.81,3.2-1.25,6.49-2.56,8.99-4.92,5.3-5.01,5.57-13.91,1.82-20.16-1.34-2.24-3.13-4.22-5.25-5.74-4.12-2.96-9.33-4.09-14.4-4.13-11.07-.09-25.2,5.41-31.29,15.11Z"/>
              <path class="cls-11" d="M162.68,185.97c-2.68,0-5.59-.47-8.98-1.45-6.5-1.87-10.88-4.67-13.39-8.55-3.62-5.6-2.98-13.83,1.55-20.02h0c7.46-10.2,22.93-14.64,34.33-13.73,6.11.48,11.33,2.39,15.11,5.53,2.13,1.78,3.94,4.06,5.24,6.61,3.86,7.6,2.32,16.98-3.58,21.81-2.93,2.4-6.67,3.57-9.97,4.6l-10.37,3.24c-2.48.78-5.05,1.58-7.74,1.85-.72.07-1.45.11-2.2.11ZM143.17,156.91c-4.14,5.66-4.75,13.13-1.5,18.18,2.28,3.53,6.36,6.11,12.47,7.87,4.13,1.19,7.49,1.6,10.56,1.29,2.52-.26,5.01-1.04,7.42-1.79l10.37-3.24c3.16-.99,6.74-2.1,9.42-4.31,5.23-4.29,6.62-12.99,3.16-19.81-1.19-2.35-2.86-4.46-4.83-6.09-3.51-2.92-8.42-4.71-14.19-5.16-10.69-.83-25.85,3.46-32.89,13.07h0Z"/>
              <path class="cls-11" d="M162.47,187.95c-1.49,0-3.09-.09-4.8-.27-7.32-.78-12.54-2.94-15.95-6.62-4.92-5.3-5.79-14.23-2.11-21.71h0c6.07-12.34,21.8-20.01,34.2-21.2,6.63-.64,12.59.42,17.22,3.07,2.62,1.5,4.99,3.6,6.85,6.09,5.56,7.4,5.68,17.72.29,24-2.69,3.12-6.47,5.08-9.81,6.81l-10.52,5.44c-2.52,1.3-5.13,2.65-7.94,3.45-2.24.63-4.67.95-7.43.95ZM177.49,139.59c-1.15,0-2.33.06-3.53.17-11.66,1.12-27.15,8.62-32.9,20.3h0c-3.39,6.89-2.63,15.06,1.84,19.89,3.13,3.38,8.01,5.37,14.93,6.11,4.68.5,8.36.3,11.61-.62,2.66-.75,5.19-2.06,7.64-3.33l10.52-5.44c3.21-1.66,6.85-3.54,9.33-6.42,4.83-5.62,4.67-15.26-.36-21.96-1.73-2.31-3.93-4.26-6.36-5.65-3.51-2.01-7.86-3.04-12.73-3.04Z"/>
              <path class="cls-1" d="M165.44,148.19c5.41-1.96,11.37-2.99,16.94-1.54,5.57,1.45,10.63,5.78,11.71,11.44,1.1,5.75-2.09,11.69-6.72,15.28-4.62,3.59-10.45,5.23-16.2,6.34-9.36,1.81-25.39,1.41-26.8-11.36-1.13-10.23,13.29-17.35,21.07-20.17Z"/>
              <path class="cls-4" d="M164.59,176.61c-.48,0-.96-.02-1.45-.05-4.11-.3-8.05-2.38-10.28-5.43-1.81-2.46-2.39-5.35-1.69-8.34,1.02-4.34,6.16-6.42,10.29-8.09,1.02-.41,1.98-.8,2.8-1.19,4.82-2.3,9.24-4.19,14-4.05h0c3.98.12,8.82,2.14,10.68,6.41,1.93,4.44-.06,9.44-2.89,12.44-3.2,3.39-7.78,5.19-11.4,6.37-2.97.97-6.44,1.94-10.07,1.94ZM177.76,150.43c-4.41,0-8.54,1.8-13.08,3.96-.84.4-1.82.8-2.86,1.22-3.92,1.59-8.8,3.56-9.7,7.41-.64,2.7-.11,5.31,1.52,7.54,2.07,2.82,5.73,4.75,9.56,5.03,3.98.29,7.86-.76,11.14-1.84,3.73-1.22,7.96-2.91,11-6.11,2.61-2.76,4.46-7.35,2.7-11.37-1.69-3.87-6.15-5.71-9.82-5.82-.16,0-.31,0-.47,0Z"/>
              <path class="cls-4" d="M167.58,172.05c-3.08,0-6.33-.81-9.36-2.36-3.01-1.54-4.79-3.54-5.15-5.78-.31-1.91.46-4.07,2.06-5.79,1.42-1.53,3.29-2.58,4.93-3.5.8-.45,1.64-.98,2.5-1.53,2.71-1.72,5.78-3.68,8.82-3.79,3.91-.13,7.31,1.62,9.11,4.71,2,3.43,1.81,8.14-.49,11.7-2.11,3.28-5.88,5.59-10.09,6.19-.76.11-1.55.16-2.34.16ZM171.82,150.26c-.13,0-.26,0-.4,0-2.78.1-5.73,1.98-8.33,3.64-.88.56-1.73,1.1-2.54,1.56h0c-1.58.89-3.38,1.9-4.7,3.32-1.4,1.5-2.08,3.36-1.81,4.97.4,2.43,2.74,4.1,4.63,5.07,3.63,1.86,7.57,2.6,11.11,2.1,3.93-.56,7.45-2.71,9.41-5.75,2.1-3.26,2.29-7.56.47-10.68-1.56-2.67-4.47-4.23-7.84-4.23Z"/>
              <path class="cls-4" d="M161.46,177.96c-1.17,0-2.36-.16-3.51-.56-2.46-.87-4.65-2.79-6.69-5.88-1.62-2.44-2.42-4.53-2.54-6.55-.23-3.99,2.84-6.46,5.55-8.63.31-.25.62-.49.91-.74,3.5-2.88,7.65-4.92,12-5.9h0c5.05-1.13,9.78-.61,13.33,1.46,4.26,2.49,6.64,7.56,5.52,11.8-.97,3.7-4.18,6.28-6.5,7.9-3.64,2.53-7.62,4.52-11.82,5.92-1.69.56-3.93,1.19-6.25,1.19ZM167.4,150.65c-4.21.94-8.22,2.91-11.59,5.7-.3.25-.61.5-.92.75-2.65,2.13-5.38,4.32-5.18,7.82.11,1.85.86,3.78,2.38,6.07,1.92,2.9,3.95,4.7,6.2,5.5,3.15,1.11,6.72.17,9.13-.63,4.12-1.37,8.01-3.32,11.57-5.8,2.2-1.53,5.22-3.96,6.11-7.34,1.01-3.83-1.17-8.43-5.07-10.71-3.33-1.95-7.81-2.42-12.62-1.35h0Z"/>
              <path class="cls-4" d="M165.39,169.48c-.58,0-1.16-.02-1.74-.07-2.31-.17-3.81-.92-4.47-2.22h0c-1.99-3.92,2.97-9.86,6.19-11.95,3.6-2.33,9.02-3.76,13.02-1.69,1.88.97,3.93,2.97,4.06,5.65.17,3.89-3.71,6.42-5.38,7.33-3.54,1.92-7.63,2.94-11.67,2.94ZM160.04,166.76c.5.97,1.73,1.54,3.67,1.68,4.43.33,8.99-.66,12.87-2.76,1.51-.82,5.02-3.09,4.87-6.43-.08-1.86-1.47-3.76-3.53-4.82-3.65-1.89-8.68-.54-12.04,1.64-2.99,1.94-7.49,7.47-5.85,10.69h0Z"/>
              <path class="cls-4" d="M163.2,172.65c-.5,0-1-.03-1.5-.09h0c-2.45-.32-4.41-1.41-5.66-3.16-1.27-1.78-1.7-4.13-1.19-6.62,1.18-5.8,3.84-8.44,9.01-11.86,3.92-2.59,8.41-3.55,12.32-2.63,3.28.77,5.97,2.83,7.77,5.96,1.34,2.32,1.7,4.8.99,6.79-.75,2.11-2.6,3.59-4.3,4.76-3.38,2.31-7.05,4.17-10.9,5.53-1.83.64-4.13,1.33-6.54,1.33ZM173.17,148.92c-2.91,0-5.99.97-8.77,2.81-4.94,3.27-7.49,5.78-8.6,11.24-.45,2.22-.09,4.3,1.03,5.86,1.09,1.52,2.82,2.48,4.99,2.76h0c2.73.36,5.49-.45,7.59-1.19,3.78-1.33,7.37-3.15,10.68-5.41,1.58-1.08,3.27-2.43,3.93-4.28.61-1.73.28-3.91-.91-5.98-1.67-2.89-4.14-4.79-7.15-5.5-.9-.21-1.84-.32-2.79-.32Z"/>
              <path class="cls-4" d="M169.44,167.38c-1.28,0-2.48-.4-3.35-1.16-1.23-1.07-1.67-2.69-1.25-4.56.59-2.6,3.65-4.72,9.1-6.3h0c1.23-.35,3.02-.72,4.43.2,1.28.84,1.87,2.61,1.43,4.31-.32,1.26-1.14,2.46-2.5,3.7-1.62,1.47-3.56,2.65-5.61,3.41-.75.28-1.52.41-2.26.41ZM174.22,156.29c-6.33,1.84-8.08,4.05-8.42,5.58-.34,1.5,0,2.78.94,3.61,1.11.97,2.93,1.2,4.63.57,1.94-.72,3.77-1.83,5.29-3.22,1.21-1.1,1.93-2.15,2.21-3.22.28-1.1.02-2.57-1.02-3.25-.81-.53-1.97-.55-3.62-.07h0Z"/>
              <path class="cls-4" d="M170.73,164.6c-.74,0-1.48-.2-1.96-.66-.32-.3-.79-.98-.4-2.14.63-1.86,3.96-2.65,5.19-2.79h0c.98-.12,2.26.13,2.6,1.18.24.75-.12,1.58-1.02,2.35-.89.75-1.89,1.35-2.97,1.79-.42.17-.93.27-1.44.27ZM173.67,159.98c-1.59.19-4,1.03-4.38,2.13-.25.74.04,1.02.14,1.11.46.43,1.56.52,2.37.2.98-.4,1.89-.94,2.71-1.63.27-.23.88-.81.72-1.3-.15-.46-.91-.58-1.56-.51h0Z"/>
            </g>
            <path class="cls-13" d="M175.36,128.13c-3.71,1.89-6.92,4.59-9.35,8.99-.39.7-.75,1.51-.51,2.28.39,1.24,2.07,1.5,3.33,1.17,1.58-.41,2.96-1.36,4.32-2.28,1.36-.92,2.77-1.83,4.37-2.16,2.07-.43,3.01.57,4.7,1.34,2.33,1.06,5.06,1.62,7.5,2.41,4.39,1.41,8.86,2.84,13.47,2.96,6.48.18,16.04-3,19.85-8.7.64-.95.8-2.32.06-3.19-.6-.71-1.65-.92-2.57-.76-.92.16-1.76.62-2.59,1.05-5.11,2.63-10.73,4.26-16.45,4.79-2.37.22-4.86.22-6.98-.86-1.98-1.01-3.62-3.31-3.04-5.59.46-1.82,3.43-3.79,1.71-5.85-1.12-1.33-2.38-.47-3.79-.1-5.06,1.31-9.87,2.39-14.04,4.51Z"/>
            <path class="cls-13" d="M136.31,159.62c4.72-3.86,6.38-11.17,12.03-13.46,1.82-.74,4.32-1.34,4.44-3.3.08-1.34-1.26-2.45-2.6-2.54-1.34-.09-2.62.57-3.72,1.34-5.05,3.52-8.6,9.86-14.7,10.7-1.86.26-3.74-.06-5.61-.29-1.86-.23-3.8-.36-5.58.24-1.78.6-3.37,2.11-3.54,3.98-.21,2.33,1.54,3.01,3.28,3.57,1.64.53,3.3,1.34,5.01,1.83,3.71,1.06,7.97.39,10.99-2.07Z"/>
            <path class="cls-13" d="M110.21,159.46c-2.47,1.73-5.61,2.11-8.62,2.27-3.01.16-6.1.14-8.91,1.23-1.48.57-2.83,1.43-4.29,2.04-1.46.61-3.12.96-4.62.47-1.5-.5-2.72-2.07-2.4-3.62.4-1.9,2.65-2.7,4.57-2.96,3.16-.43,6.37-.3,9.54-.64,3.17-.33,6.42-1.19,8.82-3.28,1.25-1.08,2.24-2.48,3.67-3.3,6.13-3.55,6.2,5.02,2.24,7.79Z"/>
            <path class="cls-13" d="M77.71,160.09c.57.16,1.11.58,1.23,1.16.18.82-.48,1.57-1.13,2.12-2.63,2.22-18.52,8.41-14.56-.1.97-2.09,2.63-2.52,4.78-2.73,2.75-.27,7.07-1.18,9.67-.44Z"/>
            <path class="cls-13" d="M73.65,31.91c0,1.51-2.26,2.74-5.04,2.74s-5.04-1.22-5.04-2.74,2.26-2.74,5.04-2.74,5.04,1.22,5.04,2.74Z"/>
            <path class="cls-13" d="M81.32,26.81c0,.65-.52,1.17-1.17,1.17s-1.17-.52-1.17-1.17.52-1.17,1.17-1.17,1.17.52,1.17,1.17Z"/>
            <path class="cls-13" d="M112.92,68.28c0,1.16-1.65,2.09-3.7,2.09s-3.7-.94-3.7-2.09,1.65-2.09,3.7-2.09,3.7.94,3.7,2.09Z"/>
            <path class="cls-13" d="M130.96,13.89c0,1.51-2.63,2.74-5.87,2.74s-5.87-1.22-5.87-2.74,2.63-2.74,5.87-2.74,5.87,1.22,5.87,2.74Z"/>
            <path class="cls-13" d="M200.07,101.44c0,1.33-2.54,2.41-5.66,2.41s-5.66-1.08-5.66-2.41,2.54-2.41,5.66-2.41,5.66,1.08,5.66,2.41Z"/>
            <ellipse class="cls-13" cx="35.93" cy="116.56" rx="8.63" ry="4.02"/>
            <path class="cls-11" d="M145.76,194.78c0,2.04-3.03,3.7-6.76,3.7s-6.76-1.66-6.76-3.7,3.03-3.7,6.76-3.7,6.76,1.66,6.76,3.7Z"/>
            <path class="cls-11" d="M162.53,197.81c0,1.45-2.18,2.62-4.87,2.62s-4.87-1.17-4.87-2.62,2.18-2.62,4.87-2.62,4.87,1.17,4.87,2.62Z"/>
            <ellipse class="cls-11" cx="156.67" cy="92.07" rx="8.76" ry="3.42"/>
            <ellipse class="cls-11" cx="103.44" cy="14.53" rx="3.7" ry="2.09"/>
            <path class="cls-11" d="M172.22,38.61c0,1.3-3.48,2.35-7.78,2.35s-7.78-1.05-7.78-2.35,3.48-2.35,7.78-2.35,7.78,1.05,7.78,2.35Z"/>
            <path class="cls-11" d="M63.43,97.5c4.02,1.19,7.59,4.43,11.77,4.03,3.14-.3,5.65-2.6,8.15-4.52,2.5-1.92,5.72-3.63,8.68-2.56,1.61.58,2.93,1.94,4.62,2.19,3.33.49,5.68-4.11,4.04-7.05-1.63-2.94-5.59-3.87-8.87-3.09-3.27.78-6.05,2.85-8.83,4.75-2.77,1.9-5.81,3.72-9.17,3.85-6.6.26-12.41-6.02-18.93-4.93-2.72.45-5.19,2.6-7.97,2.69-2.86.1-5.12-1.85-7.6-3.3-1.3-.76-3.23-1.41-4.09-.16-.76,1.11.21,2.58,1.21,3.48,3.96,3.57,8.35,4.76,13.54,4.84,4.29.06,9.25-1.45,13.43-.21Z"/>
            <path class="cls-11" d="M98.29,100.24c2.28.03,4.54-1.16,5.81-3.05,1.77-2.63,1.55-6.15,2.98-8.98,1.52-3.01,4.98-4.92,8.33-4.6,1.52.14,3.04.75,4.03,1.9.99,1.16,1.31,2.93.55,4.25-1.05,1.8-3.68,2.29-4.52,4.19-.58,1.31-.11,2.86-.46,4.25-.61,2.4-3.32,3.5-5.69,4.22-2.75.83-5.55,1.63-8.42,1.79-2.87.16-5.86-.35-8.25-1.95-.93-.63-1.81-1.51-1.95-2.62-.54-4.34,5.78.6,7.59.62Z"/>
            <path class="cls-11" d="M129.91,94.36c.8.56,1.28,1.56,2.17,1.95,1.83.8,3.8-1.45,5.76-1.05,1.32.27,2.15,1.8,1.89,3.13s-1.39,2.37-2.66,2.81c-1.28.44-2.68.37-4,.11-1.82-.35-3.85-1-5.41,0-1.27.82-1.89,2.57-3.34,2.97-5.13,1.42-.22-14,5.61-9.92Z"/>
            <path class="cls-11" d="M180.02,84.63c2.21-3.48,5.14-6.51,8.55-8.83.99-.67,2.4-1.26,3.28-.46.98.89.29,2.53-.61,3.5-2.1,2.27-5.18,3.81-6.31,6.69-.62,1.57-.57,3.38-1.38,4.86-1.23,2.24-9.4,5.33-10.96,2.1-.62-1.29,6.3-6.09,7.43-7.87Z"/>
          </g>
          <g class="cls-7">
            <path class="cls-5" d="M183.16,28.29c14.16,18.5,22.59,41.6,22.59,66.64,0,60.6-49.3,109.9-109.9,109.9-25.04,0-48.14-8.44-66.64-22.59,20.1,26.27,51.75,43.26,87.31,43.26,60.6,0,109.9-49.3,109.9-109.9,0-35.56-16.99-67.21-43.26-87.31Z"/>
          </g>
        </g>
        <g>
          <rect class="cls-8" x="-34.15" y="4.07" width="285.66" height="223.05"/>
          <g>
            <circle class="cls-3" cx="116.52" cy="115.6" r="111.52" transform="translate(-47.61 116.25) rotate(-45)"/>
            <g class="cls-10">
              <g>
                <path class="cls-11" d="M46.23,19.52s73.39,6.53,138.63,0l9.48,7.46s-70.45,19.13-163.18,8.4l15.06-15.86Z"/>
                <path class="cls-11" d="M194.34,199.14s-91.16,2.8-143.67,10.26l12.34,9.8s88.08,1.4,102.82,3.73c2.15-1.4,25.47-15.86,28.51-23.79Z"/>
                <path class="cls-13" d="M24.83,41.92s89.66,14.93,179.39-7.46l2.67,4.2s-102.43,24.21-185.21,8.14l3.14-4.88Z"/>
                <path class="cls-13" d="M211.03,199.92s-89.66-14.93-179.39,7.47l-2.67-4.2s102.43-24.21,185.21-8.14l-3.14,4.87Z"/>
                <path class="cls-13" d="M207.54,43.37s-133,22.11-187.52,8.92l-2.26,2.21s71.49,12.13,193.67-8.4l-3.89-2.74Z"/>
                <path class="cls-11" d="M13.03,58.07s125.56,14.99,203.94-7.35l7.93,17.32S120.21,113.04,5.21,83.65c0,0,3.09-18.11,7.83-25.58Z"/>
                <path class="cls-13" d="M4.34,62.02s85.37,33.96,220.68-7.63l5.16,22.38S98.58,117.08-1.26,86.28c-.5-3.66-.81-10.05,1.87-17.12,1.09-2.89,2.45-5.27,3.73-7.14Z"/>
                <path class="cls-13" d="M228.41,199.68s-85.37-33.96-220.68,7.63l-5.16-22.38s131.59-40.3,231.43-9.51c.5,3.66.81,10.05-1.87,17.12-1.09,2.89-2.45,5.27-3.73,7.14Z"/>
                <path class="cls-11" d="M251.52,123.75c-37.73,12.97-84.48,25.79-138.91,33.81-53,7.82-100.29,9.18-139.42,7.85-2.29-15.28-5.05-59.81-7.34-75.09,42.23-2.16,65.58,15.45,138.15,15.58,51.81.1,98.29-17.36,140.64-28,2.29,15.28,4.57,30.56,6.86,45.84Z"/>
              </g>
            </g>
            <g>
              <path class="cls-11" d="M142.99,158.49c-3.47,5.52-4.08,13.19-.17,18.4,3.01,4.01,8.04,5.94,12.94,6.99,3.45.73,7.03,1.13,10.5.52,2.46-.43,4.81-1.35,7.14-2.26,3.24-1.27,6.48-2.54,9.71-3.81,3.2-1.25,6.49-2.56,8.99-4.92,5.3-5.01,5.57-13.91,1.82-20.16-1.34-2.24-3.13-4.22-5.25-5.74-4.12-2.96-9.33-4.09-14.4-4.13-11.07-.09-25.2,5.41-31.29,15.11Z"/>
              <path class="cls-11" d="M162.68,185.97c-2.68,0-5.59-.47-8.98-1.45-6.5-1.87-10.88-4.67-13.39-8.55-3.62-5.6-2.98-13.83,1.55-20.02h0c7.46-10.2,22.93-14.64,34.33-13.73,6.11.48,11.33,2.39,15.11,5.53,2.13,1.78,3.94,4.06,5.24,6.61,3.86,7.6,2.32,16.98-3.58,21.81-2.93,2.4-6.67,3.57-9.97,4.6l-10.37,3.24c-2.48.78-5.05,1.58-7.74,1.85-.72.07-1.45.11-2.2.11ZM143.17,156.91c-4.14,5.66-4.75,13.13-1.5,18.18,2.28,3.53,6.36,6.11,12.47,7.87,4.13,1.19,7.49,1.6,10.56,1.29,2.52-.26,5.01-1.04,7.42-1.79l10.37-3.24c3.16-.99,6.74-2.1,9.42-4.31,5.23-4.29,6.62-12.99,3.16-19.81-1.19-2.35-2.86-4.46-4.83-6.09-3.51-2.92-8.42-4.71-14.19-5.16-10.69-.83-25.85,3.46-32.89,13.07h0Z"/>
              <path class="cls-11" d="M162.47,187.95c-1.49,0-3.09-.09-4.8-.27-7.32-.78-12.54-2.94-15.95-6.62-4.92-5.3-5.79-14.23-2.11-21.71h0c6.07-12.34,21.8-20.01,34.2-21.2,6.63-.64,12.59.42,17.22,3.07,2.62,1.5,4.99,3.6,6.85,6.09,5.56,7.4,5.68,17.72.29,24-2.69,3.12-6.47,5.08-9.81,6.81l-10.52,5.44c-2.52,1.3-5.13,2.65-7.94,3.45-2.24.63-4.67.95-7.43.95ZM177.49,139.59c-1.15,0-2.33.06-3.53.17-11.66,1.12-27.15,8.62-32.9,20.3h0c-3.39,6.89-2.63,15.06,1.84,19.89,3.13,3.38,8.01,5.37,14.93,6.11,4.68.5,8.36.3,11.61-.62,2.66-.75,5.19-2.06,7.64-3.33l10.52-5.44c3.21-1.66,6.85-3.54,9.33-6.42,4.83-5.62,4.67-15.26-.36-21.96-1.73-2.31-3.93-4.26-6.36-5.65-3.51-2.01-7.86-3.04-12.73-3.04Z"/>
              <path class="cls-1" d="M165.44,148.19c5.41-1.96,11.37-2.99,16.94-1.54,5.57,1.45,10.63,5.78,11.71,11.44,1.1,5.75-2.09,11.69-6.72,15.28-4.62,3.59-10.45,5.23-16.2,6.34-9.36,1.81-25.39,1.41-26.8-11.36-1.13-10.23,13.29-17.35,21.07-20.17Z"/>
              <path class="cls-4" d="M164.59,176.61c-.48,0-.96-.02-1.45-.05-4.11-.3-8.05-2.38-10.28-5.43-1.81-2.46-2.39-5.35-1.69-8.34,1.02-4.34,6.16-6.42,10.29-8.09,1.02-.41,1.98-.8,2.8-1.19,4.82-2.3,9.24-4.19,14-4.05h0c3.98.12,8.82,2.14,10.68,6.41,1.93,4.44-.06,9.44-2.89,12.44-3.2,3.39-7.78,5.19-11.4,6.37-2.97.97-6.44,1.94-10.07,1.94ZM177.76,150.43c-4.41,0-8.54,1.8-13.08,3.96-.84.4-1.82.8-2.86,1.22-3.92,1.59-8.8,3.56-9.7,7.41-.64,2.7-.11,5.31,1.52,7.54,2.07,2.82,5.73,4.75,9.56,5.03,3.98.29,7.86-.76,11.14-1.84,3.73-1.22,7.96-2.91,11-6.11,2.61-2.76,4.46-7.35,2.7-11.37-1.69-3.87-6.15-5.71-9.82-5.82-.16,0-.31,0-.47,0Z"/>
              <path class="cls-4" d="M167.58,172.05c-3.08,0-6.33-.81-9.36-2.36-3.01-1.54-4.79-3.54-5.15-5.78-.31-1.91.46-4.07,2.06-5.79,1.42-1.53,3.29-2.58,4.93-3.5.8-.45,1.64-.98,2.5-1.53,2.71-1.72,5.78-3.68,8.82-3.79,3.91-.13,7.31,1.62,9.11,4.71,2,3.43,1.81,8.14-.49,11.7-2.11,3.28-5.88,5.59-10.09,6.19-.76.11-1.55.16-2.34.16ZM171.82,150.26c-.13,0-.26,0-.4,0-2.78.1-5.73,1.98-8.33,3.64-.88.56-1.73,1.1-2.54,1.56h0c-1.58.89-3.38,1.9-4.7,3.32-1.4,1.5-2.08,3.36-1.81,4.97.4,2.43,2.74,4.1,4.63,5.07,3.63,1.86,7.57,2.6,11.11,2.1,3.93-.56,7.45-2.71,9.41-5.75,2.1-3.26,2.29-7.56.47-10.68-1.56-2.67-4.47-4.23-7.84-4.23Z"/>
              <path class="cls-4" d="M161.46,177.96c-1.17,0-2.36-.16-3.51-.56-2.46-.87-4.65-2.79-6.69-5.88-1.62-2.44-2.42-4.53-2.54-6.55-.23-3.99,2.84-6.46,5.55-8.63.31-.25.62-.49.91-.74,3.5-2.88,7.65-4.92,12-5.9h0c5.05-1.13,9.78-.61,13.33,1.46,4.26,2.49,6.64,7.56,5.52,11.8-.97,3.7-4.18,6.28-6.5,7.9-3.64,2.53-7.62,4.52-11.82,5.92-1.69.56-3.93,1.19-6.25,1.19ZM167.4,150.65c-4.21.94-8.22,2.91-11.59,5.7-.3.25-.61.5-.92.75-2.65,2.13-5.38,4.32-5.18,7.82.11,1.85.86,3.78,2.38,6.07,1.92,2.9,3.95,4.7,6.2,5.5,3.15,1.11,6.72.17,9.13-.63,4.12-1.37,8.01-3.32,11.57-5.8,2.2-1.53,5.22-3.96,6.11-7.34,1.01-3.83-1.17-8.43-5.07-10.71-3.33-1.95-7.81-2.42-12.62-1.35h0Z"/>
              <path class="cls-4" d="M165.39,169.48c-.58,0-1.16-.02-1.74-.07-2.31-.17-3.81-.92-4.47-2.22h0c-1.99-3.92,2.97-9.86,6.19-11.95,3.6-2.33,9.02-3.76,13.02-1.69,1.88.97,3.93,2.97,4.06,5.65.17,3.89-3.71,6.42-5.38,7.33-3.54,1.92-7.63,2.94-11.67,2.94ZM160.04,166.76c.5.97,1.73,1.54,3.67,1.68,4.43.33,8.99-.66,12.87-2.76,1.51-.82,5.02-3.09,4.87-6.43-.08-1.86-1.47-3.76-3.53-4.82-3.65-1.89-8.68-.54-12.04,1.64-2.99,1.94-7.49,7.47-5.85,10.69h0Z"/>
              <path class="cls-4" d="M163.2,172.65c-.5,0-1-.03-1.5-.09h0c-2.45-.32-4.41-1.41-5.66-3.16-1.27-1.78-1.7-4.13-1.19-6.62,1.18-5.8,3.84-8.44,9.01-11.86,3.92-2.59,8.41-3.55,12.32-2.63,3.28.77,5.97,2.83,7.77,5.96,1.34,2.32,1.7,4.8.99,6.79-.75,2.11-2.6,3.59-4.3,4.76-3.38,2.31-7.05,4.17-10.9,5.53-1.83.64-4.13,1.33-6.54,1.33ZM173.17,148.92c-2.91,0-5.99.97-8.77,2.81-4.94,3.27-7.49,5.78-8.6,11.24-.45,2.22-.09,4.3,1.03,5.86,1.09,1.52,2.82,2.48,4.99,2.76h0c2.73.36,5.49-.45,7.59-1.19,3.78-1.33,7.37-3.15,10.68-5.41,1.58-1.08,3.27-2.43,3.93-4.28.61-1.73.28-3.91-.91-5.98-1.67-2.89-4.14-4.79-7.15-5.5-.9-.21-1.84-.32-2.79-.32Z"/>
              <path class="cls-4" d="M169.44,167.38c-1.28,0-2.48-.4-3.35-1.16-1.23-1.07-1.67-2.69-1.25-4.56.59-2.6,3.65-4.72,9.1-6.3h0c1.23-.35,3.02-.72,4.43.2,1.28.84,1.87,2.61,1.43,4.31-.32,1.26-1.14,2.46-2.5,3.7-1.62,1.47-3.56,2.65-5.61,3.41-.75.28-1.52.41-2.26.41ZM174.22,156.29c-6.33,1.84-8.08,4.05-8.42,5.58-.34,1.5,0,2.78.94,3.61,1.11.97,2.93,1.2,4.63.57,1.94-.72,3.77-1.83,5.29-3.22,1.21-1.1,1.93-2.15,2.21-3.22.28-1.1.02-2.57-1.02-3.25-.81-.53-1.97-.55-3.62-.07h0Z"/>
              <path class="cls-4" d="M170.73,164.6c-.74,0-1.48-.2-1.96-.66-.32-.3-.79-.98-.4-2.14.63-1.86,3.96-2.65,5.19-2.79h0c.98-.12,2.26.13,2.6,1.18.24.75-.12,1.58-1.02,2.35-.89.75-1.89,1.35-2.97,1.79-.42.17-.93.27-1.44.27ZM173.67,159.98c-1.59.19-4,1.03-4.38,2.13-.25.74.04,1.02.14,1.11.46.43,1.56.52,2.37.2.98-.4,1.89-.94,2.71-1.63.27-.23.88-.81.72-1.3-.15-.46-.91-.58-1.56-.51h0Z"/>
            </g>
            <path class="cls-13" d="M175.36,128.13c-3.71,1.89-6.92,4.59-9.35,8.99-.39.7-.75,1.51-.51,2.28.39,1.24,2.07,1.5,3.33,1.17,1.58-.41,2.96-1.36,4.32-2.28,1.36-.92,2.77-1.83,4.37-2.16,2.07-.43,3.01.57,4.7,1.34,2.33,1.06,5.06,1.62,7.5,2.41,4.39,1.41,8.86,2.84,13.47,2.96,6.48.18,16.04-3,19.85-8.7.64-.95.8-2.32.06-3.19-.6-.71-1.65-.92-2.57-.76-.92.16-1.76.62-2.59,1.05-5.11,2.63-10.73,4.26-16.45,4.79-2.37.22-4.86.22-6.98-.86-1.98-1.01-3.62-3.31-3.04-5.59.46-1.82,3.43-3.79,1.71-5.85-1.12-1.33-2.38-.47-3.79-.1-5.06,1.31-9.87,2.39-14.04,4.51Z"/>
            <path class="cls-13" d="M136.31,159.62c4.72-3.86,6.38-11.17,12.03-13.46,1.82-.74,4.32-1.34,4.44-3.3.08-1.34-1.26-2.45-2.6-2.54-1.34-.09-2.62.57-3.72,1.34-5.05,3.52-8.6,9.86-14.7,10.7-1.86.26-3.74-.06-5.61-.29-1.86-.23-3.8-.36-5.58.24-1.78.6-3.37,2.11-3.54,3.98-.21,2.33,1.54,3.01,3.28,3.57,1.64.53,3.3,1.34,5.01,1.83,3.71,1.06,7.97.39,10.99-2.07Z"/>
            <path class="cls-13" d="M110.21,159.46c-2.47,1.73-5.61,2.11-8.62,2.27-3.01.16-6.1.14-8.91,1.23-1.48.57-2.83,1.43-4.29,2.04-1.46.61-3.12.96-4.62.47-1.5-.5-2.72-2.07-2.4-3.62.4-1.9,2.65-2.7,4.57-2.96,3.16-.43,6.37-.3,9.54-.64,3.17-.33,6.42-1.19,8.82-3.28,1.25-1.08,2.24-2.48,3.67-3.3,6.13-3.55,6.2,5.02,2.24,7.79Z"/>
            <path class="cls-13" d="M77.71,160.09c.57.16,1.11.58,1.23,1.16.18.82-.48,1.57-1.13,2.12-2.63,2.22-18.52,8.41-14.56-.1.97-2.09,2.63-2.52,4.78-2.73,2.75-.27,7.07-1.18,9.67-.44Z"/>
            <path class="cls-13" d="M73.65,31.91c0,1.51-2.26,2.74-5.04,2.74s-5.04-1.22-5.04-2.74,2.26-2.74,5.04-2.74,5.04,1.22,5.04,2.74Z"/>
            <path class="cls-13" d="M81.32,26.81c0,.65-.52,1.17-1.17,1.17s-1.17-.52-1.17-1.17.52-1.17,1.17-1.17,1.17.52,1.17,1.17Z"/>
            <path class="cls-13" d="M112.92,68.28c0,1.16-1.65,2.09-3.7,2.09s-3.7-.94-3.7-2.09,1.65-2.09,3.7-2.09,3.7.94,3.7,2.09Z"/>
            <path class="cls-13" d="M130.96,13.89c0,1.51-2.63,2.74-5.87,2.74s-5.87-1.22-5.87-2.74,2.63-2.74,5.87-2.74,5.87,1.22,5.87,2.74Z"/>
            <path class="cls-13" d="M200.07,101.44c0,1.33-2.54,2.41-5.66,2.41s-5.66-1.08-5.66-2.41,2.54-2.41,5.66-2.41,5.66,1.08,5.66,2.41Z"/>
            <ellipse class="cls-13" cx="35.93" cy="116.56" rx="8.63" ry="4.02"/>
            <path class="cls-11" d="M145.76,194.78c0,2.04-3.03,3.7-6.76,3.7s-6.76-1.66-6.76-3.7,3.03-3.7,6.76-3.7,6.76,1.66,6.76,3.7Z"/>
            <path class="cls-11" d="M162.53,197.81c0,1.45-2.18,2.62-4.87,2.62s-4.87-1.17-4.87-2.62,2.18-2.62,4.87-2.62,4.87,1.17,4.87,2.62Z"/>
            <ellipse class="cls-11" cx="156.67" cy="92.07" rx="8.76" ry="3.42"/>
            <ellipse class="cls-11" cx="103.44" cy="14.53" rx="3.7" ry="2.09"/>
            <path class="cls-11" d="M172.22,38.61c0,1.3-3.48,2.35-7.78,2.35s-7.78-1.05-7.78-2.35,3.48-2.35,7.78-2.35,7.78,1.05,7.78,2.35Z"/>
            <path class="cls-11" d="M63.43,97.5c4.02,1.19,7.59,4.43,11.77,4.03,3.14-.3,5.65-2.6,8.15-4.52,2.5-1.92,5.72-3.63,8.68-2.56,1.61.58,2.93,1.94,4.62,2.19,3.33.49,5.68-4.11,4.04-7.05-1.63-2.94-5.59-3.87-8.87-3.09-3.27.78-6.05,2.85-8.83,4.75-2.77,1.9-5.81,3.72-9.17,3.85-6.6.26-12.41-6.02-18.93-4.93-2.72.45-5.19,2.6-7.97,2.69-2.86.1-5.12-1.85-7.6-3.3-1.3-.76-3.23-1.41-4.09-.16-.76,1.11.21,2.58,1.21,3.48,3.96,3.57,8.35,4.76,13.54,4.84,4.29.06,9.25-1.45,13.43-.21Z"/>
            <path class="cls-11" d="M98.29,100.24c2.28.03,4.54-1.16,5.81-3.05,1.77-2.63,1.55-6.15,2.98-8.98,1.52-3.01,4.98-4.92,8.33-4.6,1.52.14,3.04.75,4.03,1.9.99,1.16,1.31,2.93.55,4.25-1.05,1.8-3.68,2.29-4.52,4.19-.58,1.31-.11,2.86-.46,4.25-.61,2.4-3.32,3.5-5.69,4.22-2.75.83-5.55,1.63-8.42,1.79-2.87.16-5.86-.35-8.25-1.95-.93-.63-1.81-1.51-1.95-2.62-.54-4.34,5.78.6,7.59.62Z"/>
            <path class="cls-11" d="M129.91,94.36c.8.56,1.28,1.56,2.17,1.95,1.83.8,3.8-1.45,5.76-1.05,1.32.27,2.15,1.8,1.89,3.13s-1.39,2.37-2.66,2.81c-1.28.44-2.68.37-4,.11-1.82-.35-3.85-1-5.41,0-1.27.82-1.89,2.57-3.34,2.97-5.13,1.42-.22-14,5.61-9.92Z"/>
            <path class="cls-11" d="M180.02,84.63c2.21-3.48,5.14-6.51,8.55-8.83.99-.67,2.4-1.26,3.28-.46.98.89.29,2.53-.61,3.5-2.1,2.27-5.18,3.81-6.31,6.69-.62,1.57-.57,3.38-1.38,4.86-1.23,2.24-9.4,5.33-10.96,2.1-.62-1.29,6.3-6.09,7.43-7.87Z"/>
          </g>
          <g class="cls-7">
            <path class="cls-5" d="M183.16,28.29c14.16,18.5,22.59,41.6,22.59,66.64,0,60.6-49.3,109.9-109.9,109.9-25.04,0-48.14-8.44-66.64-22.59,20.1,26.27,51.75,43.26,87.31,43.26,60.6,0,109.9-49.3,109.9-109.9,0-35.56-16.99-67.21-43.26-87.31Z"/>
          </g>
        </g>
        <g>
          <rect class="cls-8" x="-34.15" y="4.07" width="285.66" height="223.05"/>
          <g>
            <circle class="cls-3" cx="116.52" cy="115.6" r="111.52" transform="translate(-47.61 116.25) rotate(-45)"/>
            <g class="cls-2">
              <g>
                <path class="cls-11" d="M46.23,19.52s73.39,6.53,138.63,0l9.48,7.46s-70.45,19.13-163.18,8.4l15.06-15.86Z"/>
                <path class="cls-11" d="M194.34,199.14s-91.16,2.8-143.67,10.26l12.34,9.8s88.08,1.4,102.82,3.73c2.15-1.4,25.47-15.86,28.51-23.79Z"/>
                <path class="cls-13" d="M24.83,41.92s89.66,14.93,179.39-7.46l2.67,4.2s-102.43,24.21-185.21,8.14l3.14-4.88Z"/>
                <path class="cls-13" d="M211.03,199.92s-89.66-14.93-179.39,7.47l-2.67-4.2s102.43-24.21,185.21-8.14l-3.14,4.87Z"/>
                <path class="cls-13" d="M207.54,43.37s-133,22.11-187.52,8.92l-2.26,2.21s71.49,12.13,193.67-8.4l-3.89-2.74Z"/>
                <path class="cls-11" d="M13.03,58.07s125.56,14.99,203.94-7.35l7.93,17.32S120.21,113.04,5.21,83.65c0,0,3.09-18.11,7.83-25.58Z"/>
                <path class="cls-13" d="M4.34,62.02s85.37,33.96,220.68-7.63l5.16,22.38S98.58,117.08-1.26,86.28c-.5-3.66-.81-10.05,1.87-17.12,1.09-2.89,2.45-5.27,3.73-7.14Z"/>
                <path class="cls-13" d="M228.41,199.68s-85.37-33.96-220.68,7.63l-5.16-22.38s131.59-40.3,231.43-9.51c.5,3.66.81,10.05-1.87,17.12-1.09,2.89-2.45,5.27-3.73,7.14Z"/>
                <path class="cls-11" d="M251.52,123.75c-37.73,12.97-84.48,25.79-138.91,33.81-53,7.82-100.29,9.18-139.42,7.85-2.29-15.28-5.05-59.81-7.34-75.09,42.23-2.16,65.58,15.45,138.15,15.58,51.81.1,98.29-17.36,140.64-28,2.29,15.28,4.57,30.56,6.86,45.84Z"/>
              </g>
            </g>
            <g>
              <path class="cls-11" d="M142.99,158.49c-3.47,5.52-4.08,13.19-.17,18.4,3.01,4.01,8.04,5.94,12.94,6.99,3.45.73,7.03,1.13,10.5.52,2.46-.43,4.81-1.35,7.14-2.26,3.24-1.27,6.48-2.54,9.71-3.81,3.2-1.25,6.49-2.56,8.99-4.92,5.3-5.01,5.57-13.91,1.82-20.16-1.34-2.24-3.13-4.22-5.25-5.74-4.12-2.96-9.33-4.09-14.4-4.13-11.07-.09-25.2,5.41-31.29,15.11Z"/>
              <path class="cls-11" d="M162.68,185.97c-2.68,0-5.59-.47-8.98-1.45-6.5-1.87-10.88-4.67-13.39-8.55-3.62-5.6-2.98-13.83,1.55-20.02h0c7.46-10.2,22.93-14.64,34.33-13.73,6.11.48,11.33,2.39,15.11,5.53,2.13,1.78,3.94,4.06,5.24,6.61,3.86,7.6,2.32,16.98-3.58,21.81-2.93,2.4-6.67,3.57-9.97,4.6l-10.37,3.24c-2.48.78-5.05,1.58-7.74,1.85-.72.07-1.45.11-2.2.11ZM143.17,156.91c-4.14,5.66-4.75,13.13-1.5,18.18,2.28,3.53,6.36,6.11,12.47,7.87,4.13,1.19,7.49,1.6,10.56,1.29,2.52-.26,5.01-1.04,7.42-1.79l10.37-3.24c3.16-.99,6.74-2.1,9.42-4.31,5.23-4.29,6.62-12.99,3.16-19.81-1.19-2.35-2.86-4.46-4.83-6.09-3.51-2.92-8.42-4.71-14.19-5.16-10.69-.83-25.85,3.46-32.89,13.07h0Z"/>
              <path class="cls-11" d="M162.47,187.95c-1.49,0-3.09-.09-4.8-.27-7.32-.78-12.54-2.94-15.95-6.62-4.92-5.3-5.79-14.23-2.11-21.71h0c6.07-12.34,21.8-20.01,34.2-21.2,6.63-.64,12.59.42,17.22,3.07,2.62,1.5,4.99,3.6,6.85,6.09,5.56,7.4,5.68,17.72.29,24-2.69,3.12-6.47,5.08-9.81,6.81l-10.52,5.44c-2.52,1.3-5.13,2.65-7.94,3.45-2.24.63-4.67.95-7.43.95ZM177.49,139.59c-1.15,0-2.33.06-3.53.17-11.66,1.12-27.15,8.62-32.9,20.3h0c-3.39,6.89-2.63,15.06,1.84,19.89,3.13,3.38,8.01,5.37,14.93,6.11,4.68.5,8.36.3,11.61-.62,2.66-.75,5.19-2.06,7.64-3.33l10.52-5.44c3.21-1.66,6.85-3.54,9.33-6.42,4.83-5.62,4.67-15.26-.36-21.96-1.73-2.31-3.93-4.26-6.36-5.65-3.51-2.01-7.86-3.04-12.73-3.04Z"/>
              <path class="cls-1" d="M165.44,148.19c5.41-1.96,11.37-2.99,16.94-1.54,5.57,1.45,10.63,5.78,11.71,11.44,1.1,5.75-2.09,11.69-6.72,15.28-4.62,3.59-10.45,5.23-16.2,6.34-9.36,1.81-25.39,1.41-26.8-11.36-1.13-10.23,13.29-17.35,21.07-20.17Z"/>
              <path class="cls-4" d="M164.59,176.61c-.48,0-.96-.02-1.45-.05-4.11-.3-8.05-2.38-10.28-5.43-1.81-2.46-2.39-5.35-1.69-8.34,1.02-4.34,6.16-6.42,10.29-8.09,1.02-.41,1.98-.8,2.8-1.19,4.82-2.3,9.24-4.19,14-4.05h0c3.98.12,8.82,2.14,10.68,6.41,1.93,4.44-.06,9.44-2.89,12.44-3.2,3.39-7.78,5.19-11.4,6.37-2.97.97-6.44,1.94-10.07,1.94ZM177.76,150.43c-4.41,0-8.54,1.8-13.08,3.96-.84.4-1.82.8-2.86,1.22-3.92,1.59-8.8,3.56-9.7,7.41-.64,2.7-.11,5.31,1.52,7.54,2.07,2.82,5.73,4.75,9.56,5.03,3.98.29,7.86-.76,11.14-1.84,3.73-1.22,7.96-2.91,11-6.11,2.61-2.76,4.46-7.35,2.7-11.37-1.69-3.87-6.15-5.71-9.82-5.82-.16,0-.31,0-.47,0Z"/>
              <path class="cls-4" d="M167.58,172.05c-3.08,0-6.33-.81-9.36-2.36-3.01-1.54-4.79-3.54-5.15-5.78-.31-1.91.46-4.07,2.06-5.79,1.42-1.53,3.29-2.58,4.93-3.5.8-.45,1.64-.98,2.5-1.53,2.71-1.72,5.78-3.68,8.82-3.79,3.91-.13,7.31,1.62,9.11,4.71,2,3.43,1.81,8.14-.49,11.7-2.11,3.28-5.88,5.59-10.09,6.19-.76.11-1.55.16-2.34.16ZM171.82,150.26c-.13,0-.26,0-.4,0-2.78.1-5.73,1.98-8.33,3.64-.88.56-1.73,1.1-2.54,1.56h0c-1.58.89-3.38,1.9-4.7,3.32-1.4,1.5-2.08,3.36-1.81,4.97.4,2.43,2.74,4.1,4.63,5.07,3.63,1.86,7.57,2.6,11.11,2.1,3.93-.56,7.45-2.71,9.41-5.75,2.1-3.26,2.29-7.56.47-10.68-1.56-2.67-4.47-4.23-7.84-4.23Z"/>
              <path class="cls-4" d="M161.46,177.96c-1.17,0-2.36-.16-3.51-.56-2.46-.87-4.65-2.79-6.69-5.88-1.62-2.44-2.42-4.53-2.54-6.55-.23-3.99,2.84-6.46,5.55-8.63.31-.25.62-.49.91-.74,3.5-2.88,7.65-4.92,12-5.9h0c5.05-1.13,9.78-.61,13.33,1.46,4.26,2.49,6.64,7.56,5.52,11.8-.97,3.7-4.18,6.28-6.5,7.9-3.64,2.53-7.62,4.52-11.82,5.92-1.69.56-3.93,1.19-6.25,1.19ZM167.4,150.65c-4.21.94-8.22,2.91-11.59,5.7-.3.25-.61.5-.92.75-2.65,2.13-5.38,4.32-5.18,7.82.11,1.85.86,3.78,2.38,6.07,1.92,2.9,3.95,4.7,6.2,5.5,3.15,1.11,6.72.17,9.13-.63,4.12-1.37,8.01-3.32,11.57-5.8,2.2-1.53,5.22-3.96,6.11-7.34,1.01-3.83-1.17-8.43-5.07-10.71-3.33-1.95-7.81-2.42-12.62-1.35h0Z"/>
              <path class="cls-4" d="M165.39,169.48c-.58,0-1.16-.02-1.74-.07-2.31-.17-3.81-.92-4.47-2.22h0c-1.99-3.92,2.97-9.86,6.19-11.95,3.6-2.33,9.02-3.76,13.02-1.69,1.88.97,3.93,2.97,4.06,5.65.17,3.89-3.71,6.42-5.38,7.33-3.54,1.92-7.63,2.94-11.67,2.94ZM160.04,166.76c.5.97,1.73,1.54,3.67,1.68,4.43.33,8.99-.66,12.87-2.76,1.51-.82,5.02-3.09,4.87-6.43-.08-1.86-1.47-3.76-3.53-4.82-3.65-1.89-8.68-.54-12.04,1.64-2.99,1.94-7.49,7.47-5.85,10.69h0Z"/>
              <path class="cls-4" d="M163.2,172.65c-.5,0-1-.03-1.5-.09h0c-2.45-.32-4.41-1.41-5.66-3.16-1.27-1.78-1.7-4.13-1.19-6.62,1.18-5.8,3.84-8.44,9.01-11.86,3.92-2.59,8.41-3.55,12.32-2.63,3.28.77,5.97,2.83,7.77,5.96,1.34,2.32,1.7,4.8.99,6.79-.75,2.11-2.6,3.59-4.3,4.76-3.38,2.31-7.05,4.17-10.9,5.53-1.83.64-4.13,1.33-6.54,1.33ZM173.17,148.92c-2.91,0-5.99.97-8.77,2.81-4.94,3.27-7.49,5.78-8.6,11.24-.45,2.22-.09,4.3,1.03,5.86,1.09,1.52,2.82,2.48,4.99,2.76h0c2.73.36,5.49-.45,7.59-1.19,3.78-1.33,7.37-3.15,10.68-5.41,1.58-1.08,3.27-2.43,3.93-4.28.61-1.73.28-3.91-.91-5.98-1.67-2.89-4.14-4.79-7.15-5.5-.9-.21-1.84-.32-2.79-.32Z"/>
              <path class="cls-4" d="M169.44,167.38c-1.28,0-2.48-.4-3.35-1.16-1.23-1.07-1.67-2.69-1.25-4.56.59-2.6,3.65-4.72,9.1-6.3h0c1.23-.35,3.02-.72,4.43.2,1.28.84,1.87,2.61,1.43,4.31-.32,1.26-1.14,2.46-2.5,3.7-1.62,1.47-3.56,2.65-5.61,3.41-.75.28-1.52.41-2.26.41ZM174.22,156.29c-6.33,1.84-8.08,4.05-8.42,5.58-.34,1.5,0,2.78.94,3.61,1.11.97,2.93,1.2,4.63.57,1.94-.72,3.77-1.83,5.29-3.22,1.21-1.1,1.93-2.15,2.21-3.22.28-1.1.02-2.57-1.02-3.25-.81-.53-1.97-.55-3.62-.07h0Z"/>
              <path class="cls-4" d="M170.73,164.6c-.74,0-1.48-.2-1.96-.66-.32-.3-.79-.98-.4-2.14.63-1.86,3.96-2.65,5.19-2.79h0c.98-.12,2.26.13,2.6,1.18.24.75-.12,1.58-1.02,2.35-.89.75-1.89,1.35-2.97,1.79-.42.17-.93.27-1.44.27ZM173.67,159.98c-1.59.19-4,1.03-4.38,2.13-.25.74.04,1.02.14,1.11.46.43,1.56.52,2.37.2.98-.4,1.89-.94,2.71-1.63.27-.23.88-.81.72-1.3-.15-.46-.91-.58-1.56-.51h0Z"/>
            </g>
            <path class="cls-13" d="M175.36,128.13c-3.71,1.89-6.92,4.59-9.35,8.99-.39.7-.75,1.51-.51,2.28.39,1.24,2.07,1.5,3.33,1.17,1.58-.41,2.96-1.36,4.32-2.28,1.36-.92,2.77-1.83,4.37-2.16,2.07-.43,3.01.57,4.7,1.34,2.33,1.06,5.06,1.62,7.5,2.41,4.39,1.41,8.86,2.84,13.47,2.96,6.48.18,16.04-3,19.85-8.7.64-.95.8-2.32.06-3.19-.6-.71-1.65-.92-2.57-.76-.92.16-1.76.62-2.59,1.05-5.11,2.63-10.73,4.26-16.45,4.79-2.37.22-4.86.22-6.98-.86-1.98-1.01-3.62-3.31-3.04-5.59.46-1.82,3.43-3.79,1.71-5.85-1.12-1.33-2.38-.47-3.79-.1-5.06,1.31-9.87,2.39-14.04,4.51Z"/>
            <path class="cls-13" d="M136.31,159.62c4.72-3.86,6.38-11.17,12.03-13.46,1.82-.74,4.32-1.34,4.44-3.3.08-1.34-1.26-2.45-2.6-2.54-1.34-.09-2.62.57-3.72,1.34-5.05,3.52-8.6,9.86-14.7,10.7-1.86.26-3.74-.06-5.61-.29-1.86-.23-3.8-.36-5.58.24-1.78.6-3.37,2.11-3.54,3.98-.21,2.33,1.54,3.01,3.28,3.57,1.64.53,3.3,1.34,5.01,1.83,3.71,1.06,7.97.39,10.99-2.07Z"/>
            <path class="cls-13" d="M110.21,159.46c-2.47,1.73-5.61,2.11-8.62,2.27-3.01.16-6.1.14-8.91,1.23-1.48.57-2.83,1.43-4.29,2.04-1.46.61-3.12.96-4.62.47-1.5-.5-2.72-2.07-2.4-3.62.4-1.9,2.65-2.7,4.57-2.96,3.16-.43,6.37-.3,9.54-.64,3.17-.33,6.42-1.19,8.82-3.28,1.25-1.08,2.24-2.48,3.67-3.3,6.13-3.55,6.2,5.02,2.24,7.79Z"/>
            <path class="cls-13" d="M77.71,160.09c.57.16,1.11.58,1.23,1.16.18.82-.48,1.57-1.13,2.12-2.63,2.22-18.52,8.41-14.56-.1.97-2.09,2.63-2.52,4.78-2.73,2.75-.27,7.07-1.18,9.67-.44Z"/>
            <path class="cls-13" d="M73.65,31.91c0,1.51-2.26,2.74-5.04,2.74s-5.04-1.22-5.04-2.74,2.26-2.74,5.04-2.74,5.04,1.22,5.04,2.74Z"/>
            <path class="cls-13" d="M81.32,26.81c0,.65-.52,1.17-1.17,1.17s-1.17-.52-1.17-1.17.52-1.17,1.17-1.17,1.17.52,1.17,1.17Z"/>
            <path class="cls-13" d="M112.92,68.28c0,1.16-1.65,2.09-3.7,2.09s-3.7-.94-3.7-2.09,1.65-2.09,3.7-2.09,3.7.94,3.7,2.09Z"/>
            <path class="cls-13" d="M130.96,13.89c0,1.51-2.63,2.74-5.87,2.74s-5.87-1.22-5.87-2.74,2.63-2.74,5.87-2.74,5.87,1.22,5.87,2.74Z"/>
            <path class="cls-13" d="M200.07,101.44c0,1.33-2.54,2.41-5.66,2.41s-5.66-1.08-5.66-2.41,2.54-2.41,5.66-2.41,5.66,1.08,5.66,2.41Z"/>
            <ellipse class="cls-13" cx="35.93" cy="116.56" rx="8.63" ry="4.02"/>
            <path class="cls-11" d="M145.76,194.78c0,2.04-3.03,3.7-6.76,3.7s-6.76-1.66-6.76-3.7,3.03-3.7,6.76-3.7,6.76,1.66,6.76,3.7Z"/>
            <path class="cls-11" d="M162.53,197.81c0,1.45-2.18,2.62-4.87,2.62s-4.87-1.17-4.87-2.62,2.18-2.62,4.87-2.62,4.87,1.17,4.87,2.62Z"/>
            <ellipse class="cls-11" cx="156.67" cy="92.07" rx="8.76" ry="3.42"/>
            <ellipse class="cls-11" cx="103.44" cy="14.53" rx="3.7" ry="2.09"/>
            <path class="cls-11" d="M172.22,38.61c0,1.3-3.48,2.35-7.78,2.35s-7.78-1.05-7.78-2.35,3.48-2.35,7.78-2.35,7.78,1.05,7.78,2.35Z"/>
            <path class="cls-11" d="M63.43,97.5c4.02,1.19,7.59,4.43,11.77,4.03,3.14-.3,5.65-2.6,8.15-4.52,2.5-1.92,5.72-3.63,8.68-2.56,1.61.58,2.93,1.94,4.62,2.19,3.33.49,5.68-4.11,4.04-7.05-1.63-2.94-5.59-3.87-8.87-3.09-3.27.78-6.05,2.85-8.83,4.75-2.77,1.9-5.81,3.72-9.17,3.85-6.6.26-12.41-6.02-18.93-4.93-2.72.45-5.19,2.6-7.97,2.69-2.86.1-5.12-1.85-7.6-3.3-1.3-.76-3.23-1.41-4.09-.16-.76,1.11.21,2.58,1.21,3.48,3.96,3.57,8.35,4.76,13.54,4.84,4.29.06,9.25-1.45,13.43-.21Z"/>
            <path class="cls-11" d="M98.29,100.24c2.28.03,4.54-1.16,5.81-3.05,1.77-2.63,1.55-6.15,2.98-8.98,1.52-3.01,4.98-4.92,8.33-4.6,1.52.14,3.04.75,4.03,1.9.99,1.16,1.31,2.93.55,4.25-1.05,1.8-3.68,2.29-4.52,4.19-.58,1.31-.11,2.86-.46,4.25-.61,2.4-3.32,3.5-5.69,4.22-2.75.83-5.55,1.63-8.42,1.79-2.87.16-5.86-.35-8.25-1.95-.93-.63-1.81-1.51-1.95-2.62-.54-4.34,5.78.6,7.59.62Z"/>
            <path class="cls-11" d="M129.91,94.36c.8.56,1.28,1.56,2.17,1.95,1.83.8,3.8-1.45,5.76-1.05,1.32.27,2.15,1.8,1.89,3.13s-1.39,2.37-2.66,2.81c-1.28.44-2.68.37-4,.11-1.82-.35-3.85-1-5.41,0-1.27.82-1.89,2.57-3.34,2.97-5.13,1.42-.22-14,5.61-9.92Z"/>
            <path class="cls-11" d="M180.02,84.63c2.21-3.48,5.14-6.51,8.55-8.83.99-.67,2.4-1.26,3.28-.46.98.89.29,2.53-.61,3.5-2.1,2.27-5.18,3.81-6.31,6.69-.62,1.57-.57,3.38-1.38,4.86-1.23,2.24-9.4,5.33-10.96,2.1-.62-1.29,6.3-6.09,7.43-7.87Z"/>
          </g>
          <g class="cls-7">
            <path class="cls-5" d="M183.16,28.29c14.16,18.5,22.59,41.6,22.59,66.64,0,60.6-49.3,109.9-109.9,109.9-25.04,0-48.14-8.44-66.64-22.59,20.1,26.27,51.75,43.26,87.31,43.26,60.6,0,109.9-49.3,109.9-109.9,0-35.56-16.99-67.21-43.26-87.31Z"/>
          </g>
        </g>
      </g>
      <path d="M78.85,106.84c12.98-1.02,14.36,18.27,2.82,19.87-14.76,2.05-15.92-18.84-2.82-19.87Z"/>
      <path d="M121.88,159.69c9.36,5.5,4.16,20.98-7.4,16.48-2.18-.85-6.46-3.2-5-6.11,1.11-2.23,5.51,1.18,7.29,1.6,4.32,1.03,5.98-1.22,5.04-5.41-.71-3.16-5.83-3.77-6.23-6.39s2.75-2.78,3.79-4.72c1.97-3.69-.62-5.48-4.26-4.62-1.06.25-1.45,1.42-2.96.97-2.42-1.57-.19-3.67,1.7-4.45,8.28-3.43,13.8,5.94,8.04,12.12v.53Z"/>
      <path d="M151.04,105.74c9.11-.89,14.26,9.13,13.02,17.09-.34,2.16-3.21,2.8-4.22,1.3s-.72-7.32-2.27-9.95c-2.47-4.2-8.6-4.28-10.97.08-1.75,3.22-.98,6.18-1.39,9.35s-4.86,3.34-5.47-1.22c-.96-7.14,3.54-15.89,11.3-16.65Z"/>
    </g>
  </g>
</svg>