<?xml version="1.0" encoding="UTF-8"?>
<svg id="Layer_2" data-name="Layer 2" xmlns="http://www.w3.org/2000/svg" xmlns:xlink="http://www.w3.org/1999/xlink" viewBox="0 0 230 229.63">
  <defs>
    <style>
      .cls-1 {
        opacity: .12;
      }

      .cls-2 {
        opacity: .56;
      }

      .cls-2, .cls-3 {
        fill: #10172e;
      }

      .cls-4 {
        fill: #f58d6a;
      }

      .cls-5 {
        fill: none;
      }

      .cls-6 {
        opacity: .21;
      }

      .cls-7 {
        fill: #fac1b2;
      }

      .cls-8 {
        fill: #a5766b;
      }

      .cls-9 {
        clip-path: url(#clippath);
      }

      .cls-10 {
        fill: #ed7958;
      }
    </style>
    <clipPath id="clippath">
      <path class="cls-5" d="M109.41,6.92c81.85-4.3,138.75,81.29,102.77,155.35-35.38,72.83-136.29,82.02-184.3,16.67C-23.08,109.57,23.97,11.41,109.41,6.92ZM70.15,103.54c-4.43.61-8.27,4.77-9.64,8.87-.81,2.43-2.54,11.69,2.43,10.21,1.86-.55,1.74-5.89,2.22-7.78,1.78-6.98,9.73-8.54,12.41-1.88,1.19,2.95.8,4.85.78,7.7-.02,3.88,5.11,4.55,5.6-.73.76-8.11-4.65-17.65-13.8-16.39ZM157.16,103.55c-7.76.76-12.26,9.51-11.3,16.65.61,4.56,5.07,4.32,5.47,1.22.41-3.17-.36-6.13,1.39-9.35,2.37-4.36,8.5-4.28,10.97-.08,1.55,2.63,1.22,8.39,2.27,9.95,1.01,1.5,3.88.86,4.22-1.3,1.25-7.96-3.9-17.98-13.02-17.09ZM79.73,151.25c-1.73.58.1,5.98.8,7.26,2.91,5.31,8.39,6.71,13.96,7.51,12.43,1.79,28.67,1.84,41.09,0,5.35-.79,10.18-1.97,13.23-6.76.92-1.44,3.52-6.81,1.4-7.86-2.52-1.25-2.6,2.13-3.4,3.64-2.51,4.74-6.18,5.81-11.23,6.54-12.12,1.75-29.31,1.76-41.42-.04-3.87-.57-7.59-1.55-10.01-4.8-1.33-1.79-1.98-6.3-4.43-5.48Z"/>
    </clipPath>
  </defs>
  <g id="Layer_6" data-name="Layer 6">
    <g>
      <path d="M106.62.23c98.9-5.92,159.94,106,99.08,184.98-54.49,70.72-166.41,54.07-198.14-29.12C-19.74,84.54,30.05,4.81,106.62.23ZM109.21,6.89C23.77,11.38-23.27,109.55,27.68,178.91c48.01,65.35,148.91,56.16,184.3-16.67C247.96,88.18,191.06,2.59,109.21,6.89Z"/>
      <g class="cls-9">
        <g>
          <g>
            <circle class="cls-4" cx="111.23" cy="118.24" r="112.02" transform="translate(-51.03 113.28) rotate(-45)"/>
            <path class="cls-10" d="M162.84,118.24c0-50.65-35.08-93.23-82.2-104.8,8.25-2.02,16.85-3.12,25.71-3.12,59.5,0,107.91,48.41,107.91,107.91s-48.41,107.92-107.91,107.92c-8.86,0-17.47-1.1-25.71-3.12,47.13-11.57,82.2-54.15,82.2-104.8Z"/>
            <path class="cls-7" d="M114.46,25.49c17.25-.77,36.11,7.1,50.89-1.82-24.09-15.49-54.75-20.39-82.47-13.17-16.27,4.24-31.41,12.62-43.84,23.92-6.06,5.51-26.38,22.84-14,26.69,10.17,3.16,32.25-11.4,40.41-15.94,15.36-8.55,30.87-18.88,49.01-19.68Z"/>
            <path class="cls-8" d="M215.23,153.91c.48-2.26-.81-4.73-2.7-6.15-8.28-6.25-22.61-5.94-32.13-3.77-13.41,3.06-25.75,9.93-39.24,12.65-13.48,2.72-29.72-.07-36.85-11.83-1.28-2.11-2.3-4.52-4.34-5.91-3.74-2.54-9.21-.15-11.51,3.74-2.06,3.47-.88,8.72-3.07,11.66-.95,1.27-2.61,1.99-4.19,1.78-2.63-.35-4.44-3.11-4.48-5.76-.02-1.79.58-3.54.68-5.33.1-1.79-.52-3.85-2.16-4.56-1.82-.8-3.94.46-5.14,2.05-1.21,1.58-1.93,3.53-3.31,4.96-3.99,4.12-13.06-3.97-17.04-5.88-12.57-6.03-28.37-4.69-39.75,3.38-8.35,5.92,3.54,17.59,12.44,22.67,8.89,5.07,19.74,9.23,23.41,18.78,1.14,2.98,1.49,6.34,3.4,8.89,4.09,5.45,12.38,4.25,19.09,3.08,6.71-1.16,15.64-.4,17.55,6.14.98,3.34-.4,7.19,1.2,10.27,5.28,10.15,32.28-.89,39.74-3.43,15.82-5.4,30.8-12.92,45.7-20.42,6.57-3.3,13.4-6.82,17.69-12.79,4.98-6.92,7.73-15.28,16.46-18.53,3.13-1.17,7.06-1.87,8.31-4.96.1-.24.17-.48.22-.72Z"/>
            <path class="cls-7" d="M31.28,178.62c1.81,3.33,3.61,7.3,7.26,8.3,3.19.88,6.64-.92,9.85-.14,7.01,1.71,6.5,12.85,12.52,16.84,5.92,3.93,13.83-1.33,20.86-.26,5.82.89,10.14,5.99,15.78,7.67,3.78,1.12,7.83.62,11.73.03,33.05-5.05,65.16-16.16,94.27-32.6-22.38,33.32-63.8,52.83-103.74,48.85-19.6-1.95-38.47-9.54-54.36-21.11-14.46-10.52-31.74-27.53-36.62-45.32,7.44-3.76,19.49,12.3,22.44,17.74Z"/>
            <g>
              <path class="cls-7" d="M27.33,174.84c2.35,0,2.36-3.66,0-3.66s-2.36,3.66,0,3.66h0Z"/>
              <path class="cls-7" d="M33.83,177.9c2.29,0,2.3-3.56,0-3.56s-2.3,3.56,0,3.56h0Z"/>
              <path class="cls-7" d="M35.05,179.71c.26,0,.26-.41,0-.41s-.26.41,0,.41h0Z"/>
              <path class="cls-7" d="M35.86,185.16c2.4,0,2.4-3.72,0-3.72s-2.4,3.72,0,3.72h0Z"/>
              <path class="cls-7" d="M39.25,189.31c2.68,0,2.69-4.17,0-4.17s-2.69,4.17,0,4.17h0Z"/>
              <path class="cls-7" d="M40.6,183.87c2.48,0,2.48-3.85,0-3.85s-2.48,3.85,0,3.85h0Z"/>
              <path class="cls-7" d="M56.45,199.14c1.73,0,1.74-2.7,0-2.7s-1.74,2.7,0,2.7h0Z"/>
              <path class="cls-7" d="M65.52,195.45c2.75,0,2.75-4.27,0-4.27s-2.75,4.27,0,4.27h0Z"/>
              <path class="cls-7" d="M69.04,199.71c2.48,0,2.48-3.85,0-3.85s-2.48,3.85,0,3.85h0Z"/>
              <path class="cls-7" d="M77.57,201.6c1.24,0,1.24-1.93,0-1.93s-1.24,1.93,0,1.93h0Z"/>
              <path class="cls-7" d="M91.52,210.04c3.22,0,3.23-5.01,0-5.01s-3.23,5.01,0,5.01h0Z"/>
              <path class="cls-7" d="M98.83,206.6c2.62,0,2.63-4.08,0-4.08s-2.63,4.08,0,4.08h0Z"/>
              <path class="cls-7" d="M101.54,211.26c2,0,2.01-3.11,0-3.11s-2.01,3.11,0,3.11h0Z"/>
              <path class="cls-7" d="M119.32,212.57c.05-.04.11-.09.16-.13,2.35-1.95.62-5.87-2.11-6.2-2.63-.31-5.61,2.93-3.66,5.46.04.06.09.11.13.17,1.45,1.89,3.58,2.27,5.47.7h0Z"/>
              <path class="cls-7" d="M124.97,208.63c2.11,0,2.11-3.27,0-3.27s-2.11,3.27,0,3.27h0Z"/>
              <path class="cls-7" d="M128.08,202.9c1.69,0,1.7-2.63,0-2.63s-1.7,2.63,0,2.63h0Z"/>
              <path class="cls-7" d="M138.51,203.17c1.18,0,1.18-1.83,0-1.83s-1.18,1.83,0,1.83h0Z"/>
              <path class="cls-7" d="M142.98,196.82c2.77,0,2.77-4.3,0-4.3s-2.77,4.3,0,4.3h0Z"/>
              <path class="cls-7" d="M147.45,199.17c1.78,0,1.78-2.76,0-2.76s-1.78,2.76,0,2.76h0Z"/>
              <path class="cls-7" d="M151.65,202.93c4.36,0,4.36-6.77,0-6.77s-4.36,6.77,0,6.77h0Z"/>
              <path class="cls-7" d="M160.18,198.35c2.99,0,3-4.65,0-4.65s-3,4.65,0,4.65h0Z"/>
              <path class="cls-7" d="M166.94,196.61c2.46,0,2.46-3.82,0-3.82s-2.46,3.82,0,3.82h0Z"/>
              <path class="cls-7" d="M173.04,192.35c2.58,0,2.59-4.01,0-4.01s-2.59,4.01,0,4.01h0Z"/>
              <path class="cls-7" d="M181.98,190.74c1.73,0,1.74-2.7,0-2.7s-1.74,2.7,0,2.7h0Z"/>
              <path class="cls-7" d="M187.67,185.95c1.84,0,1.84-2.86,0-2.86s-1.84,2.86,0,2.86h0Z"/>
              <path class="cls-7" d="M194.17,187.65c2.46,0,2.46-3.82,0-3.82s-2.46,3.82,0,3.82h0Z"/>
              <path class="cls-7" d="M196.02,186.25c.09-.36.18-.72.27-1.08.61-2.42-3.14-3.46-3.74-1.03l-.27,1.08c-.61,2.42,3.14,3.46,3.74,1.03h0Z"/>
              <path class="cls-7" d="M200.31,179.64c.06-.45.06-.9.02-1.35-.07-1.69-2.1-2.6-3.35-1.39-.34.29-.64.62-.91.98-2.98,3.6,3.93,6.27,4.25,1.76h0Z"/>
              <path class="cls-7" d="M198.64,177.89c2.46,0,2.46-3.82,0-3.82s-2.46,3.82,0,3.82h0Z"/>
              <path class="cls-7" d="M188.08,183.31c2.11,0,2.11-3.27,0-3.27s-2.11,3.27,0,3.27h0Z"/>
              <path class="cls-7" d="M23.84,61.4c.7-.3.76-.34,1.28-.84.2-.19.2-.54,0-.73-.52-.5-.59-.55-1.28-.84-2.64-1.12-2.64,3.53,0,2.41h0Z"/>
            </g>
            <g class="cls-6">
              <path class="cls-2" d="M166.03,25.33c9.52,16.07,15,34.81,15,54.8,0,59.5-48.41,107.92-107.91,107.92-20,0-38.73-5.49-54.8-15.01,18.81,31.76,53.4,53.11,92.91,53.11,59.51,0,107.91-48.41,107.91-107.92,0-39.51-21.35-74.11-53.11-92.91Z"/>
            </g>
          </g>
          <path class="cls-8" d="M62.3,62.52c-2.62,4.42-3.15,10.61-7.71,12.98-4.29,2.23-10.59-.05-13.7,3.66-2.24,2.67-.92,7.18,2.08,8.96,3,1.78,6.95,1.22,9.96-.54,2.21-1.29,5.55-5.43,8.37-4.22,1.21.52,2.03,1.84,1.95,3.16-.09,1.54-1.27,2.93-1.04,4.46.31,2.06,3.13,2.87,5,1.95,1.87-.92,2.96-2.87,3.94-4.71,2.69-5.07,6-9.64,8.48-14.73,2.28-4.68,4.6-9.69,9.45-12.21,5.49-2.86,12.53-1.47,17.87-4.61,11.37-6.69,1.92-21.06-9.48-14.03-5.94,3.66-11.24,6.52-17.83,9-6.31,2.37-13.69,4.73-17.35,10.89Z"/>
          <path class="cls-8" d="M142.6,38c3.81-.07,6.92,1.47,7.27,5.52.45,5.18-2.28,12.77-7.87,14.12-5.02,1.21-15.11-3.88-14.66-9.83.37-4.97,8.81-9.7,15.26-9.81Z"/>
          <g class="cls-1">
            <path class="cls-3" d="M46.7,161.07c4.34,0,4.34-6.74,0-6.74s-4.34,6.74,0,6.74h0Z"/>
            <path class="cls-3" d="M61.36,185.26c4.08,0,7.99-3.59,7.8-7.8-.19-4.23-3.43-7.8-7.8-7.8-4.08,0-7.99,3.59-7.8,7.8.19,4.22,3.43,7.8,7.8,7.8h0Z"/>
            <path class="cls-3" d="M98.7,174.55c3.9,0,3.91-6.07,0-6.07s-3.91,6.07,0,6.07h0Z"/>
            <path class="cls-3" d="M179.14,147.44c7.19,0,7.2-11.17,0-11.17s-7.2,11.17,0,11.17h0Z"/>
            <path class="cls-3" d="M172.64,87.22c.26,0,.26-.41,0-.41s-.26.41,0,.41h0Z"/>
            <path class="cls-3" d="M158.42,97.08c5.64,0,5.65-8.76,0-8.76s-5.65,8.76,0,8.76h0Z"/>
            <path class="cls-3" d="M132.82,120.91c6.5,0,6.52-10.11,0-10.11s-6.52,10.11,0,10.11h0Z"/>
            <path class="cls-3" d="M115.76,67.7c3.9,0,3.91-6.07,0-6.07s-3.91,6.07,0,6.07h0Z"/>
            <path class="cls-3" d="M29.63,80.11c5.76,0,5.77-8.95,0-8.95s-5.77,8.95,0,8.95h0Z"/>
          </g>
        </g>
      </g>
      <path d="M79.53,151.22c2.44-.82,3.09,3.69,4.43,5.48,2.41,3.25,6.14,4.23,10.01,4.8,12.11,1.8,29.31,1.79,41.42.04,5.06-.73,8.72-1.8,11.23-6.54.8-1.51.88-4.89,3.4-3.64,2.12,1.05-.48,6.42-1.4,7.86-3.05,4.79-7.88,5.97-13.23,6.76-12.42,1.84-28.66,1.79-41.09,0-5.57-.8-11.05-2.2-13.96-7.51-.7-1.28-2.53-6.68-.8-7.26Z"/>
      <path d="M156.97,103.52c9.11-.89,14.26,9.13,13.02,17.09-.34,2.16-3.21,2.8-4.22,1.3-1.05-1.56-.72-7.32-2.27-9.95-2.47-4.2-8.6-4.28-10.97.08-1.75,3.22-.98,6.18-1.39,9.35-.4,3.09-4.86,3.34-5.47-1.22-.96-7.14,3.54-15.89,11.3-16.65Z"/>
      <path d="M69.95,103.52c9.16-1.26,14.57,8.28,13.8,16.39-.5,5.28-5.63,4.61-5.6.73.02-2.85.4-4.75-.78-7.7-2.68-6.66-10.63-5.1-12.41,1.88-.48,1.89-.36,7.23-2.22,7.78-4.97,1.48-3.24-7.78-2.43-10.21,1.37-4.1,5.22-8.26,9.64-8.87Z"/>
    </g>
  </g>
</svg>