<?xml version="1.0" encoding="UTF-8"?>
<svg xmlns="http://www.w3.org/2000/svg" xmlns:xlink="http://www.w3.org/1999/xlink" viewBox="0 0 230 229.57">
  <defs>
    <style>
      .cls-1 {
        fill: #ccb178;
      }

      .cls-2 {
        fill: #10172e;
      }

      .cls-2, .cls-3, .cls-4 {
        opacity: .56;
      }

      .cls-3 {
        mix-blend-mode: multiply;
      }

      .cls-5 {
        fill: #fff;
      }

      .cls-6 {
        fill: none;
      }

      .cls-4, .cls-7 {
        fill: #e2ca8d;
      }

      .cls-8 {
        isolation: isolate;
      }

      .cls-9 {
        fill: #eed8a4;
      }

      .cls-10 {
        clip-path: url(#clippath);
      }
    </style>
    <clipPath id="clippath">
      <path class="cls-6" d="M106.6,7.12c91.11-5.64,149.32,94.68,96.66,169.82-47.84,68.26-152.89,58.28-187-17.62C-14.21,91.52,32.21,11.72,106.6,7.12ZM77.32,106.98c-11.49,1.95-9.6,21.71,3.89,19.79,12.57-1.79,10.6-22.25-3.89-19.79ZM148.06,106.99c-12.19,1.79-10.14,21.12,2.83,19.84,13-1.29,11.25-21.91-2.83-19.84ZM139.35,143.24c-1.08,1.11-.63,3.37-3.64,4.68-1.93.84-6.55,1.06-8.84,1.16-7.46.34-16.65.34-24.1,0-2.27-.1-6.64-.31-8.62-1.01-3.3-1.16-3.62-4.96-4.77-5.26-1.53-.1-1.66,1.18-1.63,2.37.14,5.67,7.72,7.36,12.23,7.6.45,6.18.92,15.32,7.17,18.55,3.58,1.85,9.64,1.96,13.41.69,7.63-2.57,8.77-12.31,8.69-19.25,4.69.05,12.44-2.26,12.61-7.98.05-1.65-1.36-2.75-2.53-1.56Z"/>
    </clipPath>
  </defs>
  <g class="cls-8">
    <g id="Layer_2" data-name="Layer 2">
      <g id="mercury">
        <g>
          <path class="cls-5" d="M109.77.15C20.04,4.6-30.7,105.38,20.29,179.95c46.81,68.45,149.65,65.46,192.79-5.18C260.94,96.42,201.19-4.38,109.77.15Z"/>
          <path d="M109.77.15c91.42-4.53,151.18,96.27,103.32,174.62-43.15,70.64-145.99,73.63-192.79,5.18C-30.7,105.38,20.04,4.6,109.77.15ZM106.8,7.18C32.41,11.78-14.01,91.58,16.46,159.37c34.12,75.91,139.17,85.88,187,17.62C256.12,101.85,197.91,1.53,106.8,7.18Z"/>
          <g class="cls-10">
            <g>
              <rect class="cls-6" x="3" y="1.91" width="224.26" height="224.26"/>
              <g>
                <circle class="cls-1" cx="115.13" cy="114.05" r="112.13" transform="translate(-15.45 210.01) rotate(-81.04)"/>
                <path class="cls-7" d="M112.58,31.31c5.93,2.24,11.39,6.04,14.9,11.32,5.17,7.76,6.35,23.68-1.79,29.89-4.21,3.22-9.78,4.15-14.41,6.39-5.2,2.51-10.52,4.67-16.32,5.25-6.4.63-13.21-.81-18.09-5.01-2.2-1.9-4.06-4.37-6.79-5.36-4.55-1.66-16.04,2.33-15.71-6.02.16-4.06,5.92-11.43,7.99-15.33,6.06-11.44,15.94-19.97,28.79-22.62,7.1-1.46,14.62-1.06,21.42,1.51Z"/>
                <path class="cls-9" d="M119.65,61.23c4.48,0,4.49-6.96,0-6.96s-4.49,6.96,0,6.96h0Z"/>
                <path class="cls-1" d="M104.86,69.01c2.07,0,2.07-3.21,0-3.21s-2.07,3.21,0,3.21h0Z"/>
                <path class="cls-1" d="M69.15,58.19c.03-.17.05-.33.08-.5.07-.42-.23-.73-.66-.66-.17.03-.33.05-.5.08-1.95.32.76,3.02,1.08,1.08h0Z"/>
                <path class="cls-9" d="M78.64,41.85c-.24-.15.9.74,1.1.87,1.75,1.15,4.91.11,5.24-2.13.38-2.62-.45-5.24-3.3-5.95-4.36-1.08-6.84,4.8-3.04,7.2h0Z"/>
                <path class="cls-1" d="M100.35,49.68c2.04,0,2.04-3.16,0-3.16s-2.04,3.16,0,3.16h0Z"/>
                <path class="cls-7" d="M141.48,19.24c4.55-1.09,9.4.2,13.45,2.54,4.05,2.34,7.43,5.65,10.76,8.93,5.33,5.24,10.66,10.48,15.99,15.72,13.32,13.1,27.17,27.06,32.15,45.06,4,14.43,1.57,30.51-6.51,43.12-1.35,2.11-3.13,4.3-5.61,4.63-2.46.33-4.75-1.29-6.46-3.09-6.49-6.87-8.41-17.09-14.82-24.03-7.03-7.61-18.42-10.16-25.08-18.1-8.3-9.9-6.59-24.46-9.71-37-2.62-10.53-9.04-20.06-17.79-26.47-2.88-2.1-6.02-3.9-8.46-6.5-2.44-2.6-4.12-6.27-3.22-9.72,2.39-9.18,12.6.63,16.38,2.58,3.47,1.79,5.13,3.24,8.93,2.32Z"/>
                <path class="cls-7" d="M46.37,136.16c4.75,5.51,3.82,13.7,3.22,20.95-.6,7.25.15,15.95,6.45,19.59,3.86,2.23,8.63,1.79,13.02,2.58,5.62,1.02,10.64,4.1,16.09,5.82,13.1,4.14,27.73.22,40.8,4.45,6.15,1.99,11.8,5.75,18.23,6.39,8.24.82,16.38-3.86,21.26-10.54,4.88-6.69,6.9-15.09,7.44-23.35.42-6.38-.23-13.44-4.7-18.01-3.42-3.5-8.43-4.88-12.44-7.68-7.97-5.59-11.39-16.4-19.96-21.01-5.99-3.22-13.33-2.74-19.62-5.32-5.64-2.32-10.1-6.96-15.75-9.25-8.91-3.62-19.27-.75-27.48,4.28-8.2,5.03-14.98,12.05-22.76,17.72-2.14,5.34-2.75,7.74-3.81,13.39Z"/>
                <path class="cls-7" d="M21.48,104.19c-1.64,3.26-2.3,7.69.38,10.17,2.73,2.52,7.11,1.44,10.54-.01,4.73-2,9.35-4.44,13.15-7.88,3.81-3.45,6.78-7.99,7.64-13.05.48-2.82.17-6.03-1.86-8.04-7.8-7.71-26.65,12.47-29.84,18.82Z"/>
                <path class="cls-7" d="M182.53,186.85c-.13.79-.25,1.65.14,2.34.53.93,1.82,1.18,2.83.84,1.01-.33,1.82-1.1,2.58-1.84,3.59-3.5,7.18-7,10.77-10.5,4.35-4.24,8.74-8.52,12.08-13.59,1.73-2.61,3.19-5.93,1.9-8.78-1.17-2.59-4.19-3.79-7-4.15-21.25-2.74-20.95,21.55-23.3,35.68Z"/>
                <path class="cls-9" d="M170.17,59.38c8.17,0,8.19-12.7,0-12.7s-8.19,12.7,0,12.7h0Z"/>
                <path class="cls-9" d="M120.3,161.46c0,.14.02.27.03.41.13,1.95,1.47,3.3,3.43,3.43l.41.03c3.45.23,4.99-4.35,2.74-6.6-2.26-2.26-6.83-.7-6.6,2.74h0Z"/>
                <path class="cls-9" d="M64.93,146.54c.39-.15.78-.29,1.17-.44,4.43-1.68,8.14-3.94,10.61-8.16,2.23-3.81,3.17-9.41,1.79-13.68-3.02-9.33-12.18-14.82-21.84-12.4-.4.1-.8.2-1.21.3-9.05,2.27-15.37,12.92-12.45,21.93,2.75,8.49,12.59,15.99,21.93,12.45h0Z"/>
                <path class="cls-9" d="M45.31,98.68c6.95,0,6.96-10.8,0-10.8s-6.96,10.8,0,10.8h0Z"/>
                <path class="cls-9" d="M196.05,171.12c7.14,0,7.15-11.1,0-11.1s-7.15,11.1,0,11.1h0Z"/>
                <path class="cls-9" d="M117.58,216.69c7.37,0,14.44-6.48,14.09-14.09-.34-7.64-6.19-14.09-14.09-14.09-7.37,0-14.44,6.48-14.09,14.09.34,7.64,6.19,14.09,14.09,14.09h0Z"/>
                <path class="cls-9" d="M85.56,189.59c5.54,0,5.55-8.61,0-8.61s-5.55,8.61,0,8.61h0Z"/>
                <path class="cls-9" d="M36.58,174.56c7.3,0,14.3-6.42,13.97-13.97-.34-7.57-6.14-13.97-13.97-13.97-7.31,0-14.3,6.42-13.97,13.97.34,7.57,6.14,13.97,13.97,13.97h0Z"/>
                <path class="cls-9" d="M24.36,140.75c11.93,0,11.95-18.54,0-18.54s-11.95,18.54,0,18.54h0Z"/>
                <path class="cls-9" d="M62.97,163.77c6.67,0,6.68-10.37,0-10.37s-6.68,10.37,0,10.37h0Z"/>
                <path class="cls-9" d="M45.72,54.53c1.41,0,1.41-2.19,0-2.19s-1.41,2.19,0,2.19h0Z"/>
                <path class="cls-9" d="M70.77,28.69c.4,0,.4-.62,0-.62s-.4.62,0,.62h0Z"/>
                <path class="cls-9" d="M54.76,67.51c9.11,0,9.13-14.16,0-14.16s-9.13,14.16,0,14.16h0Z"/>
                <path class="cls-9" d="M129.09,18.22c-.06-.03-.12-.07-.19-.1-7.14-3.81-16.87,2.54-14.25,10.95.02.07.04.13.06.2,2.05,6.55,9.83,9.36,15.36,5.08,5.22-4.03,5.16-12.85-.99-16.13h0Z"/>
                <path class="cls-9" d="M128.69,95.66c10.99,0,11.01-17.08,0-17.08s-11.01,17.08,0,17.08h0Z"/>
                <path class="cls-9" d="M83.92,99.57c5.45,0,5.46-8.47,0-8.47s-5.46,8.47,0,8.47h0Z"/>
                <path class="cls-9" d="M119.24,120.66c1.41,0,1.41-2.19,0-2.19s-1.41,2.19,0,2.19h0Z"/>
                <path class="cls-9" d="M116.07,134.74c-.05-.35-.1-.69-.15-1.04-.61-4.21-5.95-6.53-9.69-5.5-4.13,1.13-6.61,5.57-5.5,9.69.09.34.18.67.27,1.01,1.1,4.07,5.55,6.57,9.61,5.46,4.48-1.23,6.06-5.42,5.46-9.61h0Z"/>
                <path class="cls-9" d="M174.69,162.51c10.33,0,10.35-16.06,0-16.06s-10.35,16.06,0,16.06h0Z"/>
                <path class="cls-9" d="M183.31,123.56c6.2,0,6.21-9.64,0-9.64s-6.21,9.64,0,9.64h0Z"/>
                <path class="cls-9" d="M165.64,109.26c6.2,0,6.21-9.64,0-9.64s-6.21,9.64,0,9.64h0Z"/>
                <path class="cls-9" d="M161.55,32.72c11.93,0,11.95-18.54,0-18.54s-11.95,18.54,0,18.54h0Z"/>
                <path class="cls-4" d="M48.39,29.78c-10.45,9.22-18.24,22.51-17.48,36.42,1.1,20.11,19.06,35.18,37.31,43.68,18.26,8.49,38.61,13.31,54.37,25.84,18.29,14.53,28.1,39.03,24.9,62.17-.48,3.44-.78,7.82,2.27,9.47,1.77.95,3.94.48,5.86-.12,22.66-7.09,39.73-29.28,40.77-53.01,1.04-23.72-14.01-47.33-35.97-56.38-11.01-4.54-23.12-5.6-34.55-8.94-11.43-3.34-23.01-9.86-27.43-20.92-3.81-9.52-1.55-20.2-.65-30.41,3.45-39.2-30.5-24.47-49.41-7.79Z"/>
              </g>
              <g class="cls-3">
                <path class="cls-2" d="M181.09,31.33c14.47,18.11,23.19,41.02,23.19,65.96,0,58.4-47.51,105.9-105.9,105.9-24.94,0-47.85-8.72-65.96-23.19,19.42,24.3,49.25,39.94,82.71,39.94,58.4,0,105.9-47.51,105.9-105.9,0-33.46-15.64-63.29-39.94-82.71Z"/>
              </g>
            </g>
            <g>
              <rect class="cls-6" x="3" y="1.91" width="224.26" height="224.26"/>
              <g>
                <circle class="cls-1" cx="115.13" cy="114.05" r="112.13" transform="translate(-15.45 210.01) rotate(-81.04)"/>
                <path class="cls-7" d="M112.58,31.31c5.93,2.24,11.39,6.04,14.9,11.32,5.17,7.76,6.35,23.68-1.79,29.89-4.21,3.22-9.78,4.15-14.41,6.39-5.2,2.51-10.52,4.67-16.32,5.25-6.4.63-13.21-.81-18.09-5.01-2.2-1.9-4.06-4.37-6.79-5.36-4.55-1.66-16.04,2.33-15.71-6.02.16-4.06,5.92-11.43,7.99-15.33,6.06-11.44,15.94-19.97,28.79-22.62,7.1-1.46,14.62-1.06,21.42,1.51Z"/>
                <path class="cls-9" d="M119.65,61.23c4.48,0,4.49-6.96,0-6.96s-4.49,6.96,0,6.96h0Z"/>
                <path class="cls-1" d="M104.86,69.01c2.07,0,2.07-3.21,0-3.21s-2.07,3.21,0,3.21h0Z"/>
                <path class="cls-1" d="M69.15,58.19c.03-.17.05-.33.08-.5.07-.42-.23-.73-.66-.66-.17.03-.33.05-.5.08-1.95.32.76,3.02,1.08,1.08h0Z"/>
                <path class="cls-9" d="M78.64,41.85c-.24-.15.9.74,1.1.87,1.75,1.15,4.91.11,5.24-2.13.38-2.62-.45-5.24-3.3-5.95-4.36-1.08-6.84,4.8-3.04,7.2h0Z"/>
                <path class="cls-1" d="M100.35,49.68c2.04,0,2.04-3.16,0-3.16s-2.04,3.16,0,3.16h0Z"/>
                <path class="cls-7" d="M141.48,19.24c4.55-1.09,9.4.2,13.45,2.54,4.05,2.34,7.43,5.65,10.76,8.93,5.33,5.24,10.66,10.48,15.99,15.72,13.32,13.1,27.17,27.06,32.15,45.06,4,14.43,1.57,30.51-6.51,43.12-1.35,2.11-3.13,4.3-5.61,4.63-2.46.33-4.75-1.29-6.46-3.09-6.49-6.87-8.41-17.09-14.82-24.03-7.03-7.61-18.42-10.16-25.08-18.1-8.3-9.9-6.59-24.46-9.71-37-2.62-10.53-9.04-20.06-17.79-26.47-2.88-2.1-6.02-3.9-8.46-6.5-2.44-2.6-4.12-6.27-3.22-9.72,2.39-9.18,12.6.63,16.38,2.58,3.47,1.79,5.13,3.24,8.93,2.32Z"/>
                <path class="cls-7" d="M46.37,136.16c4.75,5.51,3.82,13.7,3.22,20.95-.6,7.25.15,15.95,6.45,19.59,3.86,2.23,8.63,1.79,13.02,2.58,5.62,1.02,10.64,4.1,16.09,5.82,13.1,4.14,27.73.22,40.8,4.45,6.15,1.99,11.8,5.75,18.23,6.39,8.24.82,16.38-3.86,21.26-10.54,4.88-6.69,6.9-15.09,7.44-23.35.42-6.38-.23-13.44-4.7-18.01-3.42-3.5-8.43-4.88-12.44-7.68-7.97-5.59-11.39-16.4-19.96-21.01-5.99-3.22-13.33-2.74-19.62-5.32-5.64-2.32-10.1-6.96-15.75-9.25-8.91-3.62-19.27-.75-27.48,4.28-8.2,5.03-14.98,12.05-22.76,17.72-2.14,5.34-2.75,7.74-3.81,13.39Z"/>
                <path class="cls-7" d="M21.48,104.19c-1.64,3.26-2.3,7.69.38,10.17,2.73,2.52,7.11,1.44,10.54-.01,4.73-2,9.35-4.44,13.15-7.88,3.81-3.45,6.78-7.99,7.64-13.05.48-2.82.17-6.03-1.86-8.04-7.8-7.71-26.65,12.47-29.84,18.82Z"/>
                <path class="cls-7" d="M182.53,186.85c-.13.79-.25,1.65.14,2.34.53.93,1.82,1.18,2.83.84,1.01-.33,1.82-1.1,2.58-1.84,3.59-3.5,7.18-7,10.77-10.5,4.35-4.24,8.74-8.52,12.08-13.59,1.73-2.61,3.19-5.93,1.9-8.78-1.17-2.59-4.19-3.79-7-4.15-21.25-2.74-20.95,21.55-23.3,35.68Z"/>
                <path class="cls-9" d="M170.17,59.38c8.17,0,8.19-12.7,0-12.7s-8.19,12.7,0,12.7h0Z"/>
                <path class="cls-9" d="M120.3,161.46c0,.14.02.27.03.41.13,1.95,1.47,3.3,3.43,3.43l.41.03c3.45.23,4.99-4.35,2.74-6.6-2.26-2.26-6.83-.7-6.6,2.74h0Z"/>
                <path class="cls-9" d="M64.93,146.54c.39-.15.78-.29,1.17-.44,4.43-1.68,8.14-3.94,10.61-8.16,2.23-3.81,3.17-9.41,1.79-13.68-3.02-9.33-12.18-14.82-21.84-12.4-.4.1-.8.2-1.21.3-9.05,2.27-15.37,12.92-12.45,21.93,2.75,8.49,12.59,15.99,21.93,12.45h0Z"/>
                <path class="cls-9" d="M45.31,98.68c6.95,0,6.96-10.8,0-10.8s-6.96,10.8,0,10.8h0Z"/>
                <path class="cls-9" d="M196.05,171.12c7.14,0,7.15-11.1,0-11.1s-7.15,11.1,0,11.1h0Z"/>
                <path class="cls-9" d="M117.58,216.69c7.37,0,14.44-6.48,14.09-14.09-.34-7.64-6.19-14.09-14.09-14.09-7.37,0-14.44,6.48-14.09,14.09.34,7.64,6.19,14.09,14.09,14.09h0Z"/>
                <path class="cls-9" d="M85.56,189.59c5.54,0,5.55-8.61,0-8.61s-5.55,8.61,0,8.61h0Z"/>
                <path class="cls-9" d="M36.58,174.56c7.3,0,14.3-6.42,13.97-13.97-.34-7.57-6.14-13.97-13.97-13.97-7.31,0-14.3,6.42-13.97,13.97.34,7.57,6.14,13.97,13.97,13.97h0Z"/>
                <path class="cls-9" d="M24.36,140.75c11.93,0,11.95-18.54,0-18.54s-11.95,18.54,0,18.54h0Z"/>
                <path class="cls-9" d="M62.97,163.77c6.67,0,6.68-10.37,0-10.37s-6.68,10.37,0,10.37h0Z"/>
                <path class="cls-9" d="M45.72,54.53c1.41,0,1.41-2.19,0-2.19s-1.41,2.19,0,2.19h0Z"/>
                <path class="cls-9" d="M70.77,28.69c.4,0,.4-.62,0-.62s-.4.62,0,.62h0Z"/>
                <path class="cls-9" d="M54.76,67.51c9.11,0,9.13-14.16,0-14.16s-9.13,14.16,0,14.16h0Z"/>
                <path class="cls-9" d="M129.09,18.22c-.06-.03-.12-.07-.19-.1-7.14-3.81-16.87,2.54-14.25,10.95.02.07.04.13.06.2,2.05,6.55,9.83,9.36,15.36,5.08,5.22-4.03,5.16-12.85-.99-16.13h0Z"/>
                <path class="cls-9" d="M128.69,95.66c10.99,0,11.01-17.08,0-17.08s-11.01,17.08,0,17.08h0Z"/>
                <path class="cls-9" d="M83.92,99.57c5.45,0,5.46-8.47,0-8.47s-5.46,8.47,0,8.47h0Z"/>
                <path class="cls-9" d="M119.24,120.66c1.41,0,1.41-2.19,0-2.19s-1.41,2.19,0,2.19h0Z"/>
                <path class="cls-9" d="M116.07,134.74c-.05-.35-.1-.69-.15-1.04-.61-4.21-5.95-6.53-9.69-5.5-4.13,1.13-6.61,5.57-5.5,9.69.09.34.18.67.27,1.01,1.1,4.07,5.55,6.57,9.61,5.46,4.48-1.23,6.06-5.42,5.46-9.61h0Z"/>
                <path class="cls-9" d="M174.69,162.51c10.33,0,10.35-16.06,0-16.06s-10.35,16.06,0,16.06h0Z"/>
                <path class="cls-9" d="M183.31,123.56c6.2,0,6.21-9.64,0-9.64s-6.21,9.64,0,9.64h0Z"/>
                <path class="cls-9" d="M165.64,109.26c6.2,0,6.21-9.64,0-9.64s-6.21,9.64,0,9.64h0Z"/>
                <path class="cls-9" d="M161.55,32.72c11.93,0,11.95-18.54,0-18.54s-11.95,18.54,0,18.54h0Z"/>
                <path class="cls-4" d="M48.39,29.78c-10.45,9.22-18.24,22.51-17.48,36.42,1.1,20.11,19.06,35.18,37.31,43.68,18.26,8.49,38.61,13.31,54.37,25.84,18.29,14.53,28.1,39.03,24.9,62.17-.48,3.44-.78,7.82,2.27,9.47,1.77.95,3.94.48,5.86-.12,22.66-7.09,39.73-29.28,40.77-53.01,1.04-23.72-14.01-47.33-35.97-56.38-11.01-4.54-23.12-5.6-34.55-8.94-11.43-3.34-23.01-9.86-27.43-20.92-3.81-9.52-1.55-20.2-.65-30.41,3.45-39.2-30.5-24.47-49.41-7.79Z"/>
              </g>
              <g class="cls-3">
                <path class="cls-2" d="M181.09,31.33c14.47,18.11,23.19,41.02,23.19,65.96,0,58.4-47.51,105.9-105.9,105.9-24.94,0-47.85-8.72-65.96-23.19,19.42,24.3,49.25,39.94,82.71,39.94,58.4,0,105.9-47.51,105.9-105.9,0-33.46-15.64-63.29-39.94-82.71Z"/>
              </g>
            </g>
            <g>
              <rect class="cls-6" x="3" y="1.91" width="224.26" height="224.26"/>
              <g>
                <circle class="cls-1" cx="115.13" cy="114.05" r="112.13" transform="translate(-15.45 210.01) rotate(-81.04)"/>
                <path class="cls-7" d="M112.58,31.31c5.93,2.24,11.39,6.04,14.9,11.32,5.17,7.76,6.35,23.68-1.79,29.89-4.21,3.22-9.78,4.15-14.41,6.39-5.2,2.51-10.52,4.67-16.32,5.25-6.4.63-13.21-.81-18.09-5.01-2.2-1.9-4.06-4.37-6.79-5.36-4.55-1.66-16.04,2.33-15.71-6.02.16-4.06,5.92-11.43,7.99-15.33,6.06-11.44,15.94-19.97,28.79-22.62,7.1-1.46,14.62-1.06,21.42,1.51Z"/>
                <path class="cls-9" d="M119.65,61.23c4.48,0,4.49-6.96,0-6.96s-4.49,6.96,0,6.96h0Z"/>
                <path class="cls-1" d="M104.86,69.01c2.07,0,2.07-3.21,0-3.21s-2.07,3.21,0,3.21h0Z"/>
                <path class="cls-1" d="M69.15,58.19c.03-.17.05-.33.08-.5.07-.42-.23-.73-.66-.66-.17.03-.33.05-.5.08-1.95.32.76,3.02,1.08,1.08h0Z"/>
                <path class="cls-9" d="M78.64,41.85c-.24-.15.9.74,1.1.87,1.75,1.15,4.91.11,5.24-2.13.38-2.62-.45-5.24-3.3-5.95-4.36-1.08-6.84,4.8-3.04,7.2h0Z"/>
                <path class="cls-1" d="M100.35,49.68c2.04,0,2.04-3.16,0-3.16s-2.04,3.16,0,3.16h0Z"/>
                <path class="cls-7" d="M141.48,19.24c4.55-1.09,9.4.2,13.45,2.54,4.05,2.34,7.43,5.65,10.76,8.93,5.33,5.24,10.66,10.48,15.99,15.72,13.32,13.1,27.17,27.06,32.15,45.06,4,14.43,1.57,30.51-6.51,43.12-1.35,2.11-3.13,4.3-5.61,4.63-2.46.33-4.75-1.29-6.46-3.09-6.49-6.87-8.41-17.09-14.82-24.03-7.03-7.61-18.42-10.16-25.08-18.1-8.3-9.9-6.59-24.46-9.71-37-2.62-10.53-9.04-20.06-17.79-26.47-2.88-2.1-6.02-3.9-8.46-6.5-2.44-2.6-4.12-6.27-3.22-9.72,2.39-9.18,12.6.63,16.38,2.58,3.47,1.79,5.13,3.24,8.93,2.32Z"/>
                <path class="cls-7" d="M46.37,136.16c4.75,5.51,3.82,13.7,3.22,20.95-.6,7.25.15,15.95,6.45,19.59,3.86,2.23,8.63,1.79,13.02,2.58,5.62,1.02,10.64,4.1,16.09,5.82,13.1,4.14,27.73.22,40.8,4.45,6.15,1.99,11.8,5.75,18.23,6.39,8.24.82,16.38-3.86,21.26-10.54,4.88-6.69,6.9-15.09,7.44-23.35.42-6.38-.23-13.44-4.7-18.01-3.42-3.5-8.43-4.88-12.44-7.68-7.97-5.59-11.39-16.4-19.96-21.01-5.99-3.22-13.33-2.74-19.62-5.32-5.64-2.32-10.1-6.96-15.75-9.25-8.91-3.62-19.27-.75-27.48,4.28-8.2,5.03-14.98,12.05-22.76,17.72-2.14,5.34-2.75,7.74-3.81,13.39Z"/>
                <path class="cls-7" d="M21.48,104.19c-1.64,3.26-2.3,7.69.38,10.17,2.73,2.52,7.11,1.44,10.54-.01,4.73-2,9.35-4.44,13.15-7.88,3.81-3.45,6.78-7.99,7.64-13.05.48-2.82.17-6.03-1.86-8.04-7.8-7.71-26.65,12.47-29.84,18.82Z"/>
                <path class="cls-7" d="M182.53,186.85c-.13.79-.25,1.65.14,2.34.53.93,1.82,1.18,2.83.84,1.01-.33,1.82-1.1,2.58-1.84,3.59-3.5,7.18-7,10.77-10.5,4.35-4.24,8.74-8.52,12.08-13.59,1.73-2.61,3.19-5.93,1.9-8.78-1.17-2.59-4.19-3.79-7-4.15-21.25-2.74-20.95,21.55-23.3,35.68Z"/>
                <path class="cls-9" d="M170.17,59.38c8.17,0,8.19-12.7,0-12.7s-8.19,12.7,0,12.7h0Z"/>
                <path class="cls-9" d="M120.3,161.46c0,.14.02.27.03.41.13,1.95,1.47,3.3,3.43,3.43l.41.03c3.45.23,4.99-4.35,2.74-6.6-2.26-2.26-6.83-.7-6.6,2.74h0Z"/>
                <path class="cls-9" d="M64.93,146.54c.39-.15.78-.29,1.17-.44,4.43-1.68,8.14-3.94,10.61-8.16,2.23-3.81,3.17-9.41,1.79-13.68-3.02-9.33-12.18-14.82-21.84-12.4-.4.1-.8.2-1.21.3-9.05,2.27-15.37,12.92-12.45,21.93,2.75,8.49,12.59,15.99,21.93,12.45h0Z"/>
                <path class="cls-9" d="M45.31,98.68c6.95,0,6.96-10.8,0-10.8s-6.96,10.8,0,10.8h0Z"/>
                <path class="cls-9" d="M196.05,171.12c7.14,0,7.15-11.1,0-11.1s-7.15,11.1,0,11.1h0Z"/>
                <path class="cls-9" d="M117.58,216.69c7.37,0,14.44-6.48,14.09-14.09-.34-7.64-6.19-14.09-14.09-14.09-7.37,0-14.44,6.48-14.09,14.09.34,7.64,6.19,14.09,14.09,14.09h0Z"/>
                <path class="cls-9" d="M85.56,189.59c5.54,0,5.55-8.61,0-8.61s-5.55,8.61,0,8.61h0Z"/>
                <path class="cls-9" d="M36.58,174.56c7.3,0,14.3-6.42,13.97-13.97-.34-7.57-6.14-13.97-13.97-13.97-7.31,0-14.3,6.42-13.97,13.97.34,7.57,6.14,13.97,13.97,13.97h0Z"/>
                <path class="cls-9" d="M24.36,140.75c11.93,0,11.95-18.54,0-18.54s-11.95,18.54,0,18.54h0Z"/>
                <path class="cls-9" d="M62.97,163.77c6.67,0,6.68-10.37,0-10.37s-6.68,10.37,0,10.37h0Z"/>
                <path class="cls-9" d="M45.72,54.53c1.41,0,1.41-2.19,0-2.19s-1.41,2.19,0,2.19h0Z"/>
                <path class="cls-9" d="M70.77,28.69c.4,0,.4-.62,0-.62s-.4.62,0,.62h0Z"/>
                <path class="cls-9" d="M54.76,67.51c9.11,0,9.13-14.16,0-14.16s-9.13,14.16,0,14.16h0Z"/>
                <path class="cls-9" d="M129.09,18.22c-.06-.03-.12-.07-.19-.1-7.14-3.81-16.87,2.54-14.25,10.95.02.07.04.13.06.2,2.05,6.55,9.83,9.36,15.36,5.08,5.22-4.03,5.16-12.85-.99-16.13h0Z"/>
                <path class="cls-9" d="M128.69,95.66c10.99,0,11.01-17.08,0-17.08s-11.01,17.08,0,17.08h0Z"/>
                <path class="cls-9" d="M83.92,99.57c5.45,0,5.46-8.47,0-8.47s-5.46,8.47,0,8.47h0Z"/>
                <path class="cls-9" d="M119.24,120.66c1.41,0,1.41-2.19,0-2.19s-1.41,2.19,0,2.19h0Z"/>
                <path class="cls-9" d="M116.07,134.74c-.05-.35-.1-.69-.15-1.04-.61-4.21-5.95-6.53-9.69-5.5-4.13,1.13-6.61,5.57-5.5,9.69.09.34.18.67.27,1.01,1.1,4.07,5.55,6.57,9.61,5.46,4.48-1.23,6.06-5.42,5.46-9.61h0Z"/>
                <path class="cls-9" d="M174.69,162.51c10.33,0,10.35-16.06,0-16.06s-10.35,16.06,0,16.06h0Z"/>
                <path class="cls-9" d="M183.31,123.56c6.2,0,6.21-9.64,0-9.64s-6.21,9.64,0,9.64h0Z"/>
                <path class="cls-9" d="M165.64,109.26c6.2,0,6.21-9.64,0-9.64s-6.21,9.64,0,9.64h0Z"/>
                <path class="cls-9" d="M161.55,32.72c11.93,0,11.95-18.54,0-18.54s-11.95,18.54,0,18.54h0Z"/>
                <path class="cls-4" d="M48.39,29.78c-10.45,9.22-18.24,22.51-17.48,36.42,1.1,20.11,19.06,35.18,37.31,43.68,18.26,8.49,38.61,13.31,54.37,25.84,18.29,14.53,28.1,39.03,24.9,62.17-.48,3.44-.78,7.82,2.27,9.47,1.77.95,3.94.48,5.86-.12,22.66-7.09,39.73-29.28,40.77-53.01,1.04-23.72-14.01-47.33-35.97-56.38-11.01-4.54-23.12-5.6-34.55-8.94-11.43-3.34-23.01-9.86-27.43-20.92-3.81-9.52-1.55-20.2-.65-30.41,3.45-39.2-30.5-24.47-49.41-7.79Z"/>
              </g>
              <g class="cls-3">
                <path class="cls-2" d="M181.09,31.33c14.47,18.11,23.19,41.02,23.19,65.96,0,58.4-47.51,105.9-105.9,105.9-24.94,0-47.85-8.72-65.96-23.19,19.42,24.3,49.25,39.94,82.71,39.94,58.4,0,105.9-47.51,105.9-105.9,0-33.46-15.64-63.29-39.94-82.71Z"/>
              </g>
            </g>
            <g>
              <rect class="cls-6" x="3" y="1.91" width="224.26" height="224.26"/>
              <g>
                <circle class="cls-1" cx="115.13" cy="114.05" r="112.13" transform="translate(-15.45 210.01) rotate(-81.04)"/>
                <path class="cls-7" d="M112.58,31.31c5.93,2.24,11.39,6.04,14.9,11.32,5.17,7.76,6.35,23.68-1.79,29.89-4.21,3.22-9.78,4.15-14.41,6.39-5.2,2.51-10.52,4.67-16.32,5.25-6.4.63-13.21-.81-18.09-5.01-2.2-1.9-4.06-4.37-6.79-5.36-4.55-1.66-16.04,2.33-15.71-6.02.16-4.06,5.92-11.43,7.99-15.33,6.06-11.44,15.94-19.97,28.79-22.62,7.1-1.46,14.62-1.06,21.42,1.51Z"/>
                <path class="cls-9" d="M119.65,61.23c4.48,0,4.49-6.96,0-6.96s-4.49,6.96,0,6.96h0Z"/>
                <path class="cls-1" d="M104.86,69.01c2.07,0,2.07-3.21,0-3.21s-2.07,3.21,0,3.21h0Z"/>
                <path class="cls-1" d="M69.15,58.19c.03-.17.05-.33.08-.5.07-.42-.23-.73-.66-.66-.17.03-.33.05-.5.08-1.95.32.76,3.02,1.08,1.08h0Z"/>
                <path class="cls-9" d="M78.64,41.85c-.24-.15.9.74,1.1.87,1.75,1.15,4.91.11,5.24-2.13.38-2.62-.45-5.24-3.3-5.95-4.36-1.08-6.84,4.8-3.04,7.2h0Z"/>
                <path class="cls-1" d="M100.35,49.68c2.04,0,2.04-3.16,0-3.16s-2.04,3.16,0,3.16h0Z"/>
                <path class="cls-7" d="M141.48,19.24c4.55-1.09,9.4.2,13.45,2.54,4.05,2.34,7.43,5.65,10.76,8.93,5.33,5.24,10.66,10.48,15.99,15.72,13.32,13.1,27.17,27.06,32.15,45.06,4,14.43,1.57,30.51-6.51,43.12-1.35,2.11-3.13,4.3-5.61,4.63-2.46.33-4.75-1.29-6.46-3.09-6.49-6.87-8.41-17.09-14.82-24.03-7.03-7.61-18.42-10.16-25.08-18.1-8.3-9.9-6.59-24.46-9.71-37-2.62-10.53-9.04-20.06-17.79-26.47-2.88-2.1-6.02-3.9-8.46-6.5-2.44-2.6-4.12-6.27-3.22-9.72,2.39-9.18,12.6.63,16.38,2.58,3.47,1.79,5.13,3.24,8.93,2.32Z"/>
                <path class="cls-7" d="M46.37,136.16c4.75,5.51,3.82,13.7,3.22,20.95-.6,7.25.15,15.95,6.45,19.59,3.86,2.23,8.63,1.79,13.02,2.58,5.62,1.02,10.64,4.1,16.09,5.82,13.1,4.14,27.73.22,40.8,4.45,6.15,1.99,11.8,5.75,18.23,6.39,8.24.82,16.38-3.86,21.26-10.54,4.88-6.69,6.9-15.09,7.44-23.35.42-6.38-.23-13.44-4.7-18.01-3.42-3.5-8.43-4.88-12.44-7.68-7.97-5.59-11.39-16.4-19.96-21.01-5.99-3.22-13.33-2.74-19.62-5.32-5.64-2.32-10.1-6.96-15.75-9.25-8.91-3.62-19.27-.75-27.48,4.28-8.2,5.03-14.98,12.05-22.76,17.72-2.14,5.34-2.75,7.74-3.81,13.39Z"/>
                <path class="cls-7" d="M21.48,104.19c-1.64,3.26-2.3,7.69.38,10.17,2.73,2.52,7.11,1.44,10.54-.01,4.73-2,9.35-4.44,13.15-7.88,3.81-3.45,6.78-7.99,7.64-13.05.48-2.82.17-6.03-1.86-8.04-7.8-7.71-26.65,12.47-29.84,18.82Z"/>
                <path class="cls-7" d="M182.53,186.85c-.13.79-.25,1.65.14,2.34.53.93,1.82,1.18,2.83.84,1.01-.33,1.82-1.1,2.58-1.84,3.59-3.5,7.18-7,10.77-10.5,4.35-4.24,8.74-8.52,12.08-13.59,1.73-2.61,3.19-5.93,1.9-8.78-1.17-2.59-4.19-3.79-7-4.15-21.25-2.74-20.95,21.55-23.3,35.68Z"/>
                <path class="cls-9" d="M170.17,59.38c8.17,0,8.19-12.7,0-12.7s-8.19,12.7,0,12.7h0Z"/>
                <path class="cls-9" d="M120.3,161.46c0,.14.02.27.03.41.13,1.95,1.47,3.3,3.43,3.43l.41.03c3.45.23,4.99-4.35,2.74-6.6-2.26-2.26-6.83-.7-6.6,2.74h0Z"/>
                <path class="cls-9" d="M64.93,146.54c.39-.15.78-.29,1.17-.44,4.43-1.68,8.14-3.94,10.61-8.16,2.23-3.81,3.17-9.41,1.79-13.68-3.02-9.33-12.18-14.82-21.84-12.4-.4.1-.8.2-1.21.3-9.05,2.27-15.37,12.92-12.45,21.93,2.75,8.49,12.59,15.99,21.93,12.45h0Z"/>
                <path class="cls-9" d="M45.31,98.68c6.95,0,6.96-10.8,0-10.8s-6.96,10.8,0,10.8h0Z"/>
                <path class="cls-9" d="M196.05,171.12c7.14,0,7.15-11.1,0-11.1s-7.15,11.1,0,11.1h0Z"/>
                <path class="cls-9" d="M117.58,216.69c7.37,0,14.44-6.48,14.09-14.09-.34-7.64-6.19-14.09-14.09-14.09-7.37,0-14.44,6.48-14.09,14.09.34,7.64,6.19,14.09,14.09,14.09h0Z"/>
                <path class="cls-9" d="M85.56,189.59c5.54,0,5.55-8.61,0-8.61s-5.55,8.61,0,8.61h0Z"/>
                <path class="cls-9" d="M36.58,174.56c7.3,0,14.3-6.42,13.97-13.97-.34-7.57-6.14-13.97-13.97-13.97-7.31,0-14.3,6.42-13.97,13.97.34,7.57,6.14,13.97,13.97,13.97h0Z"/>
                <path class="cls-9" d="M24.36,140.75c11.93,0,11.95-18.54,0-18.54s-11.95,18.54,0,18.54h0Z"/>
                <path class="cls-9" d="M62.97,163.77c6.67,0,6.68-10.37,0-10.37s-6.68,10.37,0,10.37h0Z"/>
                <path class="cls-9" d="M45.72,54.53c1.41,0,1.41-2.19,0-2.19s-1.41,2.19,0,2.19h0Z"/>
                <path class="cls-9" d="M70.77,28.69c.4,0,.4-.62,0-.62s-.4.62,0,.62h0Z"/>
                <path class="cls-9" d="M54.76,67.51c9.11,0,9.13-14.16,0-14.16s-9.13,14.16,0,14.16h0Z"/>
                <path class="cls-9" d="M129.09,18.22c-.06-.03-.12-.07-.19-.1-7.14-3.81-16.87,2.54-14.25,10.95.02.07.04.13.06.2,2.05,6.55,9.83,9.36,15.36,5.08,5.22-4.03,5.16-12.85-.99-16.13h0Z"/>
                <path class="cls-9" d="M128.69,95.66c10.99,0,11.01-17.08,0-17.08s-11.01,17.08,0,17.08h0Z"/>
                <path class="cls-9" d="M83.92,99.57c5.45,0,5.46-8.47,0-8.47s-5.46,8.47,0,8.47h0Z"/>
                <path class="cls-9" d="M119.24,120.66c1.41,0,1.41-2.19,0-2.19s-1.41,2.19,0,2.19h0Z"/>
                <path class="cls-9" d="M116.07,134.74c-.05-.35-.1-.69-.15-1.04-.61-4.21-5.95-6.53-9.69-5.5-4.13,1.13-6.61,5.57-5.5,9.69.09.34.18.67.27,1.01,1.1,4.07,5.55,6.57,9.61,5.46,4.48-1.23,6.06-5.42,5.46-9.61h0Z"/>
                <path class="cls-9" d="M174.69,162.51c10.33,0,10.35-16.06,0-16.06s-10.35,16.06,0,16.06h0Z"/>
                <path class="cls-9" d="M183.31,123.56c6.2,0,6.21-9.64,0-9.64s-6.21,9.64,0,9.64h0Z"/>
                <path class="cls-9" d="M165.64,109.26c6.2,0,6.21-9.64,0-9.64s-6.21,9.64,0,9.64h0Z"/>
                <path class="cls-9" d="M161.55,32.72c11.93,0,11.95-18.54,0-18.54s-11.95,18.54,0,18.54h0Z"/>
                <path class="cls-4" d="M48.39,29.78c-10.45,9.22-18.24,22.51-17.48,36.42,1.1,20.11,19.06,35.18,37.31,43.68,18.26,8.49,38.61,13.31,54.37,25.84,18.29,14.53,28.1,39.03,24.9,62.17-.48,3.44-.78,7.82,2.27,9.47,1.77.95,3.94.48,5.86-.12,22.66-7.09,39.73-29.28,40.77-53.01,1.04-23.72-14.01-47.33-35.97-56.38-11.01-4.54-23.12-5.6-34.55-8.94-11.43-3.34-23.01-9.86-27.43-20.92-3.81-9.52-1.55-20.2-.65-30.41,3.45-39.2-30.5-24.47-49.41-7.79Z"/>
              </g>
              <g class="cls-3">
                <path class="cls-2" d="M181.09,31.33c14.47,18.11,23.19,41.02,23.19,65.96,0,58.4-47.51,105.9-105.9,105.9-24.94,0-47.85-8.72-65.96-23.19,19.42,24.3,49.25,39.94,82.71,39.94,58.4,0,105.9-47.51,105.9-105.9,0-33.46-15.64-63.29-39.94-82.71Z"/>
              </g>
            </g>
          </g>
          <path d="M139.55,143.3c1.17-1.2,2.58-.1,2.53,1.56-.17,5.72-7.92,8.03-12.61,7.98.08,6.94-1.06,16.68-8.69,19.25-3.77,1.27-9.83,1.16-13.41-.69-6.26-3.23-6.73-12.37-7.17-18.55-4.52-.24-12.09-1.93-12.23-7.6-.03-1.19.1-2.46,1.63-2.37,1.15.29,1.46,4.1,4.77,5.26,1.98.7,6.35.9,8.62,1.01,7.45.34,16.65.34,24.1,0,2.28-.1,6.91-.32,8.84-1.16,3.01-1.31,2.57-3.58,3.64-4.68ZM113.54,152.83h-10.37c.44,8.47,1.55,17.15,12.04,17.05,9.86-.09,10.67-8.32,11.59-16.21l-.48-.83h-9.81v6.1c0,.21-.67,1.13-.99,1.24-.5.26-1.98-.02-1.98-.5v-6.84Z"/>
          <path d="M77.53,107.04c14.49-2.46,16.46,18,3.89,19.79-13.49,1.92-15.38-17.85-3.89-19.79Z"/>
          <path d="M148.27,107.05c14.08-2.07,15.83,18.55,2.83,19.84-12.97,1.28-15.01-18.05-2.83-19.84Z"/>
          <path class="cls-5" d="M113.54,152.83v6.84c0,.48,1.48.76,1.98.5.32-.11.99-1.04.99-1.24v-6.1h9.81l.48.83c-.92,7.89-1.73,16.12-11.59,16.21-10.49.1-11.6-8.58-12.04-17.05h10.37Z"/>
        </g>
      </g>
    </g>
  </g>
</svg>