<?xml version="1.0" encoding="UTF-8"?>
<svg xmlns="http://www.w3.org/2000/svg" xmlns:xlink="http://www.w3.org/1999/xlink" viewBox="0 0 230 229.63">
  <defs>
    <style>
      .cls-1 {
        clip-path: url(#clippath-6);
      }

      .cls-2 {
        clip-path: url(#clippath-7);
      }

      .cls-3 {
        clip-path: url(#clippath-4);
      }

      .cls-4 {
        mix-blend-mode: multiply;
      }

      .cls-4, .cls-5, .cls-6 {
        fill: #1d4380;
      }

      .cls-4, .cls-6 {
        opacity: .47;
      }

      .cls-7 {
        fill: #10172e;
        opacity: .56;
      }

      .cls-8 {
        fill: #fff;
      }

      .cls-9 {
        opacity: .4;
      }

      .cls-10 {
        fill: none;
      }

      .cls-11 {
        clip-path: url(#clippath-1);
      }

      .cls-12 {
        isolation: isolate;
      }

      .cls-13 {
        clip-path: url(#clippath-5);
      }

      .cls-14 {
        clip-path: url(#clippath-8);
      }

      .cls-15 {
        clip-path: url(#clippath-3);
      }

      .cls-16, .cls-17 {
        fill: #2080aa;
      }

      .cls-18 {
        fill: #0a5ea1;
      }

      .cls-19 {
        clip-path: url(#clippath-2);
      }

      .cls-17 {
        mix-blend-mode: screen;
        opacity: .43;
      }

      .cls-20 {
        clip-path: url(#clippath);
      }

      .cls-5 {
        opacity: .39;
      }
    </style>
    <clipPath id="clippath">
      <path class="cls-10" d="M109.41,6.92c81.85-4.3,138.75,81.29,102.77,155.35-35.38,72.83-136.29,82.02-184.3,16.67C-23.08,109.57,23.97,11.41,109.41,6.92ZM79.05,106.87c-13.1,1.03-11.95,21.92,2.82,19.87,11.54-1.6,10.16-20.89-2.82-19.87ZM149.4,106.87c-13.45,1.06-12.07,21.92,2.82,19.87,2.95-.41,6.19-3.39,7.17-6.16,2.43-6.86-2.58-14.29-9.99-13.71ZM133.09,149.09l-36.21.07c-.37.45-.61.94-.7,1.52-1.04,6.71,2.32,23.31,5.97,29.16,4.99,8.02,18.98,8.5,24.73,1.17,4.21-5.37,6.85-19.81,7.06-26.63.04-1.38.17-4.32-.85-5.29Z"/>
    </clipPath>
    <clipPath id="clippath-1">
      <rect class="cls-10" x="-65.08" y="-19.71" width="383.95" height="284.59"/>
    </clipPath>
    <clipPath id="clippath-2">
      <circle class="cls-10" cx="115.39" cy="117.95" r="110.97" transform="translate(-19.27 213.31) rotate(-80.93)"/>
    </clipPath>
    <clipPath id="clippath-3">
      <rect class="cls-10" x="-65.08" y="-19.71" width="383.95" height="284.59"/>
    </clipPath>
    <clipPath id="clippath-4">
      <circle class="cls-10" cx="115.39" cy="117.95" r="110.97" transform="translate(-19.27 213.31) rotate(-80.93)"/>
    </clipPath>
    <clipPath id="clippath-5">
      <rect class="cls-10" x="-65.08" y="-19.71" width="383.95" height="284.59"/>
    </clipPath>
    <clipPath id="clippath-6">
      <circle class="cls-10" cx="115.39" cy="117.95" r="110.97" transform="translate(-19.27 213.31) rotate(-80.93)"/>
    </clipPath>
    <clipPath id="clippath-7">
      <rect class="cls-10" x="-65.08" y="-19.71" width="383.95" height="284.59"/>
    </clipPath>
    <clipPath id="clippath-8">
      <circle class="cls-10" cx="115.39" cy="117.95" r="110.97" transform="translate(-19.27 213.31) rotate(-80.93)"/>
    </clipPath>
  </defs>
  <g class="cls-12">
    <g id="Layer_2" data-name="Layer 2">
      <g id="neptune">
        <g>
          <path class="cls-8" d="M106.62.23C30.05,4.81-19.74,84.54,7.56,156.09c31.74,83.19,143.65,99.84,198.14,29.12C266.56,106.23,205.51-5.69,106.62.23Z"/>
          <path d="M106.62.23c98.9-5.92,159.94,106,99.08,184.98-54.49,70.72-166.41,54.07-198.14-29.12C-19.74,84.54,30.05,4.81,106.62.23ZM109.21,6.89C23.77,11.38-23.27,109.55,27.68,178.91c48.01,65.35,148.91,56.16,184.3-16.67C247.96,88.18,191.06,2.59,109.21,6.89Z"/>
          <g class="cls-20">
            <g class="cls-11">
              <g>
                <circle class="cls-18" cx="115.39" cy="117.95" r="110.97" transform="translate(-19.27 213.31) rotate(-80.93)"/>
                <circle class="cls-18" cx="115.39" cy="117.95" r="110.97" transform="translate(-19.27 213.31) rotate(-80.93)"/>
                <g class="cls-19">
                  <path class="cls-6" d="M185.55,153.63c14,2.33,27.14,7.02,37.23,16.76,6.78,6.56,11.72,15.42,12.02,24.85.3,9.43-4.66,19.23-13.21,23.23-11.68,5.46-29.47-3.94-41.18-6.76-16.09-3.87-31.45-7.7-48.12-8.46-31.04-1.41-62.47,4.65-90.56,18.01-8.4,3.99-17.57,8.74-26.53,6.25C5.7,224.88-.01,214.54-.47,204.68c-1.06-23.13,11.39-33.3,31.46-40.65,38.82-14.22,81.27-13.67,122.61-12.79,10.5.23,21.47.64,31.95,2.39Z"/>
                  <path class="cls-6" d="M238.36,146.35c21.89,5.7,42.08,13.54,56.63,25.62,9.79,8.13,16.29,18.09,15.35,27.49-.95,9.39-10.32,17.88-24.51,19.75-19.39,2.55-46.24-11.06-64.42-16.69-24.99-7.74-48.82-15.26-75.2-20.06-49.13-8.95-100-10.59-146.67-4.22-13.95,1.9-29.24,4.37-43.11-.27-14.72-4.92-22.23-16.53-21.46-26.38,1.81-23.12,23.14-30.14,56.15-32.53,63.85-4.62,131.24,6.25,196.8,17.18,16.66,2.78,34.02,5.86,50.43,10.13Z"/>
                  <path class="cls-16" d="M246.81,22.16c21.89,5.7,42.08,13.54,56.63,25.62,9.79,8.13,16.29,18.09,15.35,27.49-.95,9.39-10.32,17.88-24.51,19.75-19.39,2.55-46.24-11.06-64.42-16.69-24.99-7.74-48.82-15.26-75.2-20.06-49.13-8.95-100-10.6-146.67-4.22-13.95,1.9-29.24,4.37-43.11-.27-14.72-4.92-22.23-16.53-21.46-26.38C-54.77,4.26-33.43-2.76-.42-5.15,63.43-9.77,130.82,1.1,196.38,12.03c16.66,2.78,34.02,5.86,50.43,10.13Z"/>
                  <path class="cls-17" d="M242.32,8.69c21.89,5.7,42.08,13.54,56.63,25.62,9.79,8.13,16.29,18.09,15.35,27.49-.95,9.39-10.32,17.88-24.51,19.75-19.39,2.55-46.24-11.06-64.42-16.69-24.99-7.74-48.82-15.26-75.2-20.06-49.13-8.95-100-10.6-146.67-4.22-13.95,1.9-29.24,4.37-43.11-.27-14.72-4.92-22.23-16.53-21.46-26.38,1.81-23.12,23.14-30.14,56.15-32.53C58.94-23.24,126.33-12.37,191.89-1.44c16.66,2.78,34.02,5.86,50.43,10.13Z"/>
                  <path class="cls-6" d="M239.46,191.71c21.89,5.7,42.08,13.54,56.63,25.62,9.79,8.13,16.29,18.09,15.35,27.49-.95,9.39-10.32,17.88-24.51,19.75-19.39,2.55-46.24-11.06-64.42-16.69-24.99-7.74-48.82-15.26-75.2-20.06-49.13-8.95-100-10.6-146.67-4.22-13.95,1.9-29.24,4.36-43.11-.27-14.72-4.92-22.23-16.53-21.46-26.38,1.81-23.12,23.14-30.14,56.15-32.53,63.85-4.62,131.24,6.25,196.8,17.18,16.66,2.78,34.02,5.86,50.43,10.13Z"/>
                  <path class="cls-4" d="M243.56,161.91c21.89,5.7,42.08,13.54,56.63,25.62,9.79,8.13,16.29,18.09,15.35,27.49-.95,9.39-10.32,17.88-24.51,19.75-19.39,2.55-46.24-11.06-64.42-16.69-24.99-7.74-48.82-15.26-75.2-20.06-49.13-8.95-100-10.59-146.67-4.22-13.95,1.9-29.24,4.37-43.11-.27-14.72-4.92-22.23-16.53-21.46-26.38,1.81-23.12,23.14-30.14,56.15-32.53,63.85-4.62,131.24,6.25,196.8,17.18,16.66,2.78,34.02,5.86,50.43,10.13Z"/>
                </g>
                <g class="cls-9">
                  <path class="cls-7" d="M181.7,31.08c14.09,18.41,22.48,41.39,22.48,66.31,0,60.3-49.06,109.35-109.35,109.35-24.92,0-47.9-8.39-66.31-22.48,20,26.14,51.49,43.04,86.87,43.04,60.3,0,109.35-49.06,109.35-109.35,0-35.38-16.9-66.87-43.04-86.87Z"/>
                </g>
              </g>
              <path class="cls-17" d="M141.72,95.94c-.33,11.21,10.39,19.3,19.07,24.27-.11-.06-4.61.38-5.35.29-2.18-.26-4.3-.53-6.44-1.07-4.73-1.2-9.23-3.14-13.73-4.98-8.69-3.56-18.66-6.66-27.21-2.79,13.87.44,26.74,6.82,39.54,12.18,8.13,3.41,16.61,6.45,25.43,7.36,4.25.44,8.52.29,12.74-.36,3.85-.59,8.16-2.47,12.04-2.47-10.2,1.28-20.79-.82-29.73-5.89-7.04-3.99-13.02-9.8-17.26-16.69-2.13-3.46-3.8-6.96-3.45-11.14.13-1.61,2.56-10.59,4.59-10.65-5.85.19-10.08,6.4-10.24,11.94Z"/>
              <path class="cls-5" d="M184.43,120.6c-7.95-2.15-15.63-6.04-21.01-12.27-2.09-2.42-3.83-5.22-4.47-8.35-.65-3.12-.07-6.6,2-9.02,3.32-3.87,9.17-4.03,14.26-3.71,6.93.44,13.92,1.24,20.43,3.66,6.51,2.42,12.56,6.62,16.07,12.6,13.09,22.28-13.96,20.69-27.28,17.08Z"/>
              <path class="cls-17" d="M191.36,84.39c-7.8-.03-15.6-.39-23.38-1.08,3.22-2.15,7.84-2.35,11.6-2.15,2.08.12,4.16.45,6.17,1.01,1.59.44,4.11,2.21,5.61,2.22Z"/>
            </g>
            <g class="cls-15">
              <g>
                <circle class="cls-18" cx="115.39" cy="117.95" r="110.97" transform="translate(-19.27 213.31) rotate(-80.93)"/>
                <circle class="cls-18" cx="115.39" cy="117.95" r="110.97" transform="translate(-19.27 213.31) rotate(-80.93)"/>
                <g class="cls-3">
                  <path class="cls-6" d="M185.55,153.63c14,2.33,27.14,7.02,37.23,16.76,6.78,6.56,11.72,15.42,12.02,24.85.3,9.43-4.66,19.23-13.21,23.23-11.68,5.46-29.47-3.94-41.18-6.76-16.09-3.87-31.45-7.7-48.12-8.46-31.04-1.41-62.47,4.65-90.56,18.01-8.4,3.99-17.57,8.74-26.53,6.25C5.7,224.88-.01,214.54-.47,204.68c-1.06-23.13,11.39-33.3,31.46-40.65,38.82-14.22,81.27-13.67,122.61-12.79,10.5.23,21.47.64,31.95,2.39Z"/>
                  <path class="cls-6" d="M238.36,146.35c21.89,5.7,42.08,13.54,56.63,25.62,9.79,8.13,16.29,18.09,15.35,27.49-.95,9.39-10.32,17.88-24.51,19.75-19.39,2.55-46.24-11.06-64.42-16.69-24.99-7.74-48.82-15.26-75.2-20.06-49.13-8.95-100-10.59-146.67-4.22-13.95,1.9-29.24,4.37-43.11-.27-14.72-4.92-22.23-16.53-21.46-26.38,1.81-23.12,23.14-30.14,56.15-32.53,63.85-4.62,131.24,6.25,196.8,17.18,16.66,2.78,34.02,5.86,50.43,10.13Z"/>
                  <path class="cls-16" d="M246.81,22.16c21.89,5.7,42.08,13.54,56.63,25.62,9.79,8.13,16.29,18.09,15.35,27.49-.95,9.39-10.32,17.88-24.51,19.75-19.39,2.55-46.24-11.06-64.42-16.69-24.99-7.74-48.82-15.26-75.2-20.06-49.13-8.95-100-10.6-146.67-4.22-13.95,1.9-29.24,4.37-43.11-.27-14.72-4.92-22.23-16.53-21.46-26.38C-54.77,4.26-33.43-2.76-.42-5.15,63.43-9.77,130.82,1.1,196.38,12.03c16.66,2.78,34.02,5.86,50.43,10.13Z"/>
                  <path class="cls-17" d="M242.32,8.69c21.89,5.7,42.08,13.54,56.63,25.62,9.79,8.13,16.29,18.09,15.35,27.49-.95,9.39-10.32,17.88-24.51,19.75-19.39,2.55-46.24-11.06-64.42-16.69-24.99-7.74-48.82-15.26-75.2-20.06-49.13-8.95-100-10.6-146.67-4.22-13.95,1.9-29.24,4.37-43.11-.27-14.72-4.92-22.23-16.53-21.46-26.38,1.81-23.12,23.14-30.14,56.15-32.53C58.94-23.24,126.33-12.37,191.89-1.44c16.66,2.78,34.02,5.86,50.43,10.13Z"/>
                  <path class="cls-6" d="M239.46,191.71c21.89,5.7,42.08,13.54,56.63,25.62,9.79,8.13,16.29,18.09,15.35,27.49-.95,9.39-10.32,17.88-24.51,19.75-19.39,2.55-46.24-11.06-64.42-16.69-24.99-7.74-48.82-15.26-75.2-20.06-49.13-8.95-100-10.6-146.67-4.22-13.95,1.9-29.24,4.36-43.11-.27-14.72-4.92-22.23-16.53-21.46-26.38,1.81-23.12,23.14-30.14,56.15-32.53,63.85-4.62,131.24,6.25,196.8,17.18,16.66,2.78,34.02,5.86,50.43,10.13Z"/>
                  <path class="cls-4" d="M243.56,161.91c21.89,5.7,42.08,13.54,56.63,25.62,9.79,8.13,16.29,18.09,15.35,27.49-.95,9.39-10.32,17.88-24.51,19.75-19.39,2.55-46.24-11.06-64.42-16.69-24.99-7.74-48.82-15.26-75.2-20.06-49.13-8.95-100-10.59-146.67-4.22-13.95,1.9-29.24,4.37-43.11-.27-14.72-4.92-22.23-16.53-21.46-26.38,1.81-23.12,23.14-30.14,56.15-32.53,63.85-4.62,131.24,6.25,196.8,17.18,16.66,2.78,34.02,5.86,50.43,10.13Z"/>
                </g>
                <g class="cls-9">
                  <path class="cls-7" d="M181.7,31.08c14.09,18.41,22.48,41.39,22.48,66.31,0,60.3-49.06,109.35-109.35,109.35-24.92,0-47.9-8.39-66.31-22.48,20,26.14,51.49,43.04,86.87,43.04,60.3,0,109.35-49.06,109.35-109.35,0-35.38-16.9-66.87-43.04-86.87Z"/>
                </g>
              </g>
              <path class="cls-17" d="M141.72,95.94c-.33,11.21,10.39,19.3,19.07,24.27-.11-.06-4.61.38-5.35.29-2.18-.26-4.3-.53-6.44-1.07-4.73-1.2-9.23-3.14-13.73-4.98-8.69-3.56-18.66-6.66-27.21-2.79,13.87.44,26.74,6.82,39.54,12.18,8.13,3.41,16.61,6.45,25.43,7.36,4.25.44,8.52.29,12.74-.36,3.85-.59,8.16-2.47,12.04-2.47-10.2,1.28-20.79-.82-29.73-5.89-7.04-3.99-13.02-9.8-17.26-16.69-2.13-3.46-3.8-6.96-3.45-11.14.13-1.61,2.56-10.59,4.59-10.65-5.85.19-10.08,6.4-10.24,11.94Z"/>
              <path class="cls-5" d="M184.43,120.6c-7.95-2.15-15.63-6.04-21.01-12.27-2.09-2.42-3.83-5.22-4.47-8.35-.65-3.12-.07-6.6,2-9.02,3.32-3.87,9.17-4.03,14.26-3.71,6.93.44,13.92,1.24,20.43,3.66,6.51,2.42,12.56,6.62,16.07,12.6,13.09,22.28-13.96,20.69-27.28,17.08Z"/>
              <path class="cls-17" d="M191.36,84.39c-7.8-.03-15.6-.39-23.38-1.08,3.22-2.15,7.84-2.35,11.6-2.15,2.08.12,4.16.45,6.17,1.01,1.59.44,4.11,2.21,5.61,2.22Z"/>
            </g>
            <g class="cls-13">
              <g>
                <circle class="cls-18" cx="115.39" cy="117.95" r="110.97" transform="translate(-19.27 213.31) rotate(-80.93)"/>
                <circle class="cls-18" cx="115.39" cy="117.95" r="110.97" transform="translate(-19.27 213.31) rotate(-80.93)"/>
                <g class="cls-1">
                  <path class="cls-6" d="M185.55,153.63c14,2.33,27.14,7.02,37.23,16.76,6.78,6.56,11.72,15.42,12.02,24.85.3,9.43-4.66,19.23-13.21,23.23-11.68,5.46-29.47-3.94-41.18-6.76-16.09-3.87-31.45-7.7-48.12-8.46-31.04-1.41-62.47,4.65-90.56,18.01-8.4,3.99-17.57,8.74-26.53,6.25C5.7,224.88-.01,214.54-.47,204.68c-1.06-23.13,11.39-33.3,31.46-40.65,38.82-14.22,81.27-13.67,122.61-12.79,10.5.23,21.47.64,31.95,2.39Z"/>
                  <path class="cls-6" d="M238.36,146.35c21.89,5.7,42.08,13.54,56.63,25.62,9.79,8.13,16.29,18.09,15.35,27.49-.95,9.39-10.32,17.88-24.51,19.75-19.39,2.55-46.24-11.06-64.42-16.69-24.99-7.74-48.82-15.26-75.2-20.06-49.13-8.95-100-10.59-146.67-4.22-13.95,1.9-29.24,4.37-43.11-.27-14.72-4.92-22.23-16.53-21.46-26.38,1.81-23.12,23.14-30.14,56.15-32.53,63.85-4.62,131.24,6.25,196.8,17.18,16.66,2.78,34.02,5.86,50.43,10.13Z"/>
                  <path class="cls-16" d="M246.81,22.16c21.89,5.7,42.08,13.54,56.63,25.62,9.79,8.13,16.29,18.09,15.35,27.49-.95,9.39-10.32,17.88-24.51,19.75-19.39,2.55-46.24-11.06-64.42-16.69-24.99-7.74-48.82-15.26-75.2-20.06-49.13-8.95-100-10.6-146.67-4.22-13.95,1.9-29.24,4.37-43.11-.27-14.72-4.92-22.23-16.53-21.46-26.38C-54.77,4.26-33.43-2.76-.42-5.15,63.43-9.77,130.82,1.1,196.38,12.03c16.66,2.78,34.02,5.86,50.43,10.13Z"/>
                  <path class="cls-17" d="M242.32,8.69c21.89,5.7,42.08,13.54,56.63,25.62,9.79,8.13,16.29,18.09,15.35,27.49-.95,9.39-10.32,17.88-24.51,19.75-19.39,2.55-46.24-11.06-64.42-16.69-24.99-7.74-48.82-15.26-75.2-20.06-49.13-8.95-100-10.6-146.67-4.22-13.95,1.9-29.24,4.37-43.11-.27-14.72-4.92-22.23-16.53-21.46-26.38,1.81-23.12,23.14-30.14,56.15-32.53C58.94-23.24,126.33-12.37,191.89-1.44c16.66,2.78,34.02,5.86,50.43,10.13Z"/>
                  <path class="cls-6" d="M239.46,191.71c21.89,5.7,42.08,13.54,56.63,25.62,9.79,8.13,16.29,18.09,15.35,27.49-.95,9.39-10.32,17.88-24.51,19.75-19.39,2.55-46.24-11.06-64.42-16.69-24.99-7.74-48.82-15.26-75.2-20.06-49.13-8.95-100-10.6-146.67-4.22-13.95,1.9-29.24,4.36-43.11-.27-14.72-4.92-22.23-16.53-21.46-26.38,1.81-23.12,23.14-30.14,56.15-32.53,63.85-4.62,131.24,6.25,196.8,17.18,16.66,2.78,34.02,5.86,50.43,10.13Z"/>
                  <path class="cls-4" d="M243.56,161.91c21.89,5.7,42.08,13.54,56.63,25.62,9.79,8.13,16.29,18.09,15.35,27.49-.95,9.39-10.32,17.88-24.51,19.75-19.39,2.55-46.24-11.06-64.42-16.69-24.99-7.74-48.82-15.26-75.2-20.06-49.13-8.95-100-10.59-146.67-4.22-13.95,1.9-29.24,4.37-43.11-.27-14.72-4.92-22.23-16.53-21.46-26.38,1.81-23.12,23.14-30.14,56.15-32.53,63.85-4.62,131.24,6.25,196.8,17.18,16.66,2.78,34.02,5.86,50.43,10.13Z"/>
                </g>
                <g class="cls-9">
                  <path class="cls-7" d="M181.7,31.08c14.09,18.41,22.48,41.39,22.48,66.31,0,60.3-49.06,109.35-109.35,109.35-24.92,0-47.9-8.39-66.31-22.48,20,26.14,51.49,43.04,86.87,43.04,60.3,0,109.35-49.06,109.35-109.35,0-35.38-16.9-66.87-43.04-86.87Z"/>
                </g>
              </g>
              <path class="cls-17" d="M141.72,95.94c-.33,11.21,10.39,19.3,19.07,24.27-.11-.06-4.61.38-5.35.29-2.18-.26-4.3-.53-6.44-1.07-4.73-1.2-9.23-3.14-13.73-4.98-8.69-3.56-18.66-6.66-27.21-2.79,13.87.44,26.74,6.82,39.54,12.18,8.13,3.41,16.61,6.45,25.43,7.36,4.25.44,8.52.29,12.74-.36,3.85-.59,8.16-2.47,12.04-2.47-10.2,1.28-20.79-.82-29.73-5.89-7.04-3.99-13.02-9.8-17.26-16.69-2.13-3.46-3.8-6.96-3.45-11.14.13-1.61,2.56-10.59,4.59-10.65-5.85.19-10.08,6.4-10.24,11.94Z"/>
              <path class="cls-5" d="M184.43,120.6c-7.95-2.15-15.63-6.04-21.01-12.27-2.09-2.42-3.83-5.22-4.47-8.35-.65-3.12-.07-6.6,2-9.02,3.32-3.87,9.17-4.03,14.26-3.71,6.93.44,13.92,1.24,20.43,3.66,6.51,2.42,12.56,6.62,16.07,12.6,13.09,22.28-13.96,20.69-27.28,17.08Z"/>
              <path class="cls-17" d="M191.36,84.39c-7.8-.03-15.6-.39-23.38-1.08,3.22-2.15,7.84-2.35,11.6-2.15,2.08.12,4.16.45,6.17,1.01,1.59.44,4.11,2.21,5.61,2.22Z"/>
            </g>
            <g class="cls-2">
              <g>
                <circle class="cls-18" cx="115.39" cy="117.95" r="110.97" transform="translate(-19.27 213.31) rotate(-80.93)"/>
                <circle class="cls-18" cx="115.39" cy="117.95" r="110.97" transform="translate(-19.27 213.31) rotate(-80.93)"/>
                <g class="cls-14">
                  <path class="cls-6" d="M185.55,153.63c14,2.33,27.14,7.02,37.23,16.76,6.78,6.56,11.72,15.42,12.02,24.85.3,9.43-4.66,19.23-13.21,23.23-11.68,5.46-29.47-3.94-41.18-6.76-16.09-3.87-31.45-7.7-48.12-8.46-31.04-1.41-62.47,4.65-90.56,18.01-8.4,3.99-17.57,8.74-26.53,6.25C5.7,224.88-.01,214.54-.47,204.68c-1.06-23.13,11.39-33.3,31.46-40.65,38.82-14.22,81.27-13.67,122.61-12.79,10.5.23,21.47.64,31.95,2.39Z"/>
                  <path class="cls-6" d="M238.36,146.35c21.89,5.7,42.08,13.54,56.63,25.62,9.79,8.13,16.29,18.09,15.35,27.49-.95,9.39-10.32,17.88-24.51,19.75-19.39,2.55-46.24-11.06-64.42-16.69-24.99-7.74-48.82-15.26-75.2-20.06-49.13-8.95-100-10.59-146.67-4.22-13.95,1.9-29.24,4.37-43.11-.27-14.72-4.92-22.23-16.53-21.46-26.38,1.81-23.12,23.14-30.14,56.15-32.53,63.85-4.62,131.24,6.25,196.8,17.18,16.66,2.78,34.02,5.86,50.43,10.13Z"/>
                  <path class="cls-16" d="M246.81,22.16c21.89,5.7,42.08,13.54,56.63,25.62,9.79,8.13,16.29,18.09,15.35,27.49-.95,9.39-10.32,17.88-24.51,19.75-19.39,2.55-46.24-11.06-64.42-16.69-24.99-7.74-48.82-15.26-75.2-20.06-49.13-8.95-100-10.6-146.67-4.22-13.95,1.9-29.24,4.37-43.11-.27-14.72-4.92-22.23-16.53-21.46-26.38C-54.77,4.26-33.43-2.76-.42-5.15,63.43-9.77,130.82,1.1,196.38,12.03c16.66,2.78,34.02,5.86,50.43,10.13Z"/>
                  <path class="cls-17" d="M242.32,8.69c21.89,5.7,42.08,13.54,56.63,25.62,9.79,8.13,16.29,18.09,15.35,27.49-.95,9.39-10.32,17.88-24.51,19.75-19.39,2.55-46.24-11.06-64.42-16.69-24.99-7.74-48.82-15.26-75.2-20.06-49.13-8.95-100-10.6-146.67-4.22-13.95,1.9-29.24,4.37-43.11-.27-14.72-4.92-22.23-16.53-21.46-26.38,1.81-23.12,23.14-30.14,56.15-32.53C58.94-23.24,126.33-12.37,191.89-1.44c16.66,2.78,34.02,5.86,50.43,10.13Z"/>
                  <path class="cls-6" d="M239.46,191.71c21.89,5.7,42.08,13.54,56.63,25.62,9.79,8.13,16.29,18.09,15.35,27.49-.95,9.39-10.32,17.88-24.51,19.75-19.39,2.55-46.24-11.06-64.42-16.69-24.99-7.74-48.82-15.26-75.2-20.06-49.13-8.95-100-10.6-146.67-4.22-13.95,1.9-29.24,4.36-43.11-.27-14.72-4.92-22.23-16.53-21.46-26.38,1.81-23.12,23.14-30.14,56.15-32.53,63.85-4.62,131.24,6.25,196.8,17.18,16.66,2.78,34.02,5.86,50.43,10.13Z"/>
                  <path class="cls-4" d="M243.56,161.91c21.89,5.7,42.08,13.54,56.63,25.62,9.79,8.13,16.29,18.09,15.35,27.49-.95,9.39-10.32,17.88-24.51,19.75-19.39,2.55-46.24-11.06-64.42-16.69-24.99-7.74-48.82-15.26-75.2-20.06-49.13-8.95-100-10.59-146.67-4.22-13.95,1.9-29.24,4.37-43.11-.27-14.72-4.92-22.23-16.53-21.46-26.38,1.81-23.12,23.14-30.14,56.15-32.53,63.85-4.62,131.24,6.25,196.8,17.18,16.66,2.78,34.02,5.86,50.43,10.13Z"/>
                </g>
                <g class="cls-9">
                  <path class="cls-7" d="M181.7,31.08c14.09,18.41,22.48,41.39,22.48,66.31,0,60.3-49.06,109.35-109.35,109.35-24.92,0-47.9-8.39-66.31-22.48,20,26.14,51.49,43.04,86.87,43.04,60.3,0,109.35-49.06,109.35-109.35,0-35.38-16.9-66.87-43.04-86.87Z"/>
                </g>
              </g>
              <path class="cls-17" d="M141.72,95.94c-.33,11.21,10.39,19.3,19.07,24.27-.11-.06-4.61.38-5.35.29-2.18-.26-4.3-.53-6.44-1.07-4.73-1.2-9.23-3.14-13.73-4.98-8.69-3.56-18.66-6.66-27.21-2.79,13.87.44,26.74,6.82,39.54,12.18,8.13,3.41,16.61,6.45,25.43,7.36,4.25.44,8.52.29,12.74-.36,3.85-.59,8.16-2.47,12.04-2.47-10.2,1.28-20.79-.82-29.73-5.89-7.04-3.99-13.02-9.8-17.26-16.69-2.13-3.46-3.8-6.96-3.45-11.14.13-1.61,2.56-10.59,4.59-10.65-5.85.19-10.08,6.4-10.24,11.94Z"/>
              <path class="cls-5" d="M184.43,120.6c-7.95-2.15-15.63-6.04-21.01-12.27-2.09-2.42-3.83-5.22-4.47-8.35-.65-3.12-.07-6.6,2-9.02,3.32-3.87,9.17-4.03,14.26-3.71,6.93.44,13.92,1.24,20.43,3.66,6.51,2.42,12.56,6.62,16.07,12.6,13.09,22.28-13.96,20.69-27.28,17.08Z"/>
              <path class="cls-17" d="M191.36,84.39c-7.8-.03-15.6-.39-23.38-1.08,3.22-2.15,7.84-2.35,11.6-2.15,2.08.12,4.16.45,6.17,1.01,1.59.44,4.11,2.21,5.61,2.22Z"/>
            </g>
          </g>
          <path d="M132.89,149.06c1.02.97.89,3.91.85,5.29-.21,6.82-2.85,21.27-7.06,26.63-5.76,7.33-19.75,6.85-24.73-1.17-3.64-5.86-7.01-22.45-5.97-29.16.09-.58.33-1.07.7-1.52l36.21-.07ZM129.65,152.66h-29.62c-.77.77,2.18,15.27,2.78,17.4,1.94,6.93,4.83,12.99,13.33,12.21,6.58-.6,8.88-6.24,10.45-11.76,1.64-5.78,2.38-11.9,3.07-17.85Z"/>
          <path d="M149.2,106.84c7.41-.58,12.42,6.85,9.99,13.71-.98,2.77-4.22,5.75-7.17,6.16-14.88,2.05-16.27-18.81-2.82-19.87Z"/>
          <path d="M78.85,106.84c12.98-1.02,14.36,18.27,2.82,19.87-14.76,2.05-15.92-18.84-2.82-19.87Z"/>
          <path class="cls-8" d="M129.65,152.66c-.69,5.95-1.43,12.08-3.07,17.85-1.57,5.52-3.88,11.16-10.45,11.76-8.49.78-11.38-5.28-13.33-12.21-.6-2.13-3.55-16.63-2.78-17.4h29.62Z"/>
        </g>
      </g>
    </g>
  </g>
</svg>