<?xml version="1.0" encoding="UTF-8"?>
<svg id="Layer_2" data-name="Layer 2" xmlns="http://www.w3.org/2000/svg" xmlns:xlink="http://www.w3.org/1999/xlink" viewBox="0 0 327.45 229.57">
  <defs>
    <style>
      .cls-1 {
        clip-path: url(#clippath-6);
      }

      .cls-2 {
        clip-path: url(#clippath-4);
      }

      .cls-3 {
        fill: #ccb178;
      }

      .cls-4 {
        fill: #c0a267;
      }

      .cls-5 {
        fill: #10172e;
        opacity: .56;
      }

      .cls-6 {
        opacity: .4;
      }

      .cls-7 {
        fill: none;
      }

      .cls-8 {
        clip-path: url(#clippath-1);
      }

      .cls-9 {
        clip-path: url(#clippath-5);
      }

      .cls-10 {
        clip-path: url(#clippath-3);
      }

      .cls-11 {
        fill: #eed8a4;
      }

      .cls-12 {
        fill: #dcc18d;
      }

      .cls-13 {
        clip-path: url(#clippath-2);
      }

      .cls-14 {
        clip-path: url(#clippath);
      }
    </style>
    <clipPath id="clippath">
      <path class="cls-7" d="M252.4,177.44c-24.9,35.04-68.55,51.95-110.85,42.91-29.77-6.36-56.38-25.86-71.1-52.46l27.2,3.51c40.11,3.77,80.82,4.06,120.97.37,13.57-1.25,27.1-3.22,40.51-5.54.49.46-5.98,10.17-6.72,11.21Z"/>
    </clipPath>
    <clipPath id="clippath-1">
      <path class="cls-7" d="M80.97,44.97C122.24.31,192.14-2.45,236.8,38.81c44.66,41.26,47.42,111.17,6.15,155.82-41.26,44.66-111.17,47.42-155.82,6.15-44.66-41.26-47.42-111.17-6.15-155.82Z"/>
    </clipPath>
    <clipPath id="clippath-2">
      <path class="cls-7" d="M210.62,17.18C133.48-19.4,46.66,43.9,57,128.26c.3,2.46,1.92,12.88,2.95,14.44.7,1.06,7.12,2.63,8.76,3.08,39.53,10.79,92.67,11.64,133.45,8.24,22.54-1.88,45.29-5.41,66.7-12.66,13.02-49.73-12.24-102.35-58.24-124.17ZM128.28,106.76c12.97-1.02,14.35,18.25,2.81,19.85-14.75,2.05-15.9-18.82-2.81-19.85ZM191.37,145.82c-4.93,3.29-7.49.33-12.15-1.66-1.85.59-4.81,3.62-6.62,3.56-2.24-.08-6.29-3.3-8.55-4.04-2.37,1.01-5.66,3.82-8.23,3.97-2.23.13-4.69-2.97-6.94-3.48-3.88,1.56-6.92,4.78-11.27,2.25-1.46-.85-6.56-5.28-6.88-6.82-.26-1.23.71-2.65,1.96-2.9.85-.17,1.07-.04,1.79.28,1.59.71,5.66,4.97,6.34,5.16,1.65.45,6.17-3.44,8.78-3.26,2.08.14,5.24,4.04,6.68,4.03,2.39-.35,5.97-3.43,8.13-3.33,2.04.09,6.17,3.53,7.76,3.37,1.86-.88,4.65-3.92,6.69-4.07,2.4-.17,6.49,3.64,8.4,3.24,2.17-.45,6.43-7.57,9.51-4.91,2.99,2.59-3.48,7.32-5.41,8.62ZM208.56,120.45c-.98,2.77-4.22,5.75-7.17,6.15-14.87,2.05-16.26-18.8-2.81-19.85,7.4-.58,12.41,6.85,9.98,13.7Z"/>
    </clipPath>
    <clipPath id="clippath-3">
      <path class="cls-7" d="M80.39,34.53c41.26-44.66,111.17-47.42,155.82-6.15,44.66,41.26,47.42,111.17,6.15,155.82-41.26,44.66-111.17,47.42-155.82,6.15-44.66-41.26-47.42-111.17-6.15-155.82Z"/>
    </clipPath>
    <clipPath id="clippath-4">
      <path class="cls-7" d="M80.39,34.53c41.26-44.66,111.17-47.42,155.82-6.15,44.66,41.26,47.42,111.17,6.15,155.82-41.26,44.66-111.17,47.42-155.82,6.15-44.66-41.26-47.42-111.17-6.15-155.82Z"/>
    </clipPath>
    <clipPath id="clippath-5">
      <path class="cls-7" d="M80.39,34.53c41.26-44.66,111.17-47.42,155.82-6.15,44.66,41.26,47.42,111.17,6.15,155.82-41.26,44.66-111.17,47.42-155.82,6.15-44.66-41.26-47.42-111.17-6.15-155.82Z"/>
    </clipPath>
    <clipPath id="clippath-6">
      <path class="cls-7" d="M80.39,34.53c41.26-44.66,111.17-47.42,155.82-6.15,44.66,41.26,47.42,111.17,6.15,155.82-41.26,44.66-111.17,47.42-155.82,6.15-44.66-41.26-47.42-111.17-6.15-155.82Z"/>
    </clipPath>
  </defs>
  <g id="saturn">
    <g>
      <g class="cls-14">
        <g>
          <rect class="cls-7" x="-33.42" y="-49.99" width="316.6" height="291.42"/>
          <g>
            <g>
              <circle class="cls-3" cx="161.96" cy="119.8" r="111.9" transform="translate(-3.62 5.05) rotate(-1.77)"/>
              <g class="cls-8">
                <g>
                  <path class="cls-4" d="M280.63,133.42s-54.79,49.64-94.4,102.16l-11.96,1.91s33.87-64.94,104.93-125.97l1.44,21.9Z"/>
                  <path class="cls-4" d="M47.4,120.26S107.41,51.17,137.67,7.39l-15.62,2.42s-61.01,63.95-72.77,73.23c-.43,2.54-5.66,29.57-1.88,37.21Z"/>
                  <path class="cls-12" d="M278.7,102.4s-72.05,55.91-116.66,137.28l-4.92-.89s51.91-91.97,120.12-142.03l1.45,5.64Z"/>
                  <path class="cls-12" d="M35.47,132.03S107.52,76.12,152.12-5.26l4.92.89s-51.91,91.97-120.12,142.03l-1.45-5.64Z"/>
                  <path class="cls-12" d="M153.2,236.06s74.28-113.07,121.12-144.27l-.1-3.17s-57.62,44.42-125.69,148.44l4.67-1Z"/>
                  <path class="cls-4" d="M274.83,82.71s-96.55,82.32-133.46,155.3l-18.16-5.95s38.13-107.8,138.1-172.53c0,0,11.24,14.62,13.52,23.19Z"/>
                  <path class="cls-12" d="M277.83,73.61s-83.16,39.79-144.65,167.82l-20-11.44s59.91-124.42,150.59-177.03c3.04,2.13,7.96,6.25,11.35,13.03,1.38,2.77,2.21,5.39,2.72,7.61Z"/>
                  <path class="cls-12" d="M23.81,144.99S106.97,105.2,168.46-22.83l20,11.44s-59.91,124.42-150.59,177.03c-3.04-2.13-7.96-6.25-11.35-13.03-1.38-2.77-2.21-5.39-2.72-7.61Z"/>
                  <path class="cls-4" d="M64.03,213.73c16.13-36.64,38.53-79.82,69.67-125.39,30.33-44.38,61.53-80.16,89.15-108.09,12.82,8.72,47.51,37.01,60.33,45.73-27.16,32.59-56.04,37.81-105.56,91.2-35.35,38.12-54.14,84.25-75.14,122.71-12.82-8.72-25.64-17.44-38.45-26.16Z"/>
                  <path class="cls-12" d="M252.93,44.59s-89.66,46.83-161.46,186.01l-20.4-11.01S141.01,84.32,239.29,23.48c3.07,2.09,8.02,6.18,11.2,13.19,1.3,2.86,2.03,5.59,2.44,7.92Z"/>
                  <path class="cls-3" d="M254.45,26.53s-89.66,46.83-161.46,186.01l-20.4-11.01S142.53,66.26,240.82,5.42c3.08,2.09,8.02,6.18,11.2,13.19,1.3,2.86,2.03,5.59,2.44,7.92Z"/>
                  <path class="cls-4" d="M249.42,21.87s-89.66,46.83-161.46,186.01l-20.4-11.01S137.49,61.6,235.78.76c3.07,2.09,8.02,6.18,11.2,13.19,1.3,2.86,2.03,5.59,2.44,7.92Z"/>
                  <path class="cls-12" d="M46.31,168.9S134.33,119.06,201.37-22.48l20.76,10.31S156.82,125.4,60.65,189.54c-3.14-1.98-8.23-5.9-11.65-12.8-1.4-2.82-2.21-5.52-2.7-7.83Z"/>
                  <path class="cls-12" d="M-18.83,144.24S69.19,94.39,136.23-47.14l20.76,10.31S91.69,100.73-4.48,164.87c-3.14-1.98-8.23-5.9-11.65-12.8-1.4-2.82-2.21-5.52-2.7-7.83Z"/>
                  <path class="cls-4" d="M-28.62,144.15S59.4,94.31,126.44-47.23l20.76,10.31S81.89,100.65-14.28,164.79c-3.14-1.98-8.23-5.9-11.65-12.8-1.4-2.82-2.21-5.52-2.7-7.83Z"/>
                  <path class="cls-3" d="M-33.42,141.39S54.6,91.54,121.64-49.99l20.76,10.31S77.09,97.88-19.08,162.02c-3.14-1.98-8.23-5.9-11.65-12.8-1.4-2.82-2.21-5.52-2.7-7.83Z"/>
                </g>
              </g>
              <path class="cls-12" d="M184.58,162.18s.39-.42.88-.95c.48-.52.88-.95.88-.95,0,0-.39.42-.88.95-.48.52-.88.95-.88.95Z"/>
              <path class="cls-12" d="M210.25,66.11c-1.64-1.51-.33-5.59,2.91-9.1,3.25-3.51,7.21-5.14,8.84-3.62,1.64,1.51.33,5.59-2.91,9.1-3.25,3.51-7.21,5.14-8.84,3.62Z"/>
            </g>
            <g class="cls-6">
              <path class="cls-5" d="M143,11.24c23.27,2.17,46.04,11.68,64.49,28.73,44.66,41.26,47.42,111.17,6.15,155.82-17.05,18.45-39,29.73-62.03,33.73,33.05,3.08,67.12-8.68,91.33-34.88,41.26-44.66,38.5-114.56-6.15-155.82-26.2-24.21-61.09-33.25-93.79-27.57Z"/>
            </g>
          </g>
        </g>
      </g>
      <g class="cls-13">
        <g>
          <rect class="cls-7" x="-34.01" y="-60.43" width="316.6" height="291.42"/>
          <g>
            <g>
              <circle class="cls-3" cx="161.38" cy="109.36" r="111.9" transform="translate(-3.3 5.03) rotate(-1.77)"/>
              <g class="cls-10">
                <g>
                  <path class="cls-4" d="M280.05,122.98s-54.79,49.64-94.4,102.16l-11.96,1.91s33.87-64.94,104.93-125.97l1.44,21.9Z"/>
                  <path class="cls-4" d="M46.82,109.82S106.83,40.73,137.09-3.05l-15.62,2.42S60.46,63.32,48.7,72.6c-.43,2.54-5.66,29.57-1.88,37.21Z"/>
                  <path class="cls-12" d="M278.12,91.96s-72.05,55.91-116.66,137.28l-4.92-.89s51.91-91.97,120.12-142.03l1.45,5.64Z"/>
                  <path class="cls-12" d="M34.89,121.59S106.94,65.68,151.54-15.7l4.92.89S104.55,77.17,36.34,127.22l-1.45-5.64Z"/>
                  <path class="cls-12" d="M152.62,225.62s74.28-113.07,121.12-144.27l-.1-3.17s-57.62,44.42-125.69,148.44l4.67-1Z"/>
                  <path class="cls-4" d="M274.24,72.27s-96.55,82.32-133.46,155.3l-18.16-5.95s38.13-107.8,138.1-172.53c0,0,11.24,14.62,13.52,23.19Z"/>
                  <path class="cls-12" d="M277.25,63.17s-83.16,39.79-144.65,167.82l-20-11.44s59.91-124.42,150.59-177.03c3.04,2.13,7.96,6.25,11.35,13.03,1.38,2.77,2.21,5.39,2.72,7.61Z"/>
                  <path class="cls-12" d="M23.23,134.55S106.38,94.76,167.88-33.27l20,11.44S127.97,102.59,37.29,155.2c-3.04-2.13-7.96-6.25-11.35-13.03-1.38-2.77-2.21-5.39-2.72-7.61Z"/>
                  <path class="cls-4" d="M63.44,203.29c16.13-36.64,38.53-79.82,69.67-125.39C163.44,33.51,194.64-2.27,222.26-30.2c12.82,8.72,47.51,37.01,60.33,45.73-27.16,32.59-56.04,37.81-105.56,91.2-35.35,38.12-54.14,84.25-75.14,122.71-12.82-8.72-25.64-17.44-38.45-26.16Z"/>
                  <path class="cls-12" d="M252.35,34.15s-89.66,46.83-161.46,186.01l-20.4-11.01S140.42,73.88,238.71,13.04c3.07,2.09,8.02,6.18,11.2,13.19,1.3,2.86,2.03,5.59,2.44,7.92Z"/>
                  <path class="cls-3" d="M253.87,16.09s-89.66,46.83-161.46,186.01l-20.4-11.01S141.95,55.82,240.23-5.02c3.08,2.09,8.02,6.18,11.2,13.19,1.3,2.86,2.03,5.59,2.44,7.92Z"/>
                  <path class="cls-4" d="M248.84,11.43s-89.66,46.83-161.46,186.01l-20.4-11.01S136.91,51.16,235.2-9.68c3.07,2.09,8.02,6.18,11.2,13.19,1.3,2.86,2.03,5.59,2.44,7.92Z"/>
                  <path class="cls-12" d="M45.72,158.46s88.02-49.84,155.06-191.38l20.76,10.31S156.24,114.96,60.07,179.1c-3.14-1.98-8.23-5.9-11.65-12.8-1.4-2.82-2.21-5.52-2.7-7.83Z"/>
                  <path class="cls-12" d="M-19.41,133.8S68.61,83.95,135.65-57.58l20.76,10.31S91.1,90.29-5.06,154.43c-3.14-1.98-8.23-5.9-11.65-12.8-1.4-2.82-2.21-5.52-2.7-7.83Z"/>
                  <path class="cls-4" d="M-29.21,133.71S58.82,83.87,125.86-57.67l20.76,10.31S81.31,90.21-14.86,154.35c-3.14-1.98-8.23-5.9-11.65-12.8-1.4-2.82-2.21-5.52-2.7-7.83Z"/>
                  <path class="cls-3" d="M-34.01,130.95S54.02,81.1,121.06-60.43l20.76,10.31S76.51,87.44-19.66,151.58c-3.14-1.98-8.23-5.9-11.65-12.8-1.4-2.82-2.21-5.52-2.7-7.83Z"/>
                </g>
              </g>
              <path class="cls-12" d="M184,151.74s.39-.42.88-.95c.48-.52.88-.95.88-.95,0,0-.39.42-.88.95-.48.52-.88.95-.88.95Z"/>
              <path class="cls-12" d="M209.67,55.67c-1.64-1.51-.33-5.59,2.91-9.1,3.25-3.51,7.21-5.14,8.84-3.62,1.64,1.51.33,5.59-2.91,9.1-3.25,3.51-7.21,5.14-8.84,3.62Z"/>
            </g>
            <g class="cls-6">
              <path class="cls-5" d="M142.42.8c23.27,2.17,46.04,11.68,64.49,28.73,44.66,41.26,47.42,111.17,6.15,155.82-17.05,18.45-39,29.73-62.03,33.73,33.05,3.08,67.12-8.68,91.33-34.88,41.26-44.66,38.5-114.56-6.15-155.82C210.01,4.16,175.12-4.87,142.42.8Z"/>
            </g>
          </g>
        </g>
        <g>
          <rect class="cls-7" x="-34.01" y="-60.43" width="316.6" height="291.42"/>
          <g>
            <g>
              <circle class="cls-3" cx="161.38" cy="109.36" r="111.9" transform="translate(-3.3 5.03) rotate(-1.77)"/>
              <g class="cls-2">
                <g>
                  <path class="cls-4" d="M280.05,122.98s-54.79,49.64-94.4,102.16l-11.96,1.91s33.87-64.94,104.93-125.97l1.44,21.9Z"/>
                  <path class="cls-4" d="M46.82,109.82S106.83,40.73,137.09-3.05l-15.62,2.42S60.46,63.32,48.7,72.6c-.43,2.54-5.66,29.57-1.88,37.21Z"/>
                  <path class="cls-12" d="M278.12,91.96s-72.05,55.91-116.66,137.28l-4.92-.89s51.91-91.97,120.12-142.03l1.45,5.64Z"/>
                  <path class="cls-12" d="M34.89,121.59S106.94,65.68,151.54-15.7l4.92.89S104.55,77.17,36.34,127.22l-1.45-5.64Z"/>
                  <path class="cls-12" d="M152.62,225.62s74.28-113.07,121.12-144.27l-.1-3.17s-57.62,44.42-125.69,148.44l4.67-1Z"/>
                  <path class="cls-4" d="M274.24,72.27s-96.55,82.32-133.46,155.3l-18.16-5.95s38.13-107.8,138.1-172.53c0,0,11.24,14.62,13.52,23.19Z"/>
                  <path class="cls-12" d="M277.25,63.17s-83.16,39.79-144.65,167.82l-20-11.44s59.91-124.42,150.59-177.03c3.04,2.13,7.96,6.25,11.35,13.03,1.38,2.77,2.21,5.39,2.72,7.61Z"/>
                  <path class="cls-12" d="M23.23,134.55S106.38,94.76,167.88-33.27l20,11.44S127.97,102.59,37.29,155.2c-3.04-2.13-7.96-6.25-11.35-13.03-1.38-2.77-2.21-5.39-2.72-7.61Z"/>
                  <path class="cls-4" d="M63.44,203.29c16.13-36.64,38.53-79.82,69.67-125.39C163.44,33.51,194.64-2.27,222.26-30.2c12.82,8.72,47.51,37.01,60.33,45.73-27.16,32.59-56.04,37.81-105.56,91.2-35.35,38.12-54.14,84.25-75.14,122.71-12.82-8.72-25.64-17.44-38.45-26.16Z"/>
                  <path class="cls-12" d="M252.35,34.15s-89.66,46.83-161.46,186.01l-20.4-11.01S140.42,73.88,238.71,13.04c3.07,2.09,8.02,6.18,11.2,13.19,1.3,2.86,2.03,5.59,2.44,7.92Z"/>
                  <path class="cls-3" d="M253.87,16.09s-89.66,46.83-161.46,186.01l-20.4-11.01S141.95,55.82,240.23-5.02c3.08,2.09,8.02,6.18,11.2,13.19,1.3,2.86,2.03,5.59,2.44,7.92Z"/>
                  <path class="cls-4" d="M248.84,11.43s-89.66,46.83-161.46,186.01l-20.4-11.01S136.91,51.16,235.2-9.68c3.07,2.09,8.02,6.18,11.2,13.19,1.3,2.86,2.03,5.59,2.44,7.92Z"/>
                  <path class="cls-12" d="M45.72,158.46s88.02-49.84,155.06-191.38l20.76,10.31S156.24,114.96,60.07,179.1c-3.14-1.98-8.23-5.9-11.65-12.8-1.4-2.82-2.21-5.52-2.7-7.83Z"/>
                  <path class="cls-12" d="M-19.41,133.8S68.61,83.95,135.65-57.58l20.76,10.31S91.1,90.29-5.06,154.43c-3.14-1.98-8.23-5.9-11.65-12.8-1.4-2.82-2.21-5.52-2.7-7.83Z"/>
                  <path class="cls-4" d="M-29.21,133.71S58.82,83.87,125.86-57.67l20.76,10.31S81.31,90.21-14.86,154.35c-3.14-1.98-8.23-5.9-11.65-12.8-1.4-2.82-2.21-5.52-2.7-7.83Z"/>
                  <path class="cls-3" d="M-34.01,130.95S54.02,81.1,121.06-60.43l20.76,10.31S76.51,87.44-19.66,151.58c-3.14-1.98-8.23-5.9-11.65-12.8-1.4-2.82-2.21-5.52-2.7-7.83Z"/>
                </g>
              </g>
              <path class="cls-12" d="M184,151.74s.39-.42.88-.95c.48-.52.88-.95.88-.95,0,0-.39.42-.88.95-.48.52-.88.95-.88.95Z"/>
              <path class="cls-12" d="M209.67,55.67c-1.64-1.51-.33-5.59,2.91-9.1,3.25-3.51,7.21-5.14,8.84-3.62,1.64,1.51.33,5.59-2.91,9.1-3.25,3.51-7.21,5.14-8.84,3.62Z"/>
            </g>
            <g class="cls-6">
              <path class="cls-5" d="M142.42.8c23.27,2.17,46.04,11.68,64.49,28.73,44.66,41.26,47.42,111.17,6.15,155.82-17.05,18.45-39,29.73-62.03,33.73,33.05,3.08,67.12-8.68,91.33-34.88,41.26-44.66,38.5-114.56-6.15-155.82C210.01,4.16,175.12-4.87,142.42.8Z"/>
            </g>
          </g>
        </g>
        <g>
          <rect class="cls-7" x="-34.01" y="-60.43" width="316.6" height="291.42"/>
          <g>
            <g>
              <circle class="cls-3" cx="161.38" cy="109.36" r="111.9" transform="translate(-3.3 5.03) rotate(-1.77)"/>
              <g class="cls-9">
                <g>
                  <path class="cls-4" d="M280.05,122.98s-54.79,49.64-94.4,102.16l-11.96,1.91s33.87-64.94,104.93-125.97l1.44,21.9Z"/>
                  <path class="cls-4" d="M46.82,109.82S106.83,40.73,137.09-3.05l-15.62,2.42S60.46,63.32,48.7,72.6c-.43,2.54-5.66,29.57-1.88,37.21Z"/>
                  <path class="cls-12" d="M278.12,91.96s-72.05,55.91-116.66,137.28l-4.92-.89s51.91-91.97,120.12-142.03l1.45,5.64Z"/>
                  <path class="cls-12" d="M34.89,121.59S106.94,65.68,151.54-15.7l4.92.89S104.55,77.17,36.34,127.22l-1.45-5.64Z"/>
                  <path class="cls-12" d="M152.62,225.62s74.28-113.07,121.12-144.27l-.1-3.17s-57.62,44.42-125.69,148.44l4.67-1Z"/>
                  <path class="cls-4" d="M274.24,72.27s-96.55,82.32-133.46,155.3l-18.16-5.95s38.13-107.8,138.1-172.53c0,0,11.24,14.62,13.52,23.19Z"/>
                  <path class="cls-12" d="M277.25,63.17s-83.16,39.79-144.65,167.82l-20-11.44s59.91-124.42,150.59-177.03c3.04,2.13,7.96,6.25,11.35,13.03,1.38,2.77,2.21,5.39,2.72,7.61Z"/>
                  <path class="cls-12" d="M23.23,134.55S106.38,94.76,167.88-33.27l20,11.44S127.97,102.59,37.29,155.2c-3.04-2.13-7.96-6.25-11.35-13.03-1.38-2.77-2.21-5.39-2.72-7.61Z"/>
                  <path class="cls-4" d="M63.44,203.29c16.13-36.64,38.53-79.82,69.67-125.39C163.44,33.51,194.64-2.27,222.26-30.2c12.82,8.72,47.51,37.01,60.33,45.73-27.16,32.59-56.04,37.81-105.56,91.2-35.35,38.12-54.14,84.25-75.14,122.71-12.82-8.72-25.64-17.44-38.45-26.16Z"/>
                  <path class="cls-12" d="M252.35,34.15s-89.66,46.83-161.46,186.01l-20.4-11.01S140.42,73.88,238.71,13.04c3.07,2.09,8.02,6.18,11.2,13.19,1.3,2.86,2.03,5.59,2.44,7.92Z"/>
                  <path class="cls-3" d="M253.87,16.09s-89.66,46.83-161.46,186.01l-20.4-11.01S141.95,55.82,240.23-5.02c3.08,2.09,8.02,6.18,11.2,13.19,1.3,2.86,2.03,5.59,2.44,7.92Z"/>
                  <path class="cls-4" d="M248.84,11.43s-89.66,46.83-161.46,186.01l-20.4-11.01S136.91,51.16,235.2-9.68c3.07,2.09,8.02,6.18,11.2,13.19,1.3,2.86,2.03,5.59,2.44,7.92Z"/>
                  <path class="cls-12" d="M45.72,158.46s88.02-49.84,155.06-191.38l20.76,10.31S156.24,114.96,60.07,179.1c-3.14-1.98-8.23-5.9-11.65-12.8-1.4-2.82-2.21-5.52-2.7-7.83Z"/>
                  <path class="cls-12" d="M-19.41,133.8S68.61,83.95,135.65-57.58l20.76,10.31S91.1,90.29-5.06,154.43c-3.14-1.98-8.23-5.9-11.65-12.8-1.4-2.82-2.21-5.52-2.7-7.83Z"/>
                  <path class="cls-4" d="M-29.21,133.71S58.82,83.87,125.86-57.67l20.76,10.31S81.31,90.21-14.86,154.35c-3.14-1.98-8.23-5.9-11.65-12.8-1.4-2.82-2.21-5.52-2.7-7.83Z"/>
                  <path class="cls-3" d="M-34.01,130.95S54.02,81.1,121.06-60.43l20.76,10.31S76.51,87.44-19.66,151.58c-3.14-1.98-8.23-5.9-11.65-12.8-1.4-2.82-2.21-5.52-2.7-7.83Z"/>
                </g>
              </g>
              <path class="cls-12" d="M184,151.74s.39-.42.88-.95c.48-.52.88-.95.88-.95,0,0-.39.42-.88.95-.48.52-.88.95-.88.95Z"/>
              <path class="cls-12" d="M209.67,55.67c-1.64-1.51-.33-5.59,2.91-9.1,3.25-3.51,7.21-5.14,8.84-3.62,1.64,1.51.33,5.59-2.91,9.1-3.25,3.51-7.21,5.14-8.84,3.62Z"/>
            </g>
            <g class="cls-6">
              <path class="cls-5" d="M142.42.8c23.27,2.17,46.04,11.68,64.49,28.73,44.66,41.26,47.42,111.17,6.15,155.82-17.05,18.45-39,29.73-62.03,33.73,33.05,3.08,67.12-8.68,91.33-34.88,41.26-44.66,38.5-114.56-6.15-155.82C210.01,4.16,175.12-4.87,142.42.8Z"/>
            </g>
          </g>
        </g>
        <g>
          <rect class="cls-7" x="-34.01" y="-60.43" width="316.6" height="291.42"/>
          <g>
            <g>
              <circle class="cls-3" cx="161.38" cy="109.36" r="111.9" transform="translate(-3.3 5.03) rotate(-1.77)"/>
              <g class="cls-1">
                <g>
                  <path class="cls-4" d="M280.05,122.98s-54.79,49.64-94.4,102.16l-11.96,1.91s33.87-64.94,104.93-125.97l1.44,21.9Z"/>
                  <path class="cls-4" d="M46.82,109.82S106.83,40.73,137.09-3.05l-15.62,2.42S60.46,63.32,48.7,72.6c-.43,2.54-5.66,29.57-1.88,37.21Z"/>
                  <path class="cls-12" d="M278.12,91.96s-72.05,55.91-116.66,137.28l-4.92-.89s51.91-91.97,120.12-142.03l1.45,5.64Z"/>
                  <path class="cls-12" d="M34.89,121.59S106.94,65.68,151.54-15.7l4.92.89S104.55,77.17,36.34,127.22l-1.45-5.64Z"/>
                  <path class="cls-12" d="M152.62,225.62s74.28-113.07,121.12-144.27l-.1-3.17s-57.62,44.42-125.69,148.44l4.67-1Z"/>
                  <path class="cls-4" d="M274.24,72.27s-96.55,82.32-133.46,155.3l-18.16-5.95s38.13-107.8,138.1-172.53c0,0,11.24,14.62,13.52,23.19Z"/>
                  <path class="cls-12" d="M277.25,63.17s-83.16,39.79-144.65,167.82l-20-11.44s59.91-124.42,150.59-177.03c3.04,2.13,7.96,6.25,11.35,13.03,1.38,2.77,2.21,5.39,2.72,7.61Z"/>
                  <path class="cls-12" d="M23.23,134.55S106.38,94.76,167.88-33.27l20,11.44S127.97,102.59,37.29,155.2c-3.04-2.13-7.96-6.25-11.35-13.03-1.38-2.77-2.21-5.39-2.72-7.61Z"/>
                  <path class="cls-4" d="M63.44,203.29c16.13-36.64,38.53-79.82,69.67-125.39C163.44,33.51,194.64-2.27,222.26-30.2c12.82,8.72,47.51,37.01,60.33,45.73-27.16,32.59-56.04,37.81-105.56,91.2-35.35,38.12-54.14,84.25-75.14,122.71-12.82-8.72-25.64-17.44-38.45-26.16Z"/>
                  <path class="cls-12" d="M252.35,34.15s-89.66,46.83-161.46,186.01l-20.4-11.01S140.42,73.88,238.71,13.04c3.07,2.09,8.02,6.18,11.2,13.19,1.3,2.86,2.03,5.59,2.44,7.92Z"/>
                  <path class="cls-3" d="M253.87,16.09s-89.66,46.83-161.46,186.01l-20.4-11.01S141.95,55.82,240.23-5.02c3.08,2.09,8.02,6.18,11.2,13.19,1.3,2.86,2.03,5.59,2.44,7.92Z"/>
                  <path class="cls-4" d="M248.84,11.43s-89.66,46.83-161.46,186.01l-20.4-11.01S136.91,51.16,235.2-9.68c3.07,2.09,8.02,6.18,11.2,13.19,1.3,2.86,2.03,5.59,2.44,7.92Z"/>
                  <path class="cls-12" d="M45.72,158.46s88.02-49.84,155.06-191.38l20.76,10.31S156.24,114.96,60.07,179.1c-3.14-1.98-8.23-5.9-11.65-12.8-1.4-2.82-2.21-5.52-2.7-7.83Z"/>
                  <path class="cls-12" d="M-19.41,133.8S68.61,83.95,135.65-57.58l20.76,10.31S91.1,90.29-5.06,154.43c-3.14-1.98-8.23-5.9-11.65-12.8-1.4-2.82-2.21-5.52-2.7-7.83Z"/>
                  <path class="cls-4" d="M-29.21,133.71S58.82,83.87,125.86-57.67l20.76,10.31S81.31,90.21-14.86,154.35c-3.14-1.98-8.23-5.9-11.65-12.8-1.4-2.82-2.21-5.52-2.7-7.83Z"/>
                  <path class="cls-3" d="M-34.01,130.95S54.02,81.1,121.06-60.43l20.76,10.31S76.51,87.44-19.66,151.58c-3.14-1.98-8.23-5.9-11.65-12.8-1.4-2.82-2.21-5.52-2.7-7.83Z"/>
                </g>
              </g>
              <path class="cls-12" d="M184,151.74s.39-.42.88-.95c.48-.52.88-.95.88-.95,0,0-.39.42-.88.95-.48.52-.88.95-.88.95Z"/>
              <path class="cls-12" d="M209.67,55.67c-1.64-1.51-.33-5.59,2.91-9.1,3.25-3.51,7.21-5.14,8.84-3.62,1.64,1.51.33,5.59-2.91,9.1-3.25,3.51-7.21,5.14-8.84,3.62Z"/>
            </g>
            <g class="cls-6">
              <path class="cls-5" d="M142.42.8c23.27,2.17,46.04,11.68,64.49,28.73,44.66,41.26,47.42,111.17,6.15,155.82-17.05,18.45-39,29.73-62.03,33.73,33.05,3.08,67.12-8.68,91.33-34.88,41.26-44.66,38.5-114.56-6.15-155.82C210.01,4.16,175.12-4.87,142.42.8Z"/>
            </g>
          </g>
        </g>
      </g>
      <g>
        <path d="M313.39,114.37c-10.7-6.16-23.09-9.54-34.99-12.55-5.2-48.76-42.35-89.38-90.24-99.37C126.18-10.47,65.17,29.01,52.13,90.75c-.86,4.05-1.26,8.26-2.21,12.22-12.65,3.51-26.17,7.01-37.37,14.05-22.47,14.1-11.5,28.2,7.46,36.95,13.1,6.05,27.64,9.17,41.69,12.23,24.88,49.52,81.95,74.53,135.56,58.58,31.06-9.24,56.43-31.3,70.76-60.2,16.19-4.18,35.66-7.99,49.46-17.88,16.17-11.59,11.13-23.57-4.09-32.33ZM279.66,114.42c7.68,4.08,14.49,10.14,6.1,17.95-.88.82-8.29,5.98-8.88,5.36l2.78-23.31ZM210.79,17.18c46,21.82,71.26,74.44,58.24,124.17-21.4,7.25-44.16,10.78-66.7,12.66-40.77,3.4-93.91,2.55-133.45-8.24-1.64-.45-8.06-2.02-8.76-3.08-1.04-1.56-2.65-11.98-2.95-14.44C46.83,43.9,133.66-19.4,210.79,17.18ZM52.32,139.96c-5.66-2.27-16.42-7.86-14.08-15.37,1.25-4,7.8-8.11,11.49-9.78-.33,8.48,1,16.86,2.59,25.15ZM252.4,177.44c-24.9,35.04-68.55,51.95-110.85,42.91-29.77-6.36-56.38-25.86-71.1-52.46l27.2,3.51c40.11,3.77,80.82,4.06,120.97.37,13.57-1.25,27.1-3.22,40.51-5.54.49.46-5.98,10.17-6.72,11.21ZM295.2,152.54c-47.56,16.93-117.39,19.26-167.61,16.66-31.4-1.63-84.51-6.61-111.64-22.29-34.3-19.83,18.18-35.39,33.77-39.51-.13.93.3,2.56-.18,3.33-.22.35-4.17,2.27-4.97,2.8-31.32,20.32,15.7,34.09,31.48,37.64,38.58,8.69,84.33,9.54,123.68,6.54,22.31-1.7,70.22-7.48,87.3-21.83,12.5-10.51,3.67-20.35-7.88-25.57l-.06-3.64c12.04,3.64,26.77,6.99,36.96,14.64,19.8,14.87-8.47,26.82-20.86,31.24Z"/>
        <path class="cls-11" d="M295.2,152.54c-47.56,16.93-117.39,19.26-167.61,16.66-31.4-1.63-84.51-6.61-111.64-22.29-34.3-19.83,18.18-35.39,33.77-39.51-.13.93.3,2.56-.18,3.33-.22.35-4.17,2.27-4.97,2.8-31.32,20.32,15.7,34.09,31.48,37.64,38.58,8.69,84.33,9.54,123.68,6.54,22.31-1.7,70.22-7.48,87.3-21.83,12.5-10.51,3.67-20.35-7.88-25.57l-.06-3.64c12.04,3.64,26.77,6.99,36.96,14.64,19.8,14.87-8.47,26.82-20.86,31.24Z"/>
      </g>
      <path d="M191.55,145.82c-4.93,3.29-7.49.33-12.15-1.66-1.85.59-4.81,3.62-6.62,3.56-2.24-.08-6.29-3.3-8.55-4.04-2.37,1.01-5.66,3.82-8.23,3.97-2.23.13-4.69-2.97-6.94-3.48-3.88,1.56-6.92,4.78-11.27,2.25-1.46-.85-6.56-5.28-6.88-6.82-.26-1.23.71-2.65,1.96-2.9.85-.17,1.07-.04,1.79.28,1.59.71,5.66,4.97,6.34,5.16,1.65.45,6.17-3.44,8.78-3.26,2.08.14,5.24,4.04,6.68,4.03,2.39-.35,5.97-3.43,8.13-3.33,2.04.09,6.17,3.53,7.76,3.37,1.86-.88,4.65-3.92,6.69-4.07,2.4-.17,6.49,3.64,8.4,3.24,2.17-.45,6.43-7.57,9.51-4.91,2.99,2.59-3.48,7.32-5.41,8.62Z"/>
      <path d="M208.73,120.45c-.98,2.77-4.22,5.75-7.17,6.15-14.87,2.05-16.26-18.8-2.81-19.85,7.4-.58,12.41,6.85,9.98,13.7Z"/>
      <path d="M131.27,126.61c-14.75,2.05-15.9-18.82-2.81-19.85,12.97-1.02,14.35,18.25,2.81,19.85Z"/>
    </g>
  </g>
</svg>