<?xml version="1.0" encoding="UTF-8"?>
<svg id="Layer_2" data-name="Layer 2" xmlns="http://www.w3.org/2000/svg" viewBox="0 0 230 231.48">
  <defs>
    <style>
      .cls-1 {
        fill: #f8ec23;
      }

      .cls-2 {
        fill: #fdcd07;
      }

      .cls-3 {
        fill: #fff;
      }
    </style>
  </defs>
  <g id="sun">
    <g>
      <path d="M207.3,144.17c6.43-4.35,14.57-5.64,21.87-7.86,1.37-2.04,1.03-3.07-1.02-4.25-5.11-2.98-10.54-3.72-14.7-8.77-7.46-9.04-.15-16.83,8.22-21.04,1.85-.93,7.78-2.69,8.26-4.62.27-1.08-.48-2.26-1.46-2.74-2.41-1.17-7.31-1.8-10.18-2.7-3.28-1.02-11.94-4.4-13.69-7.25-1-1.62.16-6.64.89-8.46.93-2.3,3.04-4.57,4.92-6.19,1.93-1.67,9.6-6.19,10.04-8.13.28-1.24-.25-2.75-1.5-3.18-2.69-.93-8.83.45-11.95.59-2.5.11-8.36.06-10.59-.77-.4-.14-1.62-1.07-1.9-1.38-4.8-5.33,1.51-13.68,3.58-18.88.62-1.59,1.48-4.63-1.19-4.73-1.91-.08-8.2,3.47-10.59,4.3-4.47,1.58-8.63,2.49-12.73-.65-6-4.59-2.15-12.11-.9-18.02.45-2.17,2.23-8.47-1.74-8.07-1.81.18-5.11,3.94-6.74,5.14-3.16,2.34-10.46,6.53-14.27,6.93-1.74.19-5.26.22-6.57-1.06-1.82-1.76-2.98-7.87-3.13-10.38-.16-2.7.39-5.57.27-8.1-.19-4.34-3.21-5.12-6.07-2.02-5.5,5.97-9.74,17.09-19.44,16.29-9.69.8-13.94-10.32-19.43-16.29-2.87-3.1-5.89-2.32-6.08,2.02-.11,2.53.43,5.4.28,8.1-.15,2.51-1.32,8.62-3.13,10.38-1.32,1.28-4.83,1.25-6.57,1.06-3.82-.4-11.11-4.59-14.28-6.93-1.63-1.2-4.92-4.96-6.73-5.14-3.97-.4-2.2,5.9-1.74,8.07,1.24,5.91,5.09,13.43-.91,18.02-4.09,3.14-8.25,2.23-12.72.65-2.39-.83-8.69-4.38-10.59-4.3-2.67.1-1.82,3.14-1.19,4.73,2.06,5.2,8.38,13.55,3.58,18.88-.29.31-1.51,1.24-1.9,1.38-2.23.83-8.1.88-10.59.77-3.12-.14-9.26-1.52-11.96-.59-1.24.43-1.78,1.94-1.5,3.18.44,1.94,8.11,6.46,10.05,8.13,1.88,1.62,3.98,3.89,4.92,6.19.72,1.82,1.88,6.84.89,8.46-1.75,2.85-10.42,6.23-13.7,7.25-2.87.9-7.77,1.53-10.17,2.7-.98.48-1.73,1.66-1.46,2.74.47,1.93,6.4,3.69,8.25,4.62,8.37,4.21,15.69,12,8.23,21.04-4.17,5.05-9.59,5.79-14.71,8.77-2.04,1.18-2.38,2.21-1.01,4.25,7.3,2.22,15.43,3.51,21.86,7.86,1.29.87,3.12,2.2,3.16,3.86.19,7.92-4.03,11.44-9.72,15.73-1.58,1.19-6.34,3.79-6.63,5.74-.35,2.41,1.58,3.34,3.67,3.4,3.08.09,7.1-.88,10.33-1.01,2.27-.1,8.3.02,10.28.82,1.35.54,3.07,3.04,3.36,4.46.54,2.6-.59,5.66-1.53,8.08-1.05,2.72-3.82,6.82-4.3,9.34-.28,1.47.03,2.98,1.79,3.06,1.96.08,8.78-3.72,11.34-4.57,4.23-1.39,8.19-1.99,11.97.91,6.06,4.64,2.1,12.26.86,18.23-.41,2-1.99,7.74,1.31,7.89,2.08.09,5.37-3.73,7.11-5.02,3.38-2.51,10.51-6.67,14.63-7.08,1.66-.17,5.03-.12,6.33,1.05,1.68,1.52,2.97,7.85,3.11,10.14.19,2.84-.48,6.2-.23,8.81.21,2.11,1.12,3.89,3.57,3.38,2.34-.48,6.74-7.99,8.52-10.16,4.71-5.73,9.08-8.31,13.38-8.01,4.31-.3,8.68,2.28,13.38,8.01,1.78,2.17,6.18,9.68,8.52,10.16,2.46.51,3.37-1.27,3.57-3.38.26-2.61-.41-5.97-.23-8.81.15-2.29,1.44-8.62,3.12-10.14,1.29-1.17,4.66-1.22,6.33-1.05,4.12.41,11.25,4.57,14.62,7.08,1.74,1.29,5.04,5.11,7.11,5.02,3.31-.15,1.72-5.89,1.31-7.89-1.23-5.97-5.2-13.59.86-18.23,3.79-2.9,7.75-2.3,11.97-.91,2.57.85,9.38,4.65,11.35,4.57,1.75-.08,2.06-1.59,1.78-3.06-.47-2.52-3.24-6.62-4.3-9.34-.93-2.42-2.06-5.48-1.53-8.08.29-1.42,2.02-3.92,3.36-4.46,1.98-.8,8.01-.92,10.28-.82,3.23.13,7.26,1.1,10.34,1.01,2.09-.06,4.02-.99,3.66-3.4-.28-1.95-5.05-4.55-6.63-5.74-5.69-4.29-9.9-7.81-9.71-15.73.04-1.66,1.87-2.99,3.15-3.86ZM200.82,153.08c.65,7.26,8.07,11.89,13.37,15.77-6.12-.49-13.55-1.31-19.43.89-2.51.95-3.52,2.59-4.64,4.95-2.81,5.94,1.5,12.73,3.88,18.14-5.98-2.44-11.44-5.84-18.17-3.91-4.12,1.18-7.9,4.46-8.96,8.71-1.43,5.72,1.53,11.62,2.65,17.16-.44.12-.5-.18-.76-.38-4.59-3.49-8.25-7.4-14-9.22-6.56-2.07-11.65-2.13-15.38,4.32-3.1,5.36-2.85,11.41-2.42,17.39-3.62-4.98-6.81-10.52-11.88-14.24-3.01-2.2-6.57-3.17-10.09-2.99-3.52-.18-7.08.79-10.08,2.99-5.07,3.72-8.27,9.26-11.88,14.24.42-5.98.68-12.03-2.42-17.39-3.73-6.45-8.83-6.39-15.39-4.32-5.75,1.82-9.4,5.73-14,9.22-.25.2-.32.5-.75.38,1.11-5.54,4.08-11.44,2.65-17.16-1.06-4.25-4.85-7.53-8.96-8.71-6.73-1.93-12.2,1.47-18.18,3.91,2.38-5.41,6.7-12.2,3.88-18.14-1.12-2.36-2.12-4-4.64-4.95-5.87-2.2-13.31-1.38-19.43-.89,5.31-3.88,12.72-8.51,13.37-15.77.46-5.12.17-8-3.92-11.22-5.24-4.14-12.59-6.21-19.04-7.59l8.05-3.93c11.89-6.01,11.72-23.38-.15-29.33l-7.9-3.83c6.2-1.16,19.01-4.95,22.1-10.85,2.02-3.87.87-10.36-1.45-13.97-2.75-4.27-7.21-6.73-11.06-9.76,6.12.59,13.15,1.29,19.07-.75,2.71-.94,3.82-2.52,5.04-5.05,2.81-5.78-1.6-12.92-3.92-18.18,7.26,3.23,14.4,7.03,22,2.17,9.08-5.81,4.53-15.89,2.49-24.13.43-.12.5.18.75.38,5.02,3.82,8.72,7.85,15.15,9.59,5.95,1.6,10.51,1.44,13.98-4.19,3.33-5.39,3.13-11.79,2.68-17.9,3.21,4.53,6.08,9.33,10.34,13.01,3.69,3.18,7.69,4.53,11.62,4.31,3.94.22,7.94-1.13,11.63-4.31,4.25-3.68,7.12-8.48,10.34-13.01-.45,6.11-.66,12.51,2.67,17.9,3.48,5.63,8.03,5.79,13.99,4.19,6.43-1.74,10.12-5.77,15.14-9.59.26-.2.32-.5.76-.38-2.04,8.24-6.6,18.32,2.49,24.13,7.6,4.86,14.73,1.06,21.99-2.17-2.32,5.26-6.72,12.4-3.92,18.18,1.23,2.53,2.34,4.11,5.05,5.05,5.92,2.04,12.94,1.34,19.06.75-3.84,3.03-8.3,5.49-11.05,9.76-2.33,3.61-3.47,10.1-1.45,13.97,3.08,5.9,15.89,9.69,22.1,10.85l-7.9,3.83c-11.88,5.95-12.05,23.32-.16,29.33l8.06,3.93c-6.46,1.38-13.8,3.45-19.05,7.59-4.08,3.22-4.38,6.1-3.92,11.22Z"/>
      <path class="cls-1" d="M204.74,141.86c5.25-4.14,12.59-6.21,19.05-7.59l-8.06-3.93c-11.89-6.01-11.72-23.38.16-29.33l7.9-3.83c-6.21-1.16-19.02-4.95-22.1-10.85-2.02-3.87-.88-10.36,1.45-13.97,2.75-4.27,7.21-6.73,11.05-9.76-6.12.59-13.14,1.29-19.06-.75-2.71-.94-3.82-2.52-5.05-5.05-2.8-5.78,1.6-12.92,3.92-18.18-7.26,3.23-14.39,7.03-21.99,2.17-9.09-5.81-4.53-15.89-2.49-24.13-.44-.12-.5.18-.76.38-5.02,3.82-8.71,7.85-15.14,9.59-5.96,1.6-10.51,1.44-13.99-4.19-3.33-5.39-3.12-11.79-2.67-17.9-3.22,4.53-6.09,9.33-10.34,13.01-3.69,3.18-7.69,4.53-11.63,4.31-3.93.22-7.93-1.13-11.62-4.31-4.26-3.68-7.13-8.48-10.34-13.01.45,6.11.65,12.51-2.68,17.9-3.47,5.63-8.03,5.79-13.98,4.19-6.43-1.74-10.13-5.77-15.15-9.59-.25-.2-.32-.5-.75-.38,2.04,8.24,6.59,18.32-2.49,24.13-7.6,4.86-14.74,1.06-22-2.17,2.32,5.26,6.73,12.4,3.92,18.18-1.22,2.53-2.33,4.11-5.04,5.05-5.92,2.04-12.95,1.34-19.07.75,3.85,3.03,8.31,5.49,11.06,9.76,2.32,3.61,3.47,10.1,1.45,13.97-3.09,5.9-15.9,9.69-22.1,10.85l7.9,3.83c11.87,5.95,12.04,23.32.15,29.33l-8.05,3.93c6.45,1.38,13.8,3.45,19.04,7.59,4.09,3.22,4.38,6.1,3.92,11.22-.65,7.26-8.06,11.89-13.37,15.77,6.12-.49,13.56-1.31,19.43.89,2.52.95,3.52,2.59,4.64,4.95,2.82,5.94-1.5,12.73-3.88,18.14,5.98-2.44,11.45-5.84,18.18-3.91,4.11,1.18,7.9,4.46,8.96,8.71,1.43,5.72-1.54,11.62-2.65,17.16.43.12.5-.18.75-.38,4.6-3.49,8.25-7.4,14-9.22,6.56-2.07,11.66-2.13,15.39,4.32,3.1,5.36,2.84,11.41,2.42,17.39,3.61-4.98,6.81-10.52,11.88-14.24,3-2.2,6.56-3.17,10.08-2.99,3.52-.18,7.08.79,10.09,2.99,5.07,3.72,8.26,9.26,11.88,14.24-.43-5.98-.68-12.03,2.42-17.39,3.73-6.45,8.82-6.39,15.38-4.32,5.75,1.82,9.41,5.73,14,9.22.26.2.32.5.76.38-1.12-5.54-4.08-11.44-2.65-17.16,1.06-4.25,4.84-7.53,8.96-8.71,6.73-1.93,12.19,1.47,18.17,3.91-2.38-5.41-6.69-12.2-3.88-18.14,1.12-2.36,2.13-4,4.64-4.95,5.88-2.2,13.31-1.38,19.43-.89-5.3-3.88-12.72-8.51-13.37-15.77-.46-5.12-.16-8,3.92-11.22ZM187.15,148c-13.66,30.33-42.87,46.16-72.16,45.96-29.29.2-58.5-15.63-72.16-45.96-23.62-52.47,15.57-111.35,72.16-110.68,56.6-.67,95.79,58.21,72.16,110.68Z"/>
      <path d="M114.99,37.32c-56.59-.67-95.78,58.21-72.16,110.68,13.66,30.33,42.87,46.16,72.16,45.96,29.29.2,58.5-15.63,72.16-45.96,23.63-52.47-15.56-111.35-72.16-110.68ZM179.57,152.52c-14.2,24.68-39.42,37-64.58,36.74-25.15.26-50.37-12.06-64.57-36.74-28.81-50.08,8.3-110.73,64.57-110.45,56.27-.28,93.39,60.37,64.58,110.45Z"/>
      <path class="cls-2" d="M179.58,152.52c-14.2,24.68-39.42,37-64.58,36.74-25.15.26-50.37-12.06-64.57-36.74-28.81-50.08,8.3-110.73,64.57-110.45,56.27-.28,93.39,60.37,64.58,110.45Z"/>
      <path d="M180.28,94.22c-.71,1.2-1.48.63-2.58.57-1.28,10.8-6.87,20.89-18.18,23.35-14.78,3.21-24.51-6.37-28.14-19.81-.55-.65-4.84-1.52-5.8-1.54-.21,0-.52.02-.9.07-.37-.05-.68-.07-.89-.07-.96.02-5.26.89-5.8,1.54-3.64,13.44-13.37,23.02-28.15,19.81-11.3-2.46-16.9-12.55-18.17-23.35-1.1.06-1.88.63-2.58-.57-.54-.93-1.62-6.47-1.17-7.21,6.25-2.73,13.08-2.81,19.77-3.08,6.41-.25,24.49-.62,29.65,2.92.92.64,1.44,2.05,1.95,2.34.96.54,3.26.76,5.39.68,2.13.08,4.44-.14,5.39-.68.52-.29,1.04-1.7,1.96-2.34,5.15-3.54,23.23-3.17,29.64-2.92,6.69.27,13.53.35,19.77,3.08.46.74-.62,6.28-1.16,7.21Z"/>
      <g>
        <path d="M162.46,138.52c-5.78.21-9.29-5.56-7.92-10.84l-1.38.25-.63,3.79h-43.43l-.63-3.79-1.39-.25c1.38,5.28-2.14,11.05-7.91,10.84l-.35.65c.48,1.52,4.29-.04,4.47.12,3.7,13.48,13.91,22.11,27.52,21.78,13.61.33,23.83-8.3,27.52-21.78.18-.16,4,1.4,4.48-.12l-.35-.65ZM155.35,141.73c-3.3,7.87-9.15,14.46-17.76,16.32-2.32.5-4.59.73-6.78.7-2.19.03-4.46-.2-6.78-.7-8.6-1.86-14.46-8.45-17.75-16.32-.28-.65-1.38-3.27-1.11-3.7.13-.21,1.39-1.09,1.87-1.69.56-.71,1.2-1.68,1.33-2.57,7.5.21,14.96.06,22.44-.01,7.49.07,14.94.22,22.45.01.12.89.76,1.86,1.33,2.57.48.6,1.73,1.48,1.86,1.69.28.43-.83,3.05-1.1,3.7Z"/>
        <path class="cls-3" d="M155.35,141.73c-3.3,7.87-9.15,14.46-17.76,16.32-2.32.5-4.59.73-6.78.7-2.19.03-4.46-.2-6.78-.7-8.6-1.86-14.46-8.45-17.75-16.32-.28-.65-1.38-3.27-1.11-3.7.13-.21,1.39-1.09,1.87-1.69.56-.71,1.2-1.68,1.33-2.57,7.5.21,14.96.06,22.44-.01,7.49.07,14.94.22,22.45.01.12.89.76,1.86,1.33,2.57.48.6,1.73,1.48,1.86,1.69.28.43-.83,3.05-1.1,3.7Z"/>
      </g>
    </g>
  </g>
</svg>