<?xml version="1.0" encoding="UTF-8"?>
<svg id="Layer_2" xmlns="http://www.w3.org/2000/svg" viewBox="0 0 99.99 231.48">
  <defs>
    <style>
      .cls-1 {
        fill: #f8ec23;
      }

      .cls-2 {
        fill: #fdcd07;
      }

      .cls-3 {
        fill: #fff;
      }
    </style>
  </defs>
  <g id="sun">
    <g>
      <path d="M77.3,144.17c6.43-4.35,14.57-5.64,21.87-7.86,1.37-2.04,1.03-3.07-1.02-4.25-5.11-2.98-10.54-3.72-14.7-8.77-7.46-9.04-.15-16.83,8.22-21.04,1.85-.93,7.78-2.69,8.26-4.62.27-1.08-.48-2.26-1.46-2.74-2.41-1.17-7.31-1.8-10.18-2.7-3.28-1.02-11.94-4.4-13.69-7.25-1-1.62.16-6.64.89-8.46.93-2.3,3.04-4.57,4.92-6.19,1.93-1.67,9.6-6.19,10.04-8.13.28-1.24-.25-2.75-1.5-3.18-2.69-.93-8.83.45-11.95.59-2.5.11-8.36.06-10.59-.77-.4-.14-1.62-1.07-1.9-1.38-4.8-5.33,1.51-13.68,3.58-18.88.62-1.59,1.48-4.63-1.19-4.73-1.91-.08-8.2,3.47-10.59,4.3-4.47,1.58-8.63,2.49-12.73-.65-6-4.59-2.15-12.11-.9-18.02.45-2.17,2.23-8.47-1.74-8.07-1.81.18-5.11,3.94-6.74,5.14-3.16,2.34-10.46,6.53-14.27,6.93-1.74.19-5.26.22-6.57-1.06-1.82-1.76-2.98-7.87-3.13-10.38-.16-2.7.39-5.57.27-8.1-.19-4.34-3.21-5.12-6.07-2.02C2.9,3.53,1.48,5.59,0,7.67v6.43c2.56-2.99,4.67-6.34,6.96-9.56-.45,6.11-.66,12.51,2.67,17.9,3.48,5.63,8.03,5.79,13.99,4.19,6.43-1.74,10.12-5.77,15.14-9.59.26-.2.32-.5.76-.38-2.04,8.24-6.6,18.32,2.49,24.13,7.6,4.86,14.73,1.06,21.99-2.17-2.32,5.26-6.72,12.4-3.92,18.18,1.23,2.53,2.34,4.11,5.05,5.05,5.92,2.04,12.94,1.34,19.06.75-3.84,3.03-8.3,5.49-11.05,9.76-2.33,3.61-3.47,10.1-1.45,13.97,3.08,5.9,15.89,9.69,22.1,10.85l-7.9,3.83c-11.88,5.95-12.05,23.32-.16,29.33l8.06,3.93c-6.46,1.38-13.8,3.45-19.05,7.59-4.08,3.22-4.38,6.1-3.92,11.22.65,7.26,8.07,11.89,13.37,15.77-6.12-.49-13.55-1.31-19.43.89-2.51.95-3.52,2.59-4.64,4.95-2.81,5.94,1.5,12.73,3.88,18.14-5.98-2.44-11.44-5.84-18.17-3.91-4.12,1.18-7.9,4.46-8.96,8.71-1.43,5.72,1.53,11.62,2.65,17.16-.44.12-.5-.18-.76-.38-4.59-3.49-8.25-7.4-14-9.22-6.56-2.07-11.65-2.13-15.38,4.32-3.1,5.36-2.85,11.41-2.42,17.39-2.3-3.16-4.42-6.54-6.96-9.54v6.13c2.11,3.05,5.1,7.53,6.89,7.9,2.46.51,3.37-1.27,3.57-3.38.26-2.61-.41-5.97-.23-8.81.15-2.29,1.44-8.62,3.12-10.14,1.29-1.17,4.66-1.22,6.33-1.05,4.12.41,11.25,4.57,14.62,7.08,1.74,1.29,5.04,5.11,7.11,5.02,3.31-.15,1.72-5.89,1.31-7.89-1.23-5.97-5.2-13.59.86-18.23,3.79-2.9,7.75-2.3,11.97-.91,2.57.85,9.38,4.65,11.35,4.57,1.75-.08,2.06-1.59,1.78-3.06-.47-2.52-3.24-6.62-4.3-9.34-.93-2.42-2.06-5.48-1.53-8.08.29-1.42,2.02-3.92,3.36-4.46,1.98-.8,8.01-.92,10.28-.82,3.23.13,7.26,1.1,10.34,1.01,2.09-.06,4.02-.99,3.66-3.4-.28-1.95-5.05-4.55-6.63-5.74-5.69-4.29-9.9-7.81-9.71-15.73.04-1.66,1.87-2.99,3.15-3.86Z"/>
      <path class="cls-1" d="M74.74,141.86c5.25-4.14,12.59-6.21,19.05-7.59l-8.06-3.93c-11.89-6.01-11.72-23.38.16-29.33l7.9-3.83c-6.21-1.16-19.02-4.95-22.1-10.85-2.02-3.87-.88-10.36,1.45-13.97,2.75-4.27,7.21-6.73,11.05-9.76-6.12.59-13.14,1.29-19.06-.75-2.71-.94-3.82-2.52-5.05-5.05-2.8-5.78,1.6-12.92,3.92-18.18-7.26,3.23-14.39,7.03-21.99,2.17-9.09-5.81-4.53-15.89-2.49-24.13-.44-.12-.5.18-.76.38-5.02,3.82-8.71,7.85-15.14,9.59-5.96,1.6-10.51,1.44-13.99-4.19-3.33-5.39-3.12-11.79-2.67-17.9C4.67,7.76,2.56,11.11,0,14.1v24.47c48.21,8.76,78.63,61.74,57.15,109.43-11.31,25.12-33.29,40.29-57.15,44.65v24.71c2.54,3,4.66,6.38,6.96,9.54-.43-5.98-.68-12.03,2.42-17.39,3.73-6.45,8.82-6.39,15.38-4.32,5.75,1.82,9.41,5.73,14,9.22.26.2.32.5.76.38-1.12-5.54-4.08-11.44-2.65-17.16,1.06-4.25,4.84-7.53,8.96-8.71,6.73-1.93,12.19,1.47,18.17,3.91-2.38-5.41-6.69-12.2-3.88-18.14,1.12-2.36,2.13-4,4.64-4.95,5.88-2.2,13.31-1.38,19.43-.89-5.3-3.88-12.72-8.51-13.37-15.77-.46-5.12-.16-8,3.92-11.22Z"/>
      <path d="M0,38.57v4.92c14.55,2.86,27.29,9.93,37.21,19.66,16.1,15.8,24.79,38.61,21.77,61.87-.8,6.15-2.42,12.34-4.94,18.44-.64,1.52-1.32,3.04-2.06,4.55-.75,1.51-1.55,3.02-2.41,4.51-3.51,6.1-7.7,11.45-12.39,16.04-10.49,10.26-23.51,16.72-37.18,19.34v4.75c23.86-4.36,45.84-19.53,57.15-44.65C78.63,100.31,48.21,47.33,0,38.57Z"/>
      <path class="cls-2" d="M58.98,125.02c-.8,6.15-2.42,12.34-4.94,18.44-.62,1.52-1.31,3.04-2.06,4.55-.74,1.51-1.54,3.02-2.4,4.51-3.51,6.11-7.71,11.46-12.4,16.04-10.49,10.26-23.51,16.72-37.18,19.34V43.49c14.55,2.86,27.29,9.93,37.21,19.66,16.11,15.79,24.8,38.6,21.77,61.87Z"/>
      <path d="M50.28,94.22c-.71,1.2-1.48.63-2.58.57-1.28,10.8-6.87,20.89-18.18,23.35-14.78,3.21-24.51-6.37-28.14-19.81-.17-.2-.7-.43-1.38-.64v-8.46s.05-.03.07-.04c.52-.29,1.04-1.7,1.96-2.34,5.15-3.54,23.23-3.17,29.64-2.92,6.69.27,13.53.35,19.77,3.08.46.74-.62,6.28-1.16,7.21Z"/>
      <g>
        <path d="M32.46,138.52c-5.78.21-9.29-5.56-7.92-10.84l-1.38.25-.63,3.79H0v2.05c.27,0,.54,0,.81,0,7.49.07,14.94.22,22.45,0,.12.89.76,1.86,1.33,2.57.48.6,1.73,1.48,1.86,1.69.28.43-.83,3.05-1.1,3.7-3.3,7.87-9.15,14.46-17.76,16.32-2.32.5-4.59.73-6.78.7-.27,0-.54,0-.81-.01v2.34c.27,0,.54,0,.81,0,13.61.33,23.83-8.3,27.52-21.78.18-.16,4,1.4,4.48-.12l-.35-.65Z"/>
        <path class="cls-3" d="M25.35,141.73c-3.3,7.87-9.15,14.46-17.76,16.32-2.32.5-4.59.73-6.78.7-.27,0-.54,0-.81-.01v-24.97c.27,0,.54,0,.81,0,7.49.07,14.94.22,22.45,0,.12.89.76,1.86,1.33,2.57.48.6,1.73,1.48,1.86,1.69.28.43-.83,3.05-1.1,3.7Z"/>
      </g>
    </g>
  </g>
</svg>