<?xml version="1.0" encoding="UTF-8"?>
<svg id="Layer_2" data-name="Layer 2" xmlns="http://www.w3.org/2000/svg" xmlns:xlink="http://www.w3.org/1999/xlink" viewBox="0 0 230 229.57">
  <defs>
    <style>
      .cls-1 {
        stroke: #000;
        stroke-miterlimit: 10;
        stroke-width: 3px;
      }

      .cls-1, .cls-2 {
        fill: #fff;
      }

      .cls-3 {
        fill: #10172e;
        opacity: .56;
      }

      .cls-4 {
        opacity: .4;
      }

      .cls-5 {
        fill: none;
      }

      .cls-6 {
        fill: #aad3f0;
      }

      .cls-7 {
        fill: #cceafa;
      }

      .cls-8 {
        clip-path: url(#clippath);
      }
    </style>
    <clipPath id="clippath">
      <path class="cls-5" d="M106.6,7.12c91.11-5.64,149.32,94.68,96.66,169.82-47.84,68.26-152.89,58.28-187-17.62C-14.21,91.52,32.21,11.72,106.6,7.12Z"/>
    </clipPath>
  </defs>
  <g id="uranus">
    <g>
      <path class="cls-2" d="M109.77.15C20.04,4.6-30.7,105.38,20.29,179.95c46.81,68.45,149.65,65.46,192.79-5.18C260.94,96.42,201.19-4.38,109.77.15Z"/>
      <path d="M109.77.15c91.42-4.53,151.18,96.27,103.32,174.62-43.15,70.64-145.99,73.63-192.79,5.18C-30.7,105.38,20.04,4.6,109.77.15ZM106.8,7.18C32.41,11.78-14.01,91.58,16.46,159.37c34.12,75.91,139.17,85.88,187,17.62C256.12,101.85,197.91,1.53,106.8,7.18Z"/>
      <g class="cls-8">
        <g>
          <rect class="cls-5" x="1.97" y="4.66" width="224.38" height="224.38"/>
          <g>
            <circle class="cls-6" cx="114.16" cy="116.85" r="112.19"/>
            <g class="cls-4">
              <path class="cls-3" d="M181.2,29.02c14.24,18.61,22.73,41.85,22.73,67.04,0,60.96-49.59,110.55-110.55,110.55-25.19,0-48.43-8.49-67.04-22.73,20.22,26.43,52.06,43.51,87.83,43.51,60.96,0,110.55-49.59,110.55-110.55,0-35.77-17.09-67.61-43.51-87.83Z"/>
            </g>
          </g>
          <ellipse class="cls-7" cx="96.02" cy="66.2" rx="70.83" ry="56.23" transform="translate(-15.3 31.41) rotate(-17.23)"/>
        </g>
        <g>
          <rect class="cls-5" x="1.97" y="4.66" width="224.38" height="224.38"/>
          <g>
            <circle class="cls-6" cx="114.16" cy="116.85" r="112.19"/>
            <g class="cls-4">
              <path class="cls-3" d="M181.2,29.02c14.24,18.61,22.73,41.85,22.73,67.04,0,60.96-49.59,110.55-110.55,110.55-25.19,0-48.43-8.49-67.04-22.73,20.22,26.43,52.06,43.51,87.83,43.51,60.96,0,110.55-49.59,110.55-110.55,0-35.77-17.09-67.61-43.51-87.83Z"/>
            </g>
          </g>
          <ellipse class="cls-7" cx="96.02" cy="66.2" rx="70.83" ry="56.23" transform="translate(-15.3 31.41) rotate(-17.23)"/>
        </g>
        <g>
          <rect class="cls-5" x="1.97" y="4.66" width="224.38" height="224.38"/>
          <g>
            <circle class="cls-6" cx="114.16" cy="116.85" r="112.19"/>
            <g class="cls-4">
              <path class="cls-3" d="M181.2,29.02c14.24,18.61,22.73,41.85,22.73,67.04,0,60.96-49.59,110.55-110.55,110.55-25.19,0-48.43-8.49-67.04-22.73,20.22,26.43,52.06,43.51,87.83,43.51,60.96,0,110.55-49.59,110.55-110.55,0-35.77-17.09-67.61-43.51-87.83Z"/>
            </g>
          </g>
          <ellipse class="cls-7" cx="96.02" cy="66.2" rx="70.83" ry="56.23" transform="translate(-15.3 31.41) rotate(-17.23)"/>
        </g>
        <g>
          <rect class="cls-5" x="1.97" y="4.66" width="224.38" height="224.38"/>
          <g>
            <circle class="cls-6" cx="114.16" cy="116.85" r="112.19"/>
            <g class="cls-4">
              <path class="cls-3" d="M181.2,29.02c14.24,18.61,22.73,41.85,22.73,67.04,0,60.96-49.59,110.55-110.55,110.55-25.19,0-48.43-8.49-67.04-22.73,20.22,26.43,52.06,43.51,87.83,43.51,60.96,0,110.55-49.59,110.55-110.55,0-35.77-17.09-67.61-43.51-87.83Z"/>
            </g>
          </g>
          <ellipse class="cls-7" cx="96.02" cy="66.2" rx="70.83" ry="56.23" transform="translate(-15.3 31.41) rotate(-17.23)"/>
        </g>
      </g>
      <path d="M77.53,96.57c14.49-3.75,16.46,27.47,3.89,30.2-13.49,2.93-15.38-27.23-3.89-30.2Z"/>
      <path d="M148.27,96.58c14.08-3.15,15.83,28.31,2.83,30.27-12.97,1.96-15.01-27.55-2.83-30.27Z"/>
    </g>
    <path class="cls-1" d="M134.33,148.93c-2.12-.24-5.75-.76-7.96-.78-9.77.06-20.23-.89-29.86.75-6.44,1.09-18.34,4.59-8.84,11.24,10.76,7.54,39.01,7.1,51.07,2.23,13.44-5.44,7-12.29-4.41-13.44Z"/>
    <path class="cls-1" d="M84.2,154.98c21.86,2.83,44.36,2.33,61.33-1.11"/>
  </g>
</svg>