<?xml version="1.0" encoding="UTF-8"?>
<svg id="Layer_2" data-name="Layer 2" xmlns="http://www.w3.org/2000/svg" xmlns:xlink="http://www.w3.org/1999/xlink" viewBox="0 0 230 230.3">
  <defs>
    <style>
      .cls-1 {
        fill: #df5426;
      }

      .cls-2 {
        fill: #10172e;
      }

      .cls-2, .cls-3 {
        opacity: .56;
      }

      .cls-4 {
        fill: #fff;
      }

      .cls-5 {
        fill: none;
      }

      .cls-6 {
        fill: #fdd83f;
      }

      .cls-7 {
        fill: #fbb23b;
      }

      .cls-8 {
        fill: #be3526;
      }

      .cls-9 {
        clip-path: url(#clippath);
      }
    </style>
    <clipPath id="clippath">
      <path class="cls-5" d="M106.6,7.12c91.11-5.64,149.32,94.68,96.66,169.82-47.84,68.26-152.89,58.28-187-17.62C-14.21,91.52,32.21,11.72,106.6,7.12ZM77.32,106.98c-11.49,1.95-9.6,21.71,3.89,19.79,12.57-1.79,10.6-22.25-3.89-19.79ZM148.06,106.99c-12.19,1.79-10.14,21.12,2.83,19.84,13-1.29,11.25-21.91-2.83-19.84ZM82.52,141.77c-11.33,1.55-9.44,12.91-4.29,20,12.93,17.82,41.55,21.63,60.18,11.04,7.29-4.14,19.3-14.89,16.76-24.27-3.22-11.9-20.87-4.68-29.09-3.58-7.64,1.02-14.86,1.01-22.5,0-6.27-.83-15.11-4-21.06-3.19Z"/>
    </clipPath>
  </defs>
  <g id="venus">
    <g>
      <path class="cls-4" d="M109.77.15C20.04,4.6-30.7,105.38,20.29,179.95c46.81,68.45,149.65,65.46,192.79-5.18C260.94,96.42,201.19-4.38,109.77.15Z"/>
      <path d="M109.77.15c91.42-4.53,151.18,96.27,103.32,174.62-43.15,70.64-145.99,73.63-192.79,5.18C-30.7,105.38,20.04,4.6,109.77.15ZM106.8,7.18C32.41,11.78-14.01,91.58,16.46,159.37c34.12,75.91,139.17,85.88,187,17.62C256.12,101.85,197.91,1.53,106.8,7.18Z"/>
      <g class="cls-9">
        <g>
          <rect class="cls-5" x="4.25" y="4.62" width="225.69" height="225.69"/>
          <circle class="cls-1" cx="117.1" cy="117.46" r="112.84" transform="translate(-23.85 204.88) rotate(-76.9)"/>
          <path class="cls-8" d="M28.88,79.99c-.86,5.1-5.43,8.63-7.95,13.15-3.95,7.09-2.52,15.83-.97,23.8.45,2.33.97,4.79,2.55,6.56,1.58,1.77,4.62,2.48,6.32.82,1.38-1.34,1.34-3.55.97-5.43-.3-1.53-1.22-10.77,3.17-7.68.91.64,1.43,1.7,2.26,2.43,1.63,1.46,4.45,1.28,5.89-.37,1.44-1.65,1.24-4.46-.42-5.88-1-.86-2.35-1.2-3.42-1.97-1.07-.77-1.79-2.39-.92-3.39.82-.94,2.36-.59,3.44.03,1.08.62,2.17,1.48,3.41,1.33,1.52-.18,2.47-1.92,2.3-3.44-.32-2.93-4.58-4.91-3.85-7.88.72-2.92,4.73-2.69,6.89-3.54,3.98-1.58,5.21-6.7,8.58-9.34,4.11-3.24,10.6-2.2,14.4-5.81,2.42-2.3,3.03-6.27,1.41-9.19-1.62-2.92-5.32-4.5-8.55-3.67-5.53,1.43-8.98,8.46-15.24,5.18-4.29-2.25-6.45-5.84-11.77-6.6-15.51-2.23-7.13,12.75-8.5,20.89Z"/>
          <path class="cls-8" d="M71.49,44.82c1.64-.96,3.32-1.94,4.58-3.36,1.26-1.42,2.06-3.39,1.63-5.24-.49-2.08-2.35-3.51-4.09-4.76-.86-.62-1.78-1.26-2.84-1.32-3.16-.17-4.42,4.08-5.78,6.16-1.93,2.95-5.53,5.52-7.01,8.66-4.75,10.06,10.41,1.67,13.52-.14Z"/>
          <path class="cls-8" d="M127.47,52c1.19.76,2.63,1.03,3.89,1.68,5.56,2.87,5.06,11,8.44,16.28,1.12,1.75,2.79,3.24,4.81,3.73,2.02.49,4.39-.19,5.52-1.94,1.49-2.31.39-5.5-1.49-7.51-1.88-2.01-4.4-3.29-6.44-5.14-3.51-3.17-5.42-8.02-5-12.73.41-4.71,3.14-9.16,7.14-11.67,2.6-1.63,6.08-2.98,6.51-6.02.51-3.57-3.6-5.85-7-7.05-6.13-2.16-27.72-12.98-24.33,3.06,1.07,5.07,5.44,6.62,5.42,12.51-.02,5.04-2.28,11.17,2.55,14.79Z"/>
          <path class="cls-8" d="M172.65,84.25c.3,1.16.81,2.28.85,3.48.14,3.41-3.22,5.74-5.82,7.96-1.47,1.27-2.83,2.74-3.55,4.55-.72,1.8-.71,3.98.39,5.58,1.1,1.6,3.43,2.37,5.11,1.41,1.52-.86,2.12-2.74,2.33-4.47s.17-3.55.93-5.12c1.9-3.97,8.09-4.98,8.98-9.3.69-3.4-.8-17.35-6.45-13.64-2.4,1.58-3.47,6.89-2.78,9.56Z"/>
          <path class="cls-8" d="M76.57,88.75c-.21,4.17,3.19,7.79,3.39,11.96.17,3.64-2.09,6.88-3.24,10.34-1.15,3.45-.48,8.29,3.03,9.25,3.27.89,6.3-2.48,6.88-5.81.58-3.33-.35-6.75-.16-10.13.18-3.38,2.15-7.19,5.52-7.48,3.2-.27,6.25,2.76,9.3,1.74,2.43-.81,3.37-3.79,3.3-6.35-.07-2.56-.79-5.15-.22-7.64,1.19-5.14,6.7-7.24,9.24-11.49,3.01-5.04.38-11.52-5.87-12.07-7.85-.69-9.87,12.17-16.09,15.72-5.27,3-14.68,4.19-15.08,11.97Z"/>
          <path class="cls-8" d="M88.52,200.99c.33.09.66.18.98.3,2.85,1,5.05,3.14,8.09,3.96,6.09,1.63,13.07.42,17.89-3.76,2.89-2.5,6.28-6.17,9.75-4.56,1.9.88,3.37,3.28,5.4,2.79,1.93-.47,2.41-3.21,4.21-4.05,1.49-.7,3.19.18,4.77.64,5.46,1.6,11.81-2.88,12.13-8.56.11-1.95-.38-3.92-.05-5.85.33-1.93,1.96-3.89,3.88-3.56,4.48.78,1.7,10.41,6.22,10.91,1.57.17,2.88-1.11,3.93-2.28,6.01-6.72,14.33-19.19,24.61-19.04,6.46.09,4.8,7.17,2.45,11.63-3.06,5.8-8.6,11.61-12.9,16.58-20.99,24.26-61.46,32.46-91.78,24.52-8.56-2.24-19.97-5.58-25.98-12.44-4.36-4.97-6.87-13.47,1.83-15.24,6.31-1.29,13.15,4.28,18.63,6.57,1.96.82,3.98.95,5.91,1.45Z"/>
          <path class="cls-8" d="M69.95,112.15c.88,4.14.7,8.48,1.9,12.54.67,2.27,1.9,4.57,4.03,5.6,2.71,1.31,6.13.11,8.11-2.16,1.98-2.27,2.75-5.35,3.04-8.34.17-1.75.2-3.53.73-5.21s1.64-3.29,3.31-3.86c2.36-.81,4.83.64,6.9,2.03-.45-2.22-.9-4.55-.26-6.73.63-2.18,2.72-4.12,4.96-3.76.82.13,1.65.54,2.43.27,1.53-.54,1.14-2.75,1.14-4.37-.01-3.47,3.8-6.39,7.15-5.47,2.64,1.58,4.3,4.44,5.11,7.41.81,2.97.86,6.08.93,9.16.05,2.28.36,4.97,2.35,6.06,2.13,1.17,4.94-.45,5.9-2.69.97-2.24.62-4.79.26-7.2.99,2.86,1.97,5.76,2.2,8.77.23,3.01-.36,6.2-2.23,8.58-1.87,2.37-5.19,3.73-8.05,2.75-3.73-1.27-5.88-5.93-9.8-6.3-3.52-.34-6.2,2.93-8.26,5.8-3.21,4.47-6.64,8.86-10.93,12.3-4.29,3.44-9.56,5.9-15.06,5.99s-11.19-2.46-14.04-7.17c-3.36-5.55-2.27-12.66-.39-18.87.76-2.53,1.72-5.5.65-8.08-.73-1.76-2.44-2.65-.48-4.19,4.57-3.6,7.75,3.95,8.42,7.13Z"/>
          <path class="cls-8" d="M126.61,63.03c1.57,1.16,2.65,2.87,3.59,4.58,1.73,3.12,3.15,6.42,4.24,9.82.99,3.08,2.4,6.87,5.61,7.2,1.74.18,3.4-.84,4.58-2.13,1.18-1.29,1.99-2.86,3.02-4.28,1.5-2.05,3.51-3.8,5.92-4.61,2.41-.82,5.22-.61,7.29.88,2.9,2.09,3.71,6.13,3.28,9.68-.43,3.55-1.83,6.92-2.42,10.44-.73,4.32-.19,8.84,1.51,12.88,1.12,2.64,3.37,5.4,6.22,5.05,2.28-.28,3.8-2.41,5.02-4.35,4.1-6.47,8.28-13.12,9.77-20.63,2.11-10.58-1.76-22.16-9.81-29.34-3.06-2.73-6.61-4.82-9.93-7.23-.66-.48-1.39-1.22-1.08-1.97.27-.66,1.14-.79,1.85-.79,12.29-.06,24.27,6.85,30.81,17.25,6.55,10.4,7.65,23.91,3.36,35.43-4.29,11.52-13.74,20.89-25.11,25.58-5.21,2.15-11.59,3.22-16.18-.05-6.82-4.86-5.44-15.74-10.67-22.28-2.48-3.09-6.18-4.88-9.48-7.07-7.31-4.85-12.95-12.11-15.99-20.33-1.05-2.84-3.77-7.38-3.75-10.42.03-4.31,5.18-5.62,8.32-3.3Z"/>
          <path class="cls-8" d="M24.6,133.36c1.01.23,2.09.18,3.29-.29,5.19-2.01,9.25-6.94,12.51-11.25,4.09-5.41,7.9-11.3,13.64-14.91,1.15-.72,2.73-1.32,3.78-.45,1.18.97.66,2.85.04,4.24-2.31,5.21-4.4,9.46-7.87,13.89-3.45,4.42-7.35,8.44-11.29,12.42-2.89,2.92-6.46,6.08-10.52,5.45-3.86-.6-6.17-4.2-8.53-6.92-2.26-2.6-5.21-4.52-7.44-7.09-2.27-2.62-.99-3.27,2.28-2.01,3.74,1.45,6.39,6.07,10.1,6.91Z"/>
          <path class="cls-7" d="M31.71,136.21c-2.63,1.2-5.16,1.44-7.26.04-2.7-1.81-14.89-19.66-14.45-5.53.13,4.29,2,8.61,5.13,11.56,3.1,2.92,7.6,5.13,8.28,9.34,1.18,7.34-2.57,12.54,4.05,18.48,6.87,6.16,18.5,9.83,27.13,12.57,2.86.91,6.47,1.51,8.43-.76,1.96-2.28.9-6.07,2.69-8.49,1.83-2.48,5.85-2.19,8.28-.31,2.44,1.89,3.74,4.84,5.15,7.58,4.02,7.78,9.99,14.99,18.12,18.25,8.13,3.27,18.6,1.62,23.81-5.42,3.13-4.23,5.29-10.68,10.55-10.82,4.84-.13,8.54,5.73,13.32,4.98,3.99-.63,5.77-5.53,5.44-9.55-.33-4.02-1.93-7.98-1.37-11.98.56-4,4.84-7.9,8.39-5.97,3.06,1.68,3,5.98,2.99,9.48,0,3.49,1.57,8,5.06,7.85,2.95-.13,4.49-3.77,4.14-6.7-.35-2.93-1.85-5.66-2.01-8.61-.31-5.88,4.89-10.8,10.48-12.66,5.59-1.85,11.63-1.51,17.5-2.07,5.86-.56,12.13-2.37,15.56-7.16,5.68-7.93.79-18.81.76-28.57-.02-6.51,2.24-12.79,3.05-19.25,2.98-23.57-19.79-45.64-40.84-51.24-4.54-1.2-10.84-.89-12.12,3.62-1.03,3.66,2.43,7.17,6.04,8.35,3.61,1.18,7.58.99,11.14,2.32,11.02,4.12,12.08,19.05,11.23,30.78-.64,8.79-1.41,18-6.23,25.38-4.91,7.51-16.74,13.9-22.98,5.3-5.73-7.9-6.45-19.72-2.39-28.44,1.41-3.04,3.29-6.86,1.09-9.39-2.38-2.74-7.02-.8-9.3,2.02-2.28,2.82-3.89,6.52-7.24,7.92-4.85,2.03-10.24-2.2-12.34-7.02-2.1-4.82-2.27-10.3-4.38-15.11-1.03-2.34-3.56-4.78-5.78-3.52-1.54.87-1.77,2.97-1.76,4.74.06,11.34,2.58,22.66,7.34,32.95,1.64,3.54,3.58,7.18,3.37,11.07-.21,3.89-3.69,7.91-7.48,7.01-2.8-.67-4.46-3.67-4.81-6.53-.35-2.86.27-5.74.28-8.62,0-2.88-.78-6.04-3.15-7.68-2.37-1.64-6.47-.55-6.8,2.31-.23,1.97,1.16,4.42-.35,5.7-1.63,1.38-4.18-.81-6.21-.13-2.41.81-1.87,4.31-1.13,6.74.74,2.43.04,6.25-2.47,5.83-1.54-.26-2.24-2.12-3.61-2.88-2.2-1.23-4.93,1.03-5.53,3.48-.6,2.45.02,5.04-.26,7.54-.48,4.23-3.81,7.98-7.95,8.96-22.8,5.41-4.86-32.99-19.45-29.95-6.76,1.41-8.55,10.74-11.8,15.4-2.74,3.92-10.42,13.68-17.34,16.82Z"/>
          <path class="cls-7" d="M80.43,43.42c-3.28,2.79-8.36,5.08-8,9.38.44,5.17,8.9,7.39,8.21,12.53-.41,3.07-4.21,5.63-2.99,8.48,1.21,2.83,5.59,1.73,7.83-.39,3.33-3.16,5.33-7.43,7.95-11.19,2.62-3.77,6.33-7.3,10.91-7.6,4.2-.28,9.29,1.92,12.1-1.21,1.63-1.82,1.48-4.62.74-6.95-.74-2.32-1.97-4.53-2.22-6.95-.51-5.05,3.32-9.7,3.13-14.77-.21-5.53-5.32-9.88-10.72-11.09-5.89-1.33-24.52-.77-24.75,7.64-.1,3.62,2.56,7.16,2.61,10.93.06,4.18-1.57,8.46-4.8,11.2Z"/>
          <path class="cls-7" d="M44.17,39.01c-2.09,2.62-2.9,6.22-2.13,9.48.77,3.26,3.1,6.12,6.14,7.53,1.41,1.18,3.75.1,4.48-1.59.74-1.69.37-3.63-.03-5.42-.4-1.8-.8-3.72-.13-5.43.53-1.34,1.64-2.34,2.71-3.31,1.07-.97,2.16-2.01,2.61-3.38,2.63-7.9-11.78-.24-13.66,2.11Z"/>
          <path class="cls-7" d="M168.15,67.33c-1.1-2.18-7.25-15.02-9.87-14.94-2.27.06-1.06,4.13-.74,5.87.75,4.07,2.04,8.62,4.17,12.2,3.69,6.21,9.92,3.75,6.44-3.13Z"/>
          <path class="cls-7" d="M156.83,26.64c1.84,2.42,3.48,5.13,6.05,6.75,2.57,1.62,6.48,1.68,8.22-.82,1.17-1.68,1-4.03.06-5.86-.94-1.83-2.51-3.23-4.09-4.54-4.07-3.37-18.25-14-24.08-9.56-3.15,2.39,1.22,4.44,3.54,5.82,4.02,2.41,7.38,4.36,10.3,8.21Z"/>
          <path class="cls-7" d="M208.4,153.66c1.53-1.07,3.31-2.49,5.05-1.8,1.47.58,1.99,2.35,2.33,3.9.84,3.85,1.63,8.05-.15,11.56-1.17,2.31-3.29,3.95-5.16,5.73-3.44,3.27-6.21,7.24-8.1,11.59-.71,1.65-1.33,3.38-2.51,4.74-1.18,1.35-3.12,2.24-4.8,1.58-2.23-.87-2.75-3.88-2.12-6.19.91-3.34,3.36-6.01,5.1-9,1.74-3,2.69-7.01.6-9.77-.98-1.3-2.47-2.09-3.79-3.04-1.32-.95-2.58-2.26-2.68-3.89-.23-3.9,12.94-3.11,16.23-5.4Z"/>
          <path class="cls-6" d="M49.04,133.26c2.94-.91,6.05,1.09,7.85,3.59,1.93,2.68,2.83,7.42,5.66,9.2,2.33,1.47,5.99.87,7.53-1.47.54-.81,1.07-1.91,2.04-1.9.97,0,1.5,1.1,2.23,1.75,1.5,1.34,3.98.63,5.4-.79,1.42-1.42,2.18-3.35,3.35-4.98,1.17-1.63,3.11-3.04,5.06-2.56,2.99.74,3.57,5.05,6.3,6.49,2.39,1.25,5.42-.33,6.92-2.58,1.5-2.25,1.96-5,2.89-7.53,1.33-3.64,3.68-6.9,6.71-9.31,2.29-1.83,5.32-3.21,8.09-2.29,2.82.94,4.44,3.99,4.87,6.93.43,2.94-.03,5.94.1,8.92.06,1.42.64,3.2,2.05,3.26.68.03,1.29-.39,1.81-.83,2-1.71,3.36-4.04,4.98-6.12,1.62-2.08,3.7-4.04,6.3-4.47,2.45-.41,4.89.6,7.32,1.15,5.12,1.16,9.92-.38,14.92-1.28,4.67-.84,9.34-1.86,14-2.9,1.49-.33,3.18-.81,3.84-2.2.47-.99.27-2.19.77-3.17.83-1.63,3.4-1.74,4.69-.44,1.29,1.3,1.38,3.45.67,5.13-.71,1.69-2.08,3-3.48,4.18-4.36,3.68-9.34,6.54-14.29,9.38-2.11,1.21-4.43,2.47-6.83,2.1-2.89-.44-5.53-3.17-8.3-2.22-3.3,1.13-3.82,6.67-7.28,7.04-2.83.29-4.63-3.28-7.43-3.82-2.42-.47-4.59,1.44-6.32,3.2-4.04,4.13-7.95,8.43-12.08,12.44-3.32,3.23-6.89,7.17-11.83,7.5-5.1.34-9.55-3.42-14.57-4.41-5.67-1.12-11.33,1.36-16.92,2.84-5.59,1.47-12.5,1.52-16.07-3.02-2.3-2.92-3.15-7.58-6.76-8.48-3.69-.91-6.61,2.97-10,4.68-6.51,3.3-16.94-3.74-11.22-9.54,1.71-1.73,7.12-1.05,9.6-3.21,3.25-2.83,2.64-8.77,7.44-10.26Z"/>
          <path class="cls-6" d="M138.55,109.43c-.05,2.14-.69,4.22-.94,6.35-.25,2.13-.06,4.46,1.32,6.1,1.38,1.64,4.23,2.1,5.62.47.96-1.13.94-2.81.54-4.24s-1.09-2.78-1.32-4.25c-.96-6.27,6.8-11.5,5.61-17.73-3.66-1.58-7.88,2.51-11.64,1.18-2.95-1.04-3.96-4.83-6.63-6.47-.84-.52-1.97-.78-2.8-.24-2.88,1.87,2.17,6.77,3.59,7.99,3.56,3.08,6.76,5.5,6.63,10.85Z"/>
          <path class="cls-6" d="M206.83,83.63c-.67,5.12-3.73,10.11-2.5,15.13.91,3.72,4.06,6.68,4.54,10.47.46,3.68-1.71,7.22-1.78,10.94-.07,3.4,1.63,6.67,1.43,10.07-.2,3.38-2.45,6.55-5.57,7.86-.58.24-1.22.43-1.84.3-1.54-.32-2.04-2.31-1.8-3.86.41-2.57,1.97-4.8,2.75-7.29.78-2.48.43-5.75-1.9-6.9-.93-.46-2.01-.5-2.99-.81-.99-.32-1.98-1.12-1.93-2.15.1-2.25,4.06-1.8,5.21-3.74.74-1.25-.1-2.87-1.18-3.84s-2.46-1.66-3.24-2.89c-1.3-2.07-.43-4.79.7-6.96,1.13-2.17,2.52-4.46,2.15-6.88-.39-2.5-2.63-4.7-2.06-7.16.34-1.46,1.6-2.52,2.22-3.88,1.33-2.92-.54-6.26-2.6-8.71-1.93-2.29-4.56-5.45-2.34-8.47,1.62-2.22,3.62-1.26,5.33.33,4.74,4.41,8.26,11.97,7.42,18.45Z"/>
          <path class="cls-6" d="M109.58,32.61c-.91,2.26-1.5,4.89-.41,7.07.76,1.51,2.3,2.8,2.13,4.47-.15,1.55-1.77,2.57-3.31,2.79-1.54.23-3.11-.08-4.66.05-2.91.25-5.5,2.05-7.46,4.22-1.96,2.17-3.43,4.73-5.15,7.1-.86,1.18-1.83,2.35-3.13,3.01-1.31.66-3.04.67-4.11-.32-1.41-1.31-1.07-3.74.11-5.25,1.19-1.52,2.97-2.42,4.56-3.5,1.59-1.09,3.12-2.59,3.31-4.51.23-2.4-1.49-5.45.46-6.86,1.27-.92,3.21-.2,4.51-1.07,1.28-.86,1.24-2.82.52-4.19-.72-1.37-1.91-2.43-2.66-3.78-1.78-3.23-.19-7.82,3.19-9.27-.13-1.1-.3-2.11-.23-3.2,11.67-4.83,16.49,2.96,12.33,13.24Z"/>
          <path class="cls-6" d="M113.68,187.02c.22-2.1-1.22-4.25-3.24-4.86-1.2-.36-2.49-.22-3.73-.38-6.01-.78-8.56-7.24-13.46-9.93-4.12-2.27-10.16-2-9.06,3.82,1.03,5.45,8.1,11.62,11.99,15.15,4,3.64,4.5,2.81,8.95,1.29,2.95-1.01,8.09-.86,8.54-5.09Z"/>
          <g class="cls-3">
            <path class="cls-2" d="M172.3,23.87c9.59,16.19,15.11,35.06,15.11,55.2,0,59.94-48.76,108.71-108.7,108.71-20.14,0-39.01-5.53-55.2-15.12,18.94,31.99,53.79,53.5,93.59,53.5,59.94,0,108.7-48.77,108.7-108.71,0-39.8-21.51-74.65-53.5-93.59Z"/>
          </g>
        </g>
        <g>
          <rect class="cls-5" x="4.25" y="4.62" width="225.69" height="225.69"/>
          <circle class="cls-1" cx="117.1" cy="117.46" r="112.84" transform="translate(-23.85 204.88) rotate(-76.9)"/>
          <path class="cls-8" d="M28.88,79.99c-.86,5.1-5.43,8.63-7.95,13.15-3.95,7.09-2.52,15.83-.97,23.8.45,2.33.97,4.79,2.55,6.56,1.58,1.77,4.62,2.48,6.32.82,1.38-1.34,1.34-3.55.97-5.43-.3-1.53-1.22-10.77,3.17-7.68.91.64,1.43,1.7,2.26,2.43,1.63,1.46,4.45,1.28,5.89-.37,1.44-1.65,1.24-4.46-.42-5.88-1-.86-2.35-1.2-3.42-1.97-1.07-.77-1.79-2.39-.92-3.39.82-.94,2.36-.59,3.44.03,1.08.62,2.17,1.48,3.41,1.33,1.52-.18,2.47-1.92,2.3-3.44-.32-2.93-4.58-4.91-3.85-7.88.72-2.92,4.73-2.69,6.89-3.54,3.98-1.58,5.21-6.7,8.58-9.34,4.11-3.24,10.6-2.2,14.4-5.81,2.42-2.3,3.03-6.27,1.41-9.19-1.62-2.92-5.32-4.5-8.55-3.67-5.53,1.43-8.98,8.46-15.24,5.18-4.29-2.25-6.45-5.84-11.77-6.6-15.51-2.23-7.13,12.75-8.5,20.89Z"/>
          <path class="cls-8" d="M71.49,44.82c1.64-.96,3.32-1.94,4.58-3.36,1.26-1.42,2.06-3.39,1.63-5.24-.49-2.08-2.35-3.51-4.09-4.76-.86-.62-1.78-1.26-2.84-1.32-3.16-.17-4.42,4.08-5.78,6.16-1.93,2.95-5.53,5.52-7.01,8.66-4.75,10.06,10.41,1.67,13.52-.14Z"/>
          <path class="cls-8" d="M127.47,52c1.19.76,2.63,1.03,3.89,1.68,5.56,2.87,5.06,11,8.44,16.28,1.12,1.75,2.79,3.24,4.81,3.73,2.02.49,4.39-.19,5.52-1.94,1.49-2.31.39-5.5-1.49-7.51-1.88-2.01-4.4-3.29-6.44-5.14-3.51-3.17-5.42-8.02-5-12.73.41-4.71,3.14-9.16,7.14-11.67,2.6-1.63,6.08-2.98,6.51-6.02.51-3.57-3.6-5.85-7-7.05-6.13-2.16-27.72-12.98-24.33,3.06,1.07,5.07,5.44,6.62,5.42,12.51-.02,5.04-2.28,11.17,2.55,14.79Z"/>
          <path class="cls-8" d="M172.65,84.25c.3,1.16.81,2.28.85,3.48.14,3.41-3.22,5.74-5.82,7.96-1.47,1.27-2.83,2.74-3.55,4.55-.72,1.8-.71,3.98.39,5.58,1.1,1.6,3.43,2.37,5.11,1.41,1.52-.86,2.12-2.74,2.33-4.47s.17-3.55.93-5.12c1.9-3.97,8.09-4.98,8.98-9.3.69-3.4-.8-17.35-6.45-13.64-2.4,1.58-3.47,6.89-2.78,9.56Z"/>
          <path class="cls-8" d="M76.57,88.75c-.21,4.17,3.19,7.79,3.39,11.96.17,3.64-2.09,6.88-3.24,10.34-1.15,3.45-.48,8.29,3.03,9.25,3.27.89,6.3-2.48,6.88-5.81.58-3.33-.35-6.75-.16-10.13.18-3.38,2.15-7.19,5.52-7.48,3.2-.27,6.25,2.76,9.3,1.74,2.43-.81,3.37-3.79,3.3-6.35-.07-2.56-.79-5.15-.22-7.64,1.19-5.14,6.7-7.24,9.24-11.49,3.01-5.04.38-11.52-5.87-12.07-7.85-.69-9.87,12.17-16.09,15.72-5.27,3-14.68,4.19-15.08,11.97Z"/>
          <path class="cls-8" d="M88.52,200.99c.33.09.66.18.98.3,2.85,1,5.05,3.14,8.09,3.96,6.09,1.63,13.07.42,17.89-3.76,2.89-2.5,6.28-6.17,9.75-4.56,1.9.88,3.37,3.28,5.4,2.79,1.93-.47,2.41-3.21,4.21-4.05,1.49-.7,3.19.18,4.77.64,5.46,1.6,11.81-2.88,12.13-8.56.11-1.95-.38-3.92-.05-5.85.33-1.93,1.96-3.89,3.88-3.56,4.48.78,1.7,10.41,6.22,10.91,1.57.17,2.88-1.11,3.93-2.28,6.01-6.72,14.33-19.19,24.61-19.04,6.46.09,4.8,7.17,2.45,11.63-3.06,5.8-8.6,11.61-12.9,16.58-20.99,24.26-61.46,32.46-91.78,24.52-8.56-2.24-19.97-5.58-25.98-12.44-4.36-4.97-6.87-13.47,1.83-15.24,6.31-1.29,13.15,4.28,18.63,6.57,1.96.82,3.98.95,5.91,1.45Z"/>
          <path class="cls-8" d="M69.95,112.15c.88,4.14.7,8.48,1.9,12.54.67,2.27,1.9,4.57,4.03,5.6,2.71,1.31,6.13.11,8.11-2.16,1.98-2.27,2.75-5.35,3.04-8.34.17-1.75.2-3.53.73-5.21s1.64-3.29,3.31-3.86c2.36-.81,4.83.64,6.9,2.03-.45-2.22-.9-4.55-.26-6.73.63-2.18,2.72-4.12,4.96-3.76.82.13,1.65.54,2.43.27,1.53-.54,1.14-2.75,1.14-4.37-.01-3.47,3.8-6.39,7.15-5.47,2.64,1.58,4.3,4.44,5.11,7.41.81,2.97.86,6.08.93,9.16.05,2.28.36,4.97,2.35,6.06,2.13,1.17,4.94-.45,5.9-2.69.97-2.24.62-4.79.26-7.2.99,2.86,1.97,5.76,2.2,8.77.23,3.01-.36,6.2-2.23,8.58-1.87,2.37-5.19,3.73-8.05,2.75-3.73-1.27-5.88-5.93-9.8-6.3-3.52-.34-6.2,2.93-8.26,5.8-3.21,4.47-6.64,8.86-10.93,12.3-4.29,3.44-9.56,5.9-15.06,5.99s-11.19-2.46-14.04-7.17c-3.36-5.55-2.27-12.66-.39-18.87.76-2.53,1.72-5.5.65-8.08-.73-1.76-2.44-2.65-.48-4.19,4.57-3.6,7.75,3.95,8.42,7.13Z"/>
          <path class="cls-8" d="M126.61,63.03c1.57,1.16,2.65,2.87,3.59,4.58,1.73,3.12,3.15,6.42,4.24,9.82.99,3.08,2.4,6.87,5.61,7.2,1.74.18,3.4-.84,4.58-2.13,1.18-1.29,1.99-2.86,3.02-4.28,1.5-2.05,3.51-3.8,5.92-4.61,2.41-.82,5.22-.61,7.29.88,2.9,2.09,3.71,6.13,3.28,9.68-.43,3.55-1.83,6.92-2.42,10.44-.73,4.32-.19,8.84,1.51,12.88,1.12,2.64,3.37,5.4,6.22,5.05,2.28-.28,3.8-2.41,5.02-4.35,4.1-6.47,8.28-13.12,9.77-20.63,2.11-10.58-1.76-22.16-9.81-29.34-3.06-2.73-6.61-4.82-9.93-7.23-.66-.48-1.39-1.22-1.08-1.97.27-.66,1.14-.79,1.85-.79,12.29-.06,24.27,6.85,30.81,17.25,6.55,10.4,7.65,23.91,3.36,35.43-4.29,11.52-13.74,20.89-25.11,25.58-5.21,2.15-11.59,3.22-16.18-.05-6.82-4.86-5.44-15.74-10.67-22.28-2.48-3.09-6.18-4.88-9.48-7.07-7.31-4.85-12.95-12.11-15.99-20.33-1.05-2.84-3.77-7.38-3.75-10.42.03-4.31,5.18-5.62,8.32-3.3Z"/>
          <path class="cls-8" d="M24.6,133.36c1.01.23,2.09.18,3.29-.29,5.19-2.01,9.25-6.94,12.51-11.25,4.09-5.41,7.9-11.3,13.64-14.91,1.15-.72,2.73-1.32,3.78-.45,1.18.97.66,2.85.04,4.24-2.31,5.21-4.4,9.46-7.87,13.89-3.45,4.42-7.35,8.44-11.29,12.42-2.89,2.92-6.46,6.08-10.52,5.45-3.86-.6-6.17-4.2-8.53-6.92-2.26-2.6-5.21-4.52-7.44-7.09-2.27-2.62-.99-3.27,2.28-2.01,3.74,1.45,6.39,6.07,10.1,6.91Z"/>
          <path class="cls-7" d="M31.71,136.21c-2.63,1.2-5.16,1.44-7.26.04-2.7-1.81-14.89-19.66-14.45-5.53.13,4.29,2,8.61,5.13,11.56,3.1,2.92,7.6,5.13,8.28,9.34,1.18,7.34-2.57,12.54,4.05,18.48,6.87,6.16,18.5,9.83,27.13,12.57,2.86.91,6.47,1.51,8.43-.76,1.96-2.28.9-6.07,2.69-8.49,1.83-2.48,5.85-2.19,8.28-.31,2.44,1.89,3.74,4.84,5.15,7.58,4.02,7.78,9.99,14.99,18.12,18.25,8.13,3.27,18.6,1.62,23.81-5.42,3.13-4.23,5.29-10.68,10.55-10.82,4.84-.13,8.54,5.73,13.32,4.98,3.99-.63,5.77-5.53,5.44-9.55-.33-4.02-1.93-7.98-1.37-11.98.56-4,4.84-7.9,8.39-5.97,3.06,1.68,3,5.98,2.99,9.48,0,3.49,1.57,8,5.06,7.85,2.95-.13,4.49-3.77,4.14-6.7-.35-2.93-1.85-5.66-2.01-8.61-.31-5.88,4.89-10.8,10.48-12.66,5.59-1.85,11.63-1.51,17.5-2.07,5.86-.56,12.13-2.37,15.56-7.16,5.68-7.93.79-18.81.76-28.57-.02-6.51,2.24-12.79,3.05-19.25,2.98-23.57-19.79-45.64-40.84-51.24-4.54-1.2-10.84-.89-12.12,3.62-1.03,3.66,2.43,7.17,6.04,8.35,3.61,1.18,7.58.99,11.14,2.32,11.02,4.12,12.08,19.05,11.23,30.78-.64,8.79-1.41,18-6.23,25.38-4.91,7.51-16.74,13.9-22.98,5.3-5.73-7.9-6.45-19.72-2.39-28.44,1.41-3.04,3.29-6.86,1.09-9.39-2.38-2.74-7.02-.8-9.3,2.02-2.28,2.82-3.89,6.52-7.24,7.92-4.85,2.03-10.24-2.2-12.34-7.02-2.1-4.82-2.27-10.3-4.38-15.11-1.03-2.34-3.56-4.78-5.78-3.52-1.54.87-1.77,2.97-1.76,4.74.06,11.34,2.58,22.66,7.34,32.95,1.64,3.54,3.58,7.18,3.37,11.07-.21,3.89-3.69,7.91-7.48,7.01-2.8-.67-4.46-3.67-4.81-6.53-.35-2.86.27-5.74.28-8.62,0-2.88-.78-6.04-3.15-7.68-2.37-1.64-6.47-.55-6.8,2.31-.23,1.97,1.16,4.42-.35,5.7-1.63,1.38-4.18-.81-6.21-.13-2.41.81-1.87,4.31-1.13,6.74.74,2.43.04,6.25-2.47,5.83-1.54-.26-2.24-2.12-3.61-2.88-2.2-1.23-4.93,1.03-5.53,3.48-.6,2.45.02,5.04-.26,7.54-.48,4.23-3.81,7.98-7.95,8.96-22.8,5.41-4.86-32.99-19.45-29.95-6.76,1.41-8.55,10.74-11.8,15.4-2.74,3.92-10.42,13.68-17.34,16.82Z"/>
          <path class="cls-7" d="M80.43,43.42c-3.28,2.79-8.36,5.08-8,9.38.44,5.17,8.9,7.39,8.21,12.53-.41,3.07-4.21,5.63-2.99,8.48,1.21,2.83,5.59,1.73,7.83-.39,3.33-3.16,5.33-7.43,7.95-11.19,2.62-3.77,6.33-7.3,10.91-7.6,4.2-.28,9.29,1.92,12.1-1.21,1.63-1.82,1.48-4.62.74-6.95-.74-2.32-1.97-4.53-2.22-6.95-.51-5.05,3.32-9.7,3.13-14.77-.21-5.53-5.32-9.88-10.72-11.09-5.89-1.33-24.52-.77-24.75,7.64-.1,3.62,2.56,7.16,2.61,10.93.06,4.18-1.57,8.46-4.8,11.2Z"/>
          <path class="cls-7" d="M44.17,39.01c-2.09,2.62-2.9,6.22-2.13,9.48.77,3.26,3.1,6.12,6.14,7.53,1.41,1.18,3.75.1,4.48-1.59.74-1.69.37-3.63-.03-5.42-.4-1.8-.8-3.72-.13-5.43.53-1.34,1.64-2.34,2.71-3.31,1.07-.97,2.16-2.01,2.61-3.38,2.63-7.9-11.78-.24-13.66,2.11Z"/>
          <path class="cls-7" d="M168.15,67.33c-1.1-2.18-7.25-15.02-9.87-14.94-2.27.06-1.06,4.13-.74,5.87.75,4.07,2.04,8.62,4.17,12.2,3.69,6.21,9.92,3.75,6.44-3.13Z"/>
          <path class="cls-7" d="M156.83,26.64c1.84,2.42,3.48,5.13,6.05,6.75,2.57,1.62,6.48,1.68,8.22-.82,1.17-1.68,1-4.03.06-5.86-.94-1.83-2.51-3.23-4.09-4.54-4.07-3.37-18.25-14-24.08-9.56-3.15,2.39,1.22,4.44,3.54,5.82,4.02,2.41,7.38,4.36,10.3,8.21Z"/>
          <path class="cls-7" d="M208.4,153.66c1.53-1.07,3.31-2.49,5.05-1.8,1.47.58,1.99,2.35,2.33,3.9.84,3.85,1.63,8.05-.15,11.56-1.17,2.31-3.29,3.95-5.16,5.73-3.44,3.27-6.21,7.24-8.1,11.59-.71,1.65-1.33,3.38-2.51,4.74-1.18,1.35-3.12,2.24-4.8,1.58-2.23-.87-2.75-3.88-2.12-6.19.91-3.34,3.36-6.01,5.1-9,1.74-3,2.69-7.01.6-9.77-.98-1.3-2.47-2.09-3.79-3.04-1.32-.95-2.58-2.26-2.68-3.89-.23-3.9,12.94-3.11,16.23-5.4Z"/>
          <path class="cls-6" d="M49.04,133.26c2.94-.91,6.05,1.09,7.85,3.59,1.93,2.68,2.83,7.42,5.66,9.2,2.33,1.47,5.99.87,7.53-1.47.54-.81,1.07-1.91,2.04-1.9.97,0,1.5,1.1,2.23,1.75,1.5,1.34,3.98.63,5.4-.79,1.42-1.42,2.18-3.35,3.35-4.98,1.17-1.63,3.11-3.04,5.06-2.56,2.99.74,3.57,5.05,6.3,6.49,2.39,1.25,5.42-.33,6.92-2.58,1.5-2.25,1.96-5,2.89-7.53,1.33-3.64,3.68-6.9,6.71-9.31,2.29-1.83,5.32-3.21,8.09-2.29,2.82.94,4.44,3.99,4.87,6.93.43,2.94-.03,5.94.1,8.92.06,1.42.64,3.2,2.05,3.26.68.03,1.29-.39,1.81-.83,2-1.71,3.36-4.04,4.98-6.12,1.62-2.08,3.7-4.04,6.3-4.47,2.45-.41,4.89.6,7.32,1.15,5.12,1.16,9.92-.38,14.92-1.28,4.67-.84,9.34-1.86,14-2.9,1.49-.33,3.18-.81,3.84-2.2.47-.99.27-2.19.77-3.17.83-1.63,3.4-1.74,4.69-.44,1.29,1.3,1.38,3.45.67,5.13-.71,1.69-2.08,3-3.48,4.18-4.36,3.68-9.34,6.54-14.29,9.38-2.11,1.21-4.43,2.47-6.83,2.1-2.89-.44-5.53-3.17-8.3-2.22-3.3,1.13-3.82,6.67-7.28,7.04-2.83.29-4.63-3.28-7.43-3.82-2.42-.47-4.59,1.44-6.32,3.2-4.04,4.13-7.95,8.43-12.08,12.44-3.32,3.23-6.89,7.17-11.83,7.5-5.1.34-9.55-3.42-14.57-4.41-5.67-1.12-11.33,1.36-16.92,2.84-5.59,1.47-12.5,1.52-16.07-3.02-2.3-2.92-3.15-7.58-6.76-8.48-3.69-.91-6.61,2.97-10,4.68-6.51,3.3-16.94-3.74-11.22-9.54,1.71-1.73,7.12-1.05,9.6-3.21,3.25-2.83,2.64-8.77,7.44-10.26Z"/>
          <path class="cls-6" d="M138.55,109.43c-.05,2.14-.69,4.22-.94,6.35-.25,2.13-.06,4.46,1.32,6.1,1.38,1.64,4.23,2.1,5.62.47.96-1.13.94-2.81.54-4.24s-1.09-2.78-1.32-4.25c-.96-6.27,6.8-11.5,5.61-17.73-3.66-1.58-7.88,2.51-11.64,1.18-2.95-1.04-3.96-4.83-6.63-6.47-.84-.52-1.97-.78-2.8-.24-2.88,1.87,2.17,6.77,3.59,7.99,3.56,3.08,6.76,5.5,6.63,10.85Z"/>
          <path class="cls-6" d="M206.83,83.63c-.67,5.12-3.73,10.11-2.5,15.13.91,3.72,4.06,6.68,4.54,10.47.46,3.68-1.71,7.22-1.78,10.94-.07,3.4,1.63,6.67,1.43,10.07-.2,3.38-2.45,6.55-5.57,7.86-.58.24-1.22.43-1.84.3-1.54-.32-2.04-2.31-1.8-3.86.41-2.57,1.97-4.8,2.75-7.29.78-2.48.43-5.75-1.9-6.9-.93-.46-2.01-.5-2.99-.81-.99-.32-1.98-1.12-1.93-2.15.1-2.25,4.06-1.8,5.21-3.74.74-1.25-.1-2.87-1.18-3.84s-2.46-1.66-3.24-2.89c-1.3-2.07-.43-4.79.7-6.96,1.13-2.17,2.52-4.46,2.15-6.88-.39-2.5-2.63-4.7-2.06-7.16.34-1.46,1.6-2.52,2.22-3.88,1.33-2.92-.54-6.26-2.6-8.71-1.93-2.29-4.56-5.45-2.34-8.47,1.62-2.22,3.62-1.26,5.33.33,4.74,4.41,8.26,11.97,7.42,18.45Z"/>
          <path class="cls-6" d="M109.58,32.61c-.91,2.26-1.5,4.89-.41,7.07.76,1.51,2.3,2.8,2.13,4.47-.15,1.55-1.77,2.57-3.31,2.79-1.54.23-3.11-.08-4.66.05-2.91.25-5.5,2.05-7.46,4.22-1.96,2.17-3.43,4.73-5.15,7.1-.86,1.18-1.83,2.35-3.13,3.01-1.31.66-3.04.67-4.11-.32-1.41-1.31-1.07-3.74.11-5.25,1.19-1.52,2.97-2.42,4.56-3.5,1.59-1.09,3.12-2.59,3.31-4.51.23-2.4-1.49-5.45.46-6.86,1.27-.92,3.21-.2,4.51-1.07,1.28-.86,1.24-2.82.52-4.19-.72-1.37-1.91-2.43-2.66-3.78-1.78-3.23-.19-7.82,3.19-9.27-.13-1.1-.3-2.11-.23-3.2,11.67-4.83,16.49,2.96,12.33,13.24Z"/>
          <path class="cls-6" d="M113.68,187.02c.22-2.1-1.22-4.25-3.24-4.86-1.2-.36-2.49-.22-3.73-.38-6.01-.78-8.56-7.24-13.46-9.93-4.12-2.27-10.16-2-9.06,3.82,1.03,5.45,8.1,11.62,11.99,15.15,4,3.64,4.5,2.81,8.95,1.29,2.95-1.01,8.09-.86,8.54-5.09Z"/>
          <g class="cls-3">
            <path class="cls-2" d="M172.3,23.87c9.59,16.19,15.11,35.06,15.11,55.2,0,59.94-48.76,108.71-108.7,108.71-20.14,0-39.01-5.53-55.2-15.12,18.94,31.99,53.79,53.5,93.59,53.5,59.94,0,108.7-48.77,108.7-108.71,0-39.8-21.51-74.65-53.5-93.59Z"/>
          </g>
        </g>
        <g>
          <rect class="cls-5" x="4.25" y="4.62" width="225.69" height="225.69"/>
          <circle class="cls-1" cx="117.1" cy="117.46" r="112.84" transform="translate(-23.85 204.88) rotate(-76.9)"/>
          <path class="cls-8" d="M28.88,79.99c-.86,5.1-5.43,8.63-7.95,13.15-3.95,7.09-2.52,15.83-.97,23.8.45,2.33.97,4.79,2.55,6.56,1.58,1.77,4.62,2.48,6.32.82,1.38-1.34,1.34-3.55.97-5.43-.3-1.53-1.22-10.77,3.17-7.68.91.64,1.43,1.7,2.26,2.43,1.63,1.46,4.45,1.28,5.89-.37,1.44-1.65,1.24-4.46-.42-5.88-1-.86-2.35-1.2-3.42-1.97-1.07-.77-1.79-2.39-.92-3.39.82-.94,2.36-.59,3.44.03,1.08.62,2.17,1.48,3.41,1.33,1.52-.18,2.47-1.92,2.3-3.44-.32-2.93-4.58-4.91-3.85-7.88.72-2.92,4.73-2.69,6.89-3.54,3.98-1.58,5.21-6.7,8.58-9.34,4.11-3.24,10.6-2.2,14.4-5.81,2.42-2.3,3.03-6.27,1.41-9.19-1.62-2.92-5.32-4.5-8.55-3.67-5.53,1.43-8.98,8.46-15.24,5.18-4.29-2.25-6.45-5.84-11.77-6.6-15.51-2.23-7.13,12.75-8.5,20.89Z"/>
          <path class="cls-8" d="M71.49,44.82c1.64-.96,3.32-1.94,4.58-3.36,1.26-1.42,2.06-3.39,1.63-5.24-.49-2.08-2.35-3.51-4.09-4.76-.86-.62-1.78-1.26-2.84-1.32-3.16-.17-4.42,4.08-5.78,6.16-1.93,2.95-5.53,5.52-7.01,8.66-4.75,10.06,10.41,1.67,13.52-.14Z"/>
          <path class="cls-8" d="M127.47,52c1.19.76,2.63,1.03,3.89,1.68,5.56,2.87,5.06,11,8.44,16.28,1.12,1.75,2.79,3.24,4.81,3.73,2.02.49,4.39-.19,5.52-1.94,1.49-2.31.39-5.5-1.49-7.51-1.88-2.01-4.4-3.29-6.44-5.14-3.51-3.17-5.42-8.02-5-12.73.41-4.71,3.14-9.16,7.14-11.67,2.6-1.63,6.08-2.98,6.51-6.02.51-3.57-3.6-5.85-7-7.05-6.13-2.16-27.72-12.98-24.33,3.06,1.07,5.07,5.44,6.62,5.42,12.51-.02,5.04-2.28,11.17,2.55,14.79Z"/>
          <path class="cls-8" d="M172.65,84.25c.3,1.16.81,2.28.85,3.48.14,3.41-3.22,5.74-5.82,7.96-1.47,1.27-2.83,2.74-3.55,4.55-.72,1.8-.71,3.98.39,5.58,1.1,1.6,3.43,2.37,5.11,1.41,1.52-.86,2.12-2.74,2.33-4.47s.17-3.55.93-5.12c1.9-3.97,8.09-4.98,8.98-9.3.69-3.4-.8-17.35-6.45-13.64-2.4,1.58-3.47,6.89-2.78,9.56Z"/>
          <path class="cls-8" d="M76.57,88.75c-.21,4.17,3.19,7.79,3.39,11.96.17,3.64-2.09,6.88-3.24,10.34-1.15,3.45-.48,8.29,3.03,9.25,3.27.89,6.3-2.48,6.88-5.81.58-3.33-.35-6.75-.16-10.13.18-3.38,2.15-7.19,5.52-7.48,3.2-.27,6.25,2.76,9.3,1.74,2.43-.81,3.37-3.79,3.3-6.35-.07-2.56-.79-5.15-.22-7.64,1.19-5.14,6.7-7.24,9.24-11.49,3.01-5.04.38-11.52-5.87-12.07-7.85-.69-9.87,12.17-16.09,15.72-5.27,3-14.68,4.19-15.08,11.97Z"/>
          <path class="cls-8" d="M88.52,200.99c.33.09.66.18.98.3,2.85,1,5.05,3.14,8.09,3.96,6.09,1.63,13.07.42,17.89-3.76,2.89-2.5,6.28-6.17,9.75-4.56,1.9.88,3.37,3.28,5.4,2.79,1.93-.47,2.41-3.21,4.21-4.05,1.49-.7,3.19.18,4.77.64,5.46,1.6,11.81-2.88,12.13-8.56.11-1.95-.38-3.92-.05-5.85.33-1.93,1.96-3.89,3.88-3.56,4.48.78,1.7,10.41,6.22,10.91,1.57.17,2.88-1.11,3.93-2.28,6.01-6.72,14.33-19.19,24.61-19.04,6.46.09,4.8,7.17,2.45,11.63-3.06,5.8-8.6,11.61-12.9,16.58-20.99,24.26-61.46,32.46-91.78,24.52-8.56-2.24-19.97-5.58-25.98-12.44-4.36-4.97-6.87-13.47,1.83-15.24,6.31-1.29,13.15,4.28,18.63,6.57,1.96.82,3.98.95,5.91,1.45Z"/>
          <path class="cls-8" d="M69.95,112.15c.88,4.14.7,8.48,1.9,12.54.67,2.27,1.9,4.57,4.03,5.6,2.71,1.31,6.13.11,8.11-2.16,1.98-2.27,2.75-5.35,3.04-8.34.17-1.75.2-3.53.73-5.21s1.64-3.29,3.31-3.86c2.36-.81,4.83.64,6.9,2.03-.45-2.22-.9-4.55-.26-6.73.63-2.18,2.72-4.12,4.96-3.76.82.13,1.65.54,2.43.27,1.53-.54,1.14-2.75,1.14-4.37-.01-3.47,3.8-6.39,7.15-5.47,2.64,1.58,4.3,4.44,5.11,7.41.81,2.97.86,6.08.93,9.16.05,2.28.36,4.97,2.35,6.06,2.13,1.17,4.94-.45,5.9-2.69.97-2.24.62-4.79.26-7.2.99,2.86,1.97,5.76,2.2,8.77.23,3.01-.36,6.2-2.23,8.58-1.87,2.37-5.19,3.73-8.05,2.75-3.73-1.27-5.88-5.93-9.8-6.3-3.52-.34-6.2,2.93-8.26,5.8-3.21,4.47-6.64,8.86-10.93,12.3-4.29,3.44-9.56,5.9-15.06,5.99s-11.19-2.46-14.04-7.17c-3.36-5.55-2.27-12.66-.39-18.87.76-2.53,1.72-5.5.65-8.08-.73-1.76-2.44-2.65-.48-4.19,4.57-3.6,7.75,3.95,8.42,7.13Z"/>
          <path class="cls-8" d="M126.61,63.03c1.57,1.16,2.65,2.87,3.59,4.58,1.73,3.12,3.15,6.42,4.24,9.82.99,3.08,2.4,6.87,5.61,7.2,1.74.18,3.4-.84,4.58-2.13,1.18-1.29,1.99-2.86,3.02-4.28,1.5-2.05,3.51-3.8,5.92-4.61,2.41-.82,5.22-.61,7.29.88,2.9,2.09,3.71,6.13,3.28,9.68-.43,3.55-1.83,6.92-2.42,10.44-.73,4.32-.19,8.84,1.51,12.88,1.12,2.64,3.37,5.4,6.22,5.05,2.28-.28,3.8-2.41,5.02-4.35,4.1-6.47,8.28-13.12,9.77-20.63,2.11-10.58-1.76-22.16-9.81-29.34-3.06-2.73-6.61-4.82-9.93-7.23-.66-.48-1.39-1.22-1.08-1.97.27-.66,1.14-.79,1.85-.79,12.29-.06,24.27,6.85,30.81,17.25,6.55,10.4,7.65,23.91,3.36,35.43-4.29,11.52-13.74,20.89-25.11,25.58-5.21,2.15-11.59,3.22-16.18-.05-6.82-4.86-5.44-15.74-10.67-22.28-2.48-3.09-6.18-4.88-9.48-7.07-7.31-4.85-12.95-12.11-15.99-20.33-1.05-2.84-3.77-7.38-3.75-10.42.03-4.31,5.18-5.62,8.32-3.3Z"/>
          <path class="cls-8" d="M24.6,133.36c1.01.23,2.09.18,3.29-.29,5.19-2.01,9.25-6.94,12.51-11.25,4.09-5.41,7.9-11.3,13.64-14.91,1.15-.72,2.73-1.32,3.78-.45,1.18.97.66,2.85.04,4.24-2.31,5.21-4.4,9.46-7.87,13.89-3.45,4.42-7.35,8.44-11.29,12.42-2.89,2.92-6.46,6.08-10.52,5.45-3.86-.6-6.17-4.2-8.53-6.92-2.26-2.6-5.21-4.52-7.44-7.09-2.27-2.62-.99-3.27,2.28-2.01,3.74,1.45,6.39,6.07,10.1,6.91Z"/>
          <path class="cls-7" d="M31.71,136.21c-2.63,1.2-5.16,1.44-7.26.04-2.7-1.81-14.89-19.66-14.45-5.53.13,4.29,2,8.61,5.13,11.56,3.1,2.92,7.6,5.13,8.28,9.34,1.18,7.34-2.57,12.54,4.05,18.48,6.87,6.16,18.5,9.83,27.13,12.57,2.86.91,6.47,1.51,8.43-.76,1.96-2.28.9-6.07,2.69-8.49,1.83-2.48,5.85-2.19,8.28-.31,2.44,1.89,3.74,4.84,5.15,7.58,4.02,7.78,9.99,14.99,18.12,18.25,8.13,3.27,18.6,1.62,23.81-5.42,3.13-4.23,5.29-10.68,10.55-10.82,4.84-.13,8.54,5.73,13.32,4.98,3.99-.63,5.77-5.53,5.44-9.55-.33-4.02-1.93-7.98-1.37-11.98.56-4,4.84-7.9,8.39-5.97,3.06,1.68,3,5.98,2.99,9.48,0,3.49,1.57,8,5.06,7.85,2.95-.13,4.49-3.77,4.14-6.7-.35-2.93-1.85-5.66-2.01-8.61-.31-5.88,4.89-10.8,10.48-12.66,5.59-1.85,11.63-1.51,17.5-2.07,5.86-.56,12.13-2.37,15.56-7.16,5.68-7.93.79-18.81.76-28.57-.02-6.51,2.24-12.79,3.05-19.25,2.98-23.57-19.79-45.64-40.84-51.24-4.54-1.2-10.84-.89-12.12,3.62-1.03,3.66,2.43,7.17,6.04,8.35,3.61,1.18,7.58.99,11.14,2.32,11.02,4.12,12.08,19.05,11.23,30.78-.64,8.79-1.41,18-6.23,25.38-4.91,7.51-16.74,13.9-22.98,5.3-5.73-7.9-6.45-19.72-2.39-28.44,1.41-3.04,3.29-6.86,1.09-9.39-2.38-2.74-7.02-.8-9.3,2.02-2.28,2.82-3.89,6.52-7.24,7.92-4.85,2.03-10.24-2.2-12.34-7.02-2.1-4.82-2.27-10.3-4.38-15.11-1.03-2.34-3.56-4.78-5.78-3.52-1.54.87-1.77,2.97-1.76,4.74.06,11.34,2.58,22.66,7.34,32.95,1.64,3.54,3.58,7.18,3.37,11.07-.21,3.89-3.69,7.91-7.48,7.01-2.8-.67-4.46-3.67-4.81-6.53-.35-2.86.27-5.74.28-8.62,0-2.88-.78-6.04-3.15-7.68-2.37-1.64-6.47-.55-6.8,2.31-.23,1.97,1.16,4.42-.35,5.7-1.63,1.38-4.18-.81-6.21-.13-2.41.81-1.87,4.31-1.13,6.74.74,2.43.04,6.25-2.47,5.83-1.54-.26-2.24-2.12-3.61-2.88-2.2-1.23-4.93,1.03-5.53,3.48-.6,2.45.02,5.04-.26,7.54-.48,4.23-3.81,7.98-7.95,8.96-22.8,5.41-4.86-32.99-19.45-29.95-6.76,1.41-8.55,10.74-11.8,15.4-2.74,3.92-10.42,13.68-17.34,16.82Z"/>
          <path class="cls-7" d="M80.43,43.42c-3.28,2.79-8.36,5.08-8,9.38.44,5.17,8.9,7.39,8.21,12.53-.41,3.07-4.21,5.63-2.99,8.48,1.21,2.83,5.59,1.73,7.83-.39,3.33-3.16,5.33-7.43,7.95-11.19,2.62-3.77,6.33-7.3,10.91-7.6,4.2-.28,9.29,1.92,12.1-1.21,1.63-1.82,1.48-4.62.74-6.95-.74-2.32-1.97-4.53-2.22-6.95-.51-5.05,3.32-9.7,3.13-14.77-.21-5.53-5.32-9.88-10.72-11.09-5.89-1.33-24.52-.77-24.75,7.64-.1,3.62,2.56,7.16,2.61,10.93.06,4.18-1.57,8.46-4.8,11.2Z"/>
          <path class="cls-7" d="M44.17,39.01c-2.09,2.62-2.9,6.22-2.13,9.48.77,3.26,3.1,6.12,6.14,7.53,1.41,1.18,3.75.1,4.48-1.59.74-1.69.37-3.63-.03-5.42-.4-1.8-.8-3.72-.13-5.43.53-1.34,1.64-2.34,2.71-3.31,1.07-.97,2.16-2.01,2.61-3.38,2.63-7.9-11.78-.24-13.66,2.11Z"/>
          <path class="cls-7" d="M168.15,67.33c-1.1-2.18-7.25-15.02-9.87-14.94-2.27.06-1.06,4.13-.74,5.87.75,4.07,2.04,8.62,4.17,12.2,3.69,6.21,9.92,3.75,6.44-3.13Z"/>
          <path class="cls-7" d="M156.83,26.64c1.84,2.42,3.48,5.13,6.05,6.75,2.57,1.62,6.48,1.68,8.22-.82,1.17-1.68,1-4.03.06-5.86-.94-1.83-2.51-3.23-4.09-4.54-4.07-3.37-18.25-14-24.08-9.56-3.15,2.39,1.22,4.44,3.54,5.82,4.02,2.41,7.38,4.36,10.3,8.21Z"/>
          <path class="cls-7" d="M208.4,153.66c1.53-1.07,3.31-2.49,5.05-1.8,1.47.58,1.99,2.35,2.33,3.9.84,3.85,1.63,8.05-.15,11.56-1.17,2.31-3.29,3.95-5.16,5.73-3.44,3.27-6.21,7.24-8.1,11.59-.71,1.65-1.33,3.38-2.51,4.74-1.18,1.35-3.12,2.24-4.8,1.58-2.23-.87-2.75-3.88-2.12-6.19.91-3.34,3.36-6.01,5.1-9,1.74-3,2.69-7.01.6-9.77-.98-1.3-2.47-2.09-3.79-3.04-1.32-.95-2.58-2.26-2.68-3.89-.23-3.9,12.94-3.11,16.23-5.4Z"/>
          <path class="cls-6" d="M49.04,133.26c2.94-.91,6.05,1.09,7.85,3.59,1.93,2.68,2.83,7.42,5.66,9.2,2.33,1.47,5.99.87,7.53-1.47.54-.81,1.07-1.91,2.04-1.9.97,0,1.5,1.1,2.23,1.75,1.5,1.34,3.98.63,5.4-.79,1.42-1.42,2.18-3.35,3.35-4.98,1.17-1.63,3.11-3.04,5.06-2.56,2.99.74,3.57,5.05,6.3,6.49,2.39,1.25,5.42-.33,6.92-2.58,1.5-2.25,1.96-5,2.89-7.53,1.33-3.64,3.68-6.9,6.71-9.31,2.29-1.83,5.32-3.21,8.09-2.29,2.82.94,4.44,3.99,4.87,6.93.43,2.94-.03,5.94.1,8.92.06,1.42.64,3.2,2.05,3.26.68.03,1.29-.39,1.81-.83,2-1.71,3.36-4.04,4.98-6.12,1.62-2.08,3.7-4.04,6.3-4.47,2.45-.41,4.89.6,7.32,1.15,5.12,1.16,9.92-.38,14.92-1.28,4.67-.84,9.34-1.86,14-2.9,1.49-.33,3.18-.81,3.84-2.2.47-.99.27-2.19.77-3.17.83-1.63,3.4-1.74,4.69-.44,1.29,1.3,1.38,3.45.67,5.13-.71,1.69-2.08,3-3.48,4.18-4.36,3.68-9.34,6.54-14.29,9.38-2.11,1.21-4.43,2.47-6.83,2.1-2.89-.44-5.53-3.17-8.3-2.22-3.3,1.13-3.82,6.67-7.28,7.04-2.83.29-4.63-3.28-7.43-3.82-2.42-.47-4.59,1.44-6.32,3.2-4.04,4.13-7.95,8.43-12.08,12.44-3.32,3.23-6.89,7.17-11.83,7.5-5.1.34-9.55-3.42-14.57-4.41-5.67-1.12-11.33,1.36-16.92,2.84-5.59,1.47-12.5,1.52-16.07-3.02-2.3-2.92-3.15-7.58-6.76-8.48-3.69-.91-6.61,2.97-10,4.68-6.51,3.3-16.94-3.74-11.22-9.54,1.71-1.73,7.12-1.05,9.6-3.21,3.25-2.83,2.64-8.77,7.44-10.26Z"/>
          <path class="cls-6" d="M138.55,109.43c-.05,2.14-.69,4.22-.94,6.35-.25,2.13-.06,4.46,1.32,6.1,1.38,1.64,4.23,2.1,5.62.47.96-1.13.94-2.81.54-4.24s-1.09-2.78-1.32-4.25c-.96-6.27,6.8-11.5,5.61-17.73-3.66-1.58-7.88,2.51-11.64,1.18-2.95-1.04-3.96-4.83-6.63-6.47-.84-.52-1.97-.78-2.8-.24-2.88,1.87,2.17,6.77,3.59,7.99,3.56,3.08,6.76,5.5,6.63,10.85Z"/>
          <path class="cls-6" d="M206.83,83.63c-.67,5.12-3.73,10.11-2.5,15.13.91,3.72,4.06,6.68,4.54,10.47.46,3.68-1.71,7.22-1.78,10.94-.07,3.4,1.63,6.67,1.43,10.07-.2,3.38-2.45,6.55-5.57,7.86-.58.24-1.22.43-1.84.3-1.54-.32-2.04-2.31-1.8-3.86.41-2.57,1.97-4.8,2.75-7.29.78-2.48.43-5.75-1.9-6.9-.93-.46-2.01-.5-2.99-.81-.99-.32-1.98-1.12-1.93-2.15.1-2.25,4.06-1.8,5.21-3.74.74-1.25-.1-2.87-1.18-3.84s-2.46-1.66-3.24-2.89c-1.3-2.07-.43-4.79.7-6.96,1.13-2.17,2.52-4.46,2.15-6.88-.39-2.5-2.63-4.7-2.06-7.16.34-1.46,1.6-2.52,2.22-3.88,1.33-2.92-.54-6.26-2.6-8.71-1.93-2.29-4.56-5.45-2.34-8.47,1.62-2.22,3.62-1.26,5.33.33,4.74,4.41,8.26,11.97,7.42,18.45Z"/>
          <path class="cls-6" d="M109.58,32.61c-.91,2.26-1.5,4.89-.41,7.07.76,1.51,2.3,2.8,2.13,4.47-.15,1.55-1.77,2.57-3.31,2.79-1.54.23-3.11-.08-4.66.05-2.91.25-5.5,2.05-7.46,4.22-1.96,2.17-3.43,4.73-5.15,7.1-.86,1.18-1.83,2.35-3.13,3.01-1.31.66-3.04.67-4.11-.32-1.41-1.31-1.07-3.74.11-5.25,1.19-1.52,2.97-2.42,4.56-3.5,1.59-1.09,3.12-2.59,3.31-4.51.23-2.4-1.49-5.45.46-6.86,1.27-.92,3.21-.2,4.51-1.07,1.28-.86,1.24-2.82.52-4.19-.72-1.37-1.91-2.43-2.66-3.78-1.78-3.23-.19-7.82,3.19-9.27-.13-1.1-.3-2.11-.23-3.2,11.67-4.83,16.49,2.96,12.33,13.24Z"/>
          <path class="cls-6" d="M113.68,187.02c.22-2.1-1.22-4.25-3.24-4.86-1.2-.36-2.49-.22-3.73-.38-6.01-.78-8.56-7.24-13.46-9.93-4.12-2.27-10.16-2-9.06,3.82,1.03,5.45,8.1,11.62,11.99,15.15,4,3.64,4.5,2.81,8.95,1.29,2.95-1.01,8.09-.86,8.54-5.09Z"/>
          <g class="cls-3">
            <path class="cls-2" d="M172.3,23.87c9.59,16.19,15.11,35.06,15.11,55.2,0,59.94-48.76,108.71-108.7,108.71-20.14,0-39.01-5.53-55.2-15.12,18.94,31.99,53.79,53.5,93.59,53.5,59.94,0,108.7-48.77,108.7-108.71,0-39.8-21.51-74.65-53.5-93.59Z"/>
          </g>
        </g>
        <g>
          <rect class="cls-5" x="4.25" y="4.62" width="225.69" height="225.69"/>
          <circle class="cls-1" cx="117.1" cy="117.46" r="112.84" transform="translate(-23.85 204.88) rotate(-76.9)"/>
          <path class="cls-8" d="M28.88,79.99c-.86,5.1-5.43,8.63-7.95,13.15-3.95,7.09-2.52,15.83-.97,23.8.45,2.33.97,4.79,2.55,6.56,1.58,1.77,4.62,2.48,6.32.82,1.38-1.34,1.34-3.55.97-5.43-.3-1.53-1.22-10.77,3.17-7.68.91.64,1.43,1.7,2.26,2.43,1.63,1.46,4.45,1.28,5.89-.37,1.44-1.65,1.24-4.46-.42-5.88-1-.86-2.35-1.2-3.42-1.97-1.07-.77-1.79-2.39-.92-3.39.82-.94,2.36-.59,3.44.03,1.08.62,2.17,1.48,3.41,1.33,1.52-.18,2.47-1.92,2.3-3.44-.32-2.93-4.58-4.91-3.85-7.88.72-2.92,4.73-2.69,6.89-3.54,3.98-1.58,5.21-6.7,8.58-9.34,4.11-3.24,10.6-2.2,14.4-5.81,2.42-2.3,3.03-6.27,1.41-9.19-1.62-2.92-5.32-4.5-8.55-3.67-5.53,1.43-8.98,8.46-15.24,5.18-4.29-2.25-6.45-5.84-11.77-6.6-15.51-2.23-7.13,12.75-8.5,20.89Z"/>
          <path class="cls-8" d="M71.49,44.82c1.64-.96,3.32-1.94,4.58-3.36,1.26-1.42,2.06-3.39,1.63-5.24-.49-2.08-2.35-3.51-4.09-4.76-.86-.62-1.78-1.26-2.84-1.32-3.16-.17-4.42,4.08-5.78,6.16-1.93,2.95-5.53,5.52-7.01,8.66-4.75,10.06,10.41,1.67,13.52-.14Z"/>
          <path class="cls-8" d="M127.47,52c1.19.76,2.63,1.03,3.89,1.68,5.56,2.87,5.06,11,8.44,16.28,1.12,1.75,2.79,3.24,4.81,3.73,2.02.49,4.39-.19,5.52-1.94,1.49-2.31.39-5.5-1.49-7.51-1.88-2.01-4.4-3.29-6.44-5.14-3.51-3.17-5.42-8.02-5-12.73.41-4.71,3.14-9.16,7.14-11.67,2.6-1.63,6.08-2.98,6.51-6.02.51-3.57-3.6-5.85-7-7.05-6.13-2.16-27.72-12.98-24.33,3.06,1.07,5.07,5.44,6.62,5.42,12.51-.02,5.04-2.28,11.17,2.55,14.79Z"/>
          <path class="cls-8" d="M172.65,84.25c.3,1.16.81,2.28.85,3.48.14,3.41-3.22,5.74-5.82,7.96-1.47,1.27-2.83,2.74-3.55,4.55-.72,1.8-.71,3.98.39,5.58,1.1,1.6,3.43,2.37,5.11,1.41,1.52-.86,2.12-2.74,2.33-4.47s.17-3.55.93-5.12c1.9-3.97,8.09-4.98,8.98-9.3.69-3.4-.8-17.35-6.45-13.64-2.4,1.58-3.47,6.89-2.78,9.56Z"/>
          <path class="cls-8" d="M76.57,88.75c-.21,4.17,3.19,7.79,3.39,11.96.17,3.64-2.09,6.88-3.24,10.34-1.15,3.45-.48,8.29,3.03,9.25,3.27.89,6.3-2.48,6.88-5.81.58-3.33-.35-6.75-.16-10.13.18-3.38,2.15-7.19,5.52-7.48,3.2-.27,6.25,2.76,9.3,1.74,2.43-.81,3.37-3.79,3.3-6.35-.07-2.56-.79-5.15-.22-7.64,1.19-5.14,6.7-7.24,9.24-11.49,3.01-5.04.38-11.52-5.87-12.07-7.85-.69-9.87,12.17-16.09,15.72-5.27,3-14.68,4.19-15.08,11.97Z"/>
          <path class="cls-8" d="M88.52,200.99c.33.09.66.18.98.3,2.85,1,5.05,3.14,8.09,3.96,6.09,1.63,13.07.42,17.89-3.76,2.89-2.5,6.28-6.17,9.75-4.56,1.9.88,3.37,3.28,5.4,2.79,1.93-.47,2.41-3.21,4.21-4.05,1.49-.7,3.19.18,4.77.64,5.46,1.6,11.81-2.88,12.13-8.56.11-1.95-.38-3.92-.05-5.85.33-1.93,1.96-3.89,3.88-3.56,4.48.78,1.7,10.41,6.22,10.91,1.57.17,2.88-1.11,3.93-2.28,6.01-6.72,14.33-19.19,24.61-19.04,6.46.09,4.8,7.17,2.45,11.63-3.06,5.8-8.6,11.61-12.9,16.58-20.99,24.26-61.46,32.46-91.78,24.52-8.56-2.24-19.97-5.58-25.98-12.44-4.36-4.97-6.87-13.47,1.83-15.24,6.31-1.29,13.15,4.28,18.63,6.57,1.96.82,3.98.95,5.91,1.45Z"/>
          <path class="cls-8" d="M69.95,112.15c.88,4.14.7,8.48,1.9,12.54.67,2.27,1.9,4.57,4.03,5.6,2.71,1.31,6.13.11,8.11-2.16,1.98-2.27,2.75-5.35,3.04-8.34.17-1.75.2-3.53.73-5.21s1.64-3.29,3.31-3.86c2.36-.81,4.83.64,6.9,2.03-.45-2.22-.9-4.55-.26-6.73.63-2.18,2.72-4.12,4.96-3.76.82.13,1.65.54,2.43.27,1.53-.54,1.14-2.75,1.14-4.37-.01-3.47,3.8-6.39,7.15-5.47,2.64,1.58,4.3,4.44,5.11,7.41.81,2.97.86,6.08.93,9.16.05,2.28.36,4.97,2.35,6.06,2.13,1.17,4.94-.45,5.9-2.69.97-2.24.62-4.79.26-7.2.99,2.86,1.97,5.76,2.2,8.77.23,3.01-.36,6.2-2.23,8.58-1.87,2.37-5.19,3.73-8.05,2.75-3.73-1.27-5.88-5.93-9.8-6.3-3.52-.34-6.2,2.93-8.26,5.8-3.21,4.47-6.64,8.86-10.93,12.3-4.29,3.44-9.56,5.9-15.06,5.99s-11.19-2.46-14.04-7.17c-3.36-5.55-2.27-12.66-.39-18.87.76-2.53,1.72-5.5.65-8.08-.73-1.76-2.44-2.65-.48-4.19,4.57-3.6,7.75,3.95,8.42,7.13Z"/>
          <path class="cls-8" d="M126.61,63.03c1.57,1.16,2.65,2.87,3.59,4.58,1.73,3.12,3.15,6.42,4.24,9.82.99,3.08,2.4,6.87,5.61,7.2,1.74.18,3.4-.84,4.58-2.13,1.18-1.29,1.99-2.86,3.02-4.28,1.5-2.05,3.51-3.8,5.92-4.61,2.41-.82,5.22-.61,7.29.88,2.9,2.09,3.71,6.13,3.28,9.68-.43,3.55-1.83,6.92-2.42,10.44-.73,4.32-.19,8.84,1.51,12.88,1.12,2.64,3.37,5.4,6.22,5.05,2.28-.28,3.8-2.41,5.02-4.35,4.1-6.47,8.28-13.12,9.77-20.63,2.11-10.58-1.76-22.16-9.81-29.34-3.06-2.73-6.61-4.82-9.93-7.23-.66-.48-1.39-1.22-1.08-1.97.27-.66,1.14-.79,1.85-.79,12.29-.06,24.27,6.85,30.81,17.25,6.55,10.4,7.65,23.91,3.36,35.43-4.29,11.52-13.74,20.89-25.11,25.58-5.21,2.15-11.59,3.22-16.18-.05-6.82-4.86-5.44-15.74-10.67-22.28-2.48-3.09-6.18-4.88-9.48-7.07-7.31-4.85-12.95-12.11-15.99-20.33-1.05-2.84-3.77-7.38-3.75-10.42.03-4.31,5.18-5.62,8.32-3.3Z"/>
          <path class="cls-8" d="M24.6,133.36c1.01.23,2.09.18,3.29-.29,5.19-2.01,9.25-6.94,12.51-11.25,4.09-5.41,7.9-11.3,13.64-14.91,1.15-.72,2.73-1.32,3.78-.45,1.18.97.66,2.85.04,4.24-2.31,5.21-4.4,9.46-7.87,13.89-3.45,4.42-7.35,8.44-11.29,12.42-2.89,2.92-6.46,6.08-10.52,5.45-3.86-.6-6.17-4.2-8.53-6.92-2.26-2.6-5.21-4.52-7.44-7.09-2.27-2.62-.99-3.27,2.28-2.01,3.74,1.45,6.39,6.07,10.1,6.91Z"/>
          <path class="cls-7" d="M31.71,136.21c-2.63,1.2-5.16,1.44-7.26.04-2.7-1.81-14.89-19.66-14.45-5.53.13,4.29,2,8.61,5.13,11.56,3.1,2.92,7.6,5.13,8.28,9.34,1.18,7.34-2.57,12.54,4.05,18.48,6.87,6.16,18.5,9.83,27.13,12.57,2.86.91,6.47,1.51,8.43-.76,1.96-2.28.9-6.07,2.69-8.49,1.83-2.48,5.85-2.19,8.28-.31,2.44,1.89,3.74,4.84,5.15,7.58,4.02,7.78,9.99,14.99,18.12,18.25,8.13,3.27,18.6,1.62,23.81-5.42,3.13-4.23,5.29-10.68,10.55-10.82,4.84-.13,8.54,5.73,13.32,4.98,3.99-.63,5.77-5.53,5.44-9.55-.33-4.02-1.93-7.98-1.37-11.98.56-4,4.84-7.9,8.39-5.97,3.06,1.68,3,5.98,2.99,9.48,0,3.49,1.57,8,5.06,7.85,2.95-.13,4.49-3.77,4.14-6.7-.35-2.93-1.85-5.66-2.01-8.61-.31-5.88,4.89-10.8,10.48-12.66,5.59-1.85,11.63-1.51,17.5-2.07,5.86-.56,12.13-2.37,15.56-7.16,5.68-7.93.79-18.81.76-28.57-.02-6.51,2.24-12.79,3.05-19.25,2.98-23.57-19.79-45.64-40.84-51.24-4.54-1.2-10.84-.89-12.12,3.62-1.03,3.66,2.43,7.17,6.04,8.35,3.61,1.18,7.58.99,11.14,2.32,11.02,4.12,12.08,19.05,11.23,30.78-.64,8.79-1.41,18-6.23,25.38-4.91,7.51-16.74,13.9-22.98,5.3-5.73-7.9-6.45-19.72-2.39-28.44,1.41-3.04,3.29-6.86,1.09-9.39-2.38-2.74-7.02-.8-9.3,2.02-2.28,2.82-3.89,6.52-7.24,7.92-4.85,2.03-10.24-2.2-12.34-7.02-2.1-4.82-2.27-10.3-4.38-15.11-1.03-2.34-3.56-4.78-5.78-3.52-1.54.87-1.77,2.97-1.76,4.74.06,11.34,2.58,22.66,7.34,32.95,1.64,3.54,3.58,7.18,3.37,11.07-.21,3.89-3.69,7.91-7.48,7.01-2.8-.67-4.46-3.67-4.81-6.53-.35-2.86.27-5.74.28-8.62,0-2.88-.78-6.04-3.15-7.68-2.37-1.64-6.47-.55-6.8,2.31-.23,1.97,1.16,4.42-.35,5.7-1.63,1.38-4.18-.81-6.21-.13-2.41.81-1.87,4.31-1.13,6.74.74,2.43.04,6.25-2.47,5.83-1.54-.26-2.24-2.12-3.61-2.88-2.2-1.23-4.93,1.03-5.53,3.48-.6,2.45.02,5.04-.26,7.54-.48,4.23-3.81,7.98-7.95,8.96-22.8,5.41-4.86-32.99-19.45-29.95-6.76,1.41-8.55,10.74-11.8,15.4-2.74,3.92-10.42,13.68-17.34,16.82Z"/>
          <path class="cls-7" d="M80.43,43.42c-3.28,2.79-8.36,5.08-8,9.38.44,5.17,8.9,7.39,8.21,12.53-.41,3.07-4.21,5.63-2.99,8.48,1.21,2.83,5.59,1.73,7.83-.39,3.33-3.16,5.33-7.43,7.95-11.19,2.62-3.77,6.33-7.3,10.91-7.6,4.2-.28,9.29,1.92,12.1-1.21,1.63-1.82,1.48-4.62.74-6.95-.74-2.32-1.97-4.53-2.22-6.95-.51-5.05,3.32-9.7,3.13-14.77-.21-5.53-5.32-9.88-10.72-11.09-5.89-1.33-24.52-.77-24.75,7.64-.1,3.62,2.56,7.16,2.61,10.93.06,4.18-1.57,8.46-4.8,11.2Z"/>
          <path class="cls-7" d="M44.17,39.01c-2.09,2.62-2.9,6.22-2.13,9.48.77,3.26,3.1,6.12,6.14,7.53,1.41,1.18,3.75.1,4.48-1.59.74-1.69.37-3.63-.03-5.42-.4-1.8-.8-3.72-.13-5.43.53-1.34,1.64-2.34,2.71-3.31,1.07-.97,2.16-2.01,2.61-3.38,2.63-7.9-11.78-.24-13.66,2.11Z"/>
          <path class="cls-7" d="M168.15,67.33c-1.1-2.18-7.25-15.02-9.87-14.94-2.27.06-1.06,4.13-.74,5.87.75,4.07,2.04,8.62,4.17,12.2,3.69,6.21,9.92,3.75,6.44-3.13Z"/>
          <path class="cls-7" d="M156.83,26.64c1.84,2.42,3.48,5.13,6.05,6.75,2.57,1.62,6.48,1.68,8.22-.82,1.17-1.68,1-4.03.06-5.86-.94-1.83-2.51-3.23-4.09-4.54-4.07-3.37-18.25-14-24.08-9.56-3.15,2.39,1.22,4.44,3.54,5.82,4.02,2.41,7.38,4.36,10.3,8.21Z"/>
          <path class="cls-7" d="M208.4,153.66c1.53-1.07,3.31-2.49,5.05-1.8,1.47.58,1.99,2.35,2.33,3.9.84,3.85,1.63,8.05-.15,11.56-1.17,2.31-3.29,3.95-5.16,5.73-3.44,3.27-6.21,7.24-8.1,11.59-.71,1.65-1.33,3.38-2.51,4.74-1.18,1.35-3.12,2.24-4.8,1.58-2.23-.87-2.75-3.88-2.12-6.19.91-3.34,3.36-6.01,5.1-9,1.74-3,2.69-7.01.6-9.77-.98-1.3-2.47-2.09-3.79-3.04-1.32-.95-2.58-2.26-2.68-3.89-.23-3.9,12.94-3.11,16.23-5.4Z"/>
          <path class="cls-6" d="M49.04,133.26c2.94-.91,6.05,1.09,7.85,3.59,1.93,2.68,2.83,7.42,5.66,9.2,2.33,1.47,5.99.87,7.53-1.47.54-.81,1.07-1.91,2.04-1.9.97,0,1.5,1.1,2.23,1.75,1.5,1.34,3.98.63,5.4-.79,1.42-1.42,2.18-3.35,3.35-4.98,1.17-1.63,3.11-3.04,5.06-2.56,2.99.74,3.57,5.05,6.3,6.49,2.39,1.25,5.42-.33,6.92-2.58,1.5-2.25,1.96-5,2.89-7.53,1.33-3.64,3.68-6.9,6.71-9.31,2.29-1.83,5.32-3.21,8.09-2.29,2.82.94,4.44,3.99,4.87,6.93.43,2.94-.03,5.94.1,8.92.06,1.42.64,3.2,2.05,3.26.68.03,1.29-.39,1.81-.83,2-1.71,3.36-4.04,4.98-6.12,1.62-2.08,3.7-4.04,6.3-4.47,2.45-.41,4.89.6,7.32,1.15,5.12,1.16,9.92-.38,14.92-1.28,4.67-.84,9.34-1.86,14-2.9,1.49-.33,3.18-.81,3.84-2.2.47-.99.27-2.19.77-3.17.83-1.63,3.4-1.74,4.69-.44,1.29,1.3,1.38,3.45.67,5.13-.71,1.69-2.08,3-3.48,4.18-4.36,3.68-9.34,6.54-14.29,9.38-2.11,1.21-4.43,2.47-6.83,2.1-2.89-.44-5.53-3.17-8.3-2.22-3.3,1.13-3.82,6.67-7.28,7.04-2.83.29-4.63-3.28-7.43-3.82-2.42-.47-4.59,1.44-6.32,3.2-4.04,4.13-7.95,8.43-12.08,12.44-3.32,3.23-6.89,7.17-11.83,7.5-5.1.34-9.55-3.42-14.57-4.41-5.67-1.12-11.33,1.36-16.92,2.84-5.59,1.47-12.5,1.52-16.07-3.02-2.3-2.92-3.15-7.58-6.76-8.48-3.69-.91-6.61,2.97-10,4.68-6.51,3.3-16.94-3.74-11.22-9.54,1.71-1.73,7.12-1.05,9.6-3.21,3.25-2.83,2.64-8.77,7.44-10.26Z"/>
          <path class="cls-6" d="M138.55,109.43c-.05,2.14-.69,4.22-.94,6.35-.25,2.13-.06,4.46,1.32,6.1,1.38,1.64,4.23,2.1,5.62.47.96-1.13.94-2.81.54-4.24s-1.09-2.78-1.32-4.25c-.96-6.27,6.8-11.5,5.61-17.73-3.66-1.58-7.88,2.51-11.64,1.18-2.95-1.04-3.96-4.83-6.63-6.47-.84-.52-1.97-.78-2.8-.24-2.88,1.87,2.17,6.77,3.59,7.99,3.56,3.08,6.76,5.5,6.63,10.85Z"/>
          <path class="cls-6" d="M206.83,83.63c-.67,5.12-3.73,10.11-2.5,15.13.91,3.72,4.06,6.68,4.54,10.47.46,3.68-1.71,7.22-1.78,10.94-.07,3.4,1.63,6.67,1.43,10.07-.2,3.38-2.45,6.55-5.57,7.86-.58.24-1.22.43-1.84.3-1.54-.32-2.04-2.31-1.8-3.86.41-2.57,1.97-4.8,2.75-7.29.78-2.48.43-5.75-1.9-6.9-.93-.46-2.01-.5-2.99-.81-.99-.32-1.98-1.12-1.93-2.15.1-2.25,4.06-1.8,5.21-3.74.74-1.25-.1-2.87-1.18-3.84s-2.46-1.66-3.24-2.89c-1.3-2.07-.43-4.79.7-6.96,1.13-2.17,2.52-4.46,2.15-6.88-.39-2.5-2.63-4.7-2.06-7.16.34-1.46,1.6-2.52,2.22-3.88,1.33-2.92-.54-6.26-2.6-8.71-1.93-2.29-4.56-5.45-2.34-8.47,1.62-2.22,3.62-1.26,5.33.33,4.74,4.41,8.26,11.97,7.42,18.45Z"/>
          <path class="cls-6" d="M109.58,32.61c-.91,2.26-1.5,4.89-.41,7.07.76,1.51,2.3,2.8,2.13,4.47-.15,1.55-1.77,2.57-3.31,2.79-1.54.23-3.11-.08-4.66.05-2.91.25-5.5,2.05-7.46,4.22-1.96,2.17-3.43,4.73-5.15,7.1-.86,1.18-1.83,2.35-3.13,3.01-1.31.66-3.04.67-4.11-.32-1.41-1.31-1.07-3.74.11-5.25,1.19-1.52,2.97-2.42,4.56-3.5,1.59-1.09,3.12-2.59,3.31-4.51.23-2.4-1.49-5.45.46-6.86,1.27-.92,3.21-.2,4.51-1.07,1.28-.86,1.24-2.82.52-4.19-.72-1.37-1.91-2.43-2.66-3.78-1.78-3.23-.19-7.82,3.19-9.27-.13-1.1-.3-2.11-.23-3.2,11.67-4.83,16.49,2.96,12.33,13.24Z"/>
          <path class="cls-6" d="M113.68,187.02c.22-2.1-1.22-4.25-3.24-4.86-1.2-.36-2.49-.22-3.73-.38-6.01-.78-8.56-7.24-13.46-9.93-4.12-2.27-10.16-2-9.06,3.82,1.03,5.45,8.1,11.62,11.99,15.15,4,3.64,4.5,2.81,8.95,1.29,2.95-1.01,8.09-.86,8.54-5.09Z"/>
          <g class="cls-3">
            <path class="cls-2" d="M172.3,23.87c9.59,16.19,15.11,35.06,15.11,55.2,0,59.94-48.76,108.71-108.7,108.71-20.14,0-39.01-5.53-55.2-15.12,18.94,31.99,53.79,53.5,93.59,53.5,59.94,0,108.7-48.77,108.7-108.71,0-39.8-21.51-74.65-53.5-93.59Z"/>
          </g>
        </g>
      </g>
      <path d="M82.72,141.83c5.95-.82,14.79,2.36,21.06,3.19,7.64,1.01,14.85,1.02,22.5,0,8.22-1.09,25.88-8.32,29.09,3.58,2.53,9.38-9.47,20.13-16.76,24.27-18.62,10.59-47.25,6.78-60.18-11.04-5.15-7.1-7.04-18.45,4.29-20ZM83.09,145.53c-6.44.93-5.57,7.14-3.17,11.48,9.37,16.92,35.72,21.47,52.5,14.49,6.68-2.78,18.59-11.49,19.26-19.23.97-11.2-13.91-5.41-19.91-4.36-10.88,1.9-20.7,2.17-31.62.36-4.97-.82-12.27-3.44-17.05-2.75Z"/>
      <path d="M77.53,107.04c14.49-2.46,16.46,18,3.89,19.79-13.49,1.92-15.38-17.85-3.89-19.79Z"/>
      <path d="M148.27,107.05c14.08-2.07,15.83,18.55,2.83,19.84-12.97,1.28-15.01-18.05-2.83-19.84Z"/>
      <path class="cls-4" d="M83.09,145.53c4.78-.69,12.08,1.92,17.05,2.75,10.92,1.81,20.74,1.54,31.62-.36,6-1.05,20.88-6.84,19.91,4.36-.67,7.74-12.58,16.45-19.26,19.23-16.78,6.98-43.13,2.43-52.5-14.49-2.4-4.34-3.27-10.55,3.17-11.48Z"/>
    </g>
  </g>
</svg>